%TF.GenerationSoftware,KiCad,Pcbnew,9.0.8*%
%TF.CreationDate,2026-07-27T23:32:11+05:30*%
%TF.ProjectId,cuttingboard,63757474-696e-4676-926f-6172642e6b69,rev?*%
%TF.SameCoordinates,Original*%
%TF.FileFunction,Soldermask,Bot*%
%TF.FilePolarity,Negative*%
%FSLAX46Y46*%
G04 Gerber Fmt 4.6, Leading zero omitted, Abs format (unit mm)*
G04 Created by KiCad (PCBNEW 9.0.8) date 2026-07-27 23:32:11*
%MOMM*%
%LPD*%
G01*
G04 APERTURE LIST*
%ADD10C,1.700000*%
%ADD11R,1.700000X1.700000*%
%ADD12C,0.650000*%
%ADD13O,1.000000X2.100000*%
%ADD14O,1.000000X1.600000*%
G04 APERTURE END LIST*
D10*
%TO.C,J4*%
X104800000Y-107165000D03*
X102260000Y-107165000D03*
D11*
X99720000Y-107165000D03*
%TD*%
D12*
%TO.C,J1*%
X105150000Y-62875000D03*
X99370000Y-62875000D03*
D13*
X106580000Y-63405000D03*
D14*
X106580000Y-59225000D03*
D13*
X97940000Y-63405000D03*
D14*
X97940000Y-59225000D03*
%TD*%
D11*
%TO.C,J2*%
X93370000Y-59145000D03*
D10*
X93370000Y-61685000D03*
X93370000Y-64225000D03*
X93370000Y-66765000D03*
X93370000Y-69305000D03*
X93370000Y-71845000D03*
X93370000Y-74385000D03*
X93370000Y-76925000D03*
X93370000Y-79465000D03*
X93370000Y-82005000D03*
X93370000Y-84545000D03*
X93370000Y-87085000D03*
X93370000Y-89625000D03*
X93370000Y-92165000D03*
X93370000Y-94705000D03*
X93370000Y-97245000D03*
X93370000Y-99785000D03*
X93370000Y-102325000D03*
X93370000Y-104865000D03*
X93370000Y-107405000D03*
%TD*%
D11*
%TO.C,J3*%
X111150000Y-59145000D03*
D10*
X111150000Y-61685000D03*
X111150000Y-64225000D03*
X111150000Y-66765000D03*
X111150000Y-69305000D03*
X111150000Y-71845000D03*
X111150000Y-74385000D03*
X111150000Y-76925000D03*
X111150000Y-79465000D03*
X111150000Y-82005000D03*
X111150000Y-84545000D03*
X111150000Y-87085000D03*
X111150000Y-89625000D03*
X111150000Y-92165000D03*
X111150000Y-94705000D03*
X111150000Y-97245000D03*
X111150000Y-99785000D03*
X111150000Y-102325000D03*
X111150000Y-104865000D03*
X111150000Y-107405000D03*
%TD*%
M02*
