%TF.GenerationSoftware,KiCad,Pcbnew,9.0.8*%
%TF.CreationDate,2026-07-27T23:32:11+05:30*%
%TF.ProjectId,cuttingboard,63757474-696e-4676-926f-6172642e6b69,rev?*%
%TF.SameCoordinates,Original*%
%TF.FileFunction,Legend,Top*%
%TF.FilePolarity,Positive*%
%FSLAX46Y46*%
G04 Gerber Fmt 4.6, Leading zero omitted, Abs format (unit mm)*
G04 Created by KiCad (PCBNEW 9.0.8) date 2026-07-27 23:32:11*
%MOMM*%
%LPD*%
G01*
G04 APERTURE LIST*
%ADD10C,0.150000*%
%ADD11C,0.300000*%
%ADD12C,0.000000*%
%ADD13C,0.120000*%
G04 APERTURE END LIST*
D10*
X95779585Y-62737255D02*
X96279585Y-62737255D01*
X96208157Y-62737255D02*
X96243871Y-62772969D01*
X96243871Y-62772969D02*
X96279585Y-62844398D01*
X96279585Y-62844398D02*
X96279585Y-62951541D01*
X96279585Y-62951541D02*
X96243871Y-63022969D01*
X96243871Y-63022969D02*
X96172442Y-63058684D01*
X96172442Y-63058684D02*
X95779585Y-63058684D01*
X96172442Y-63058684D02*
X96243871Y-63094398D01*
X96243871Y-63094398D02*
X96279585Y-63165826D01*
X96279585Y-63165826D02*
X96279585Y-63272969D01*
X96279585Y-63272969D02*
X96243871Y-63344398D01*
X96243871Y-63344398D02*
X96172442Y-63380112D01*
X96172442Y-63380112D02*
X95779585Y-63380112D01*
X95779585Y-64058684D02*
X96172442Y-64058684D01*
X96172442Y-64058684D02*
X96243871Y-64022969D01*
X96243871Y-64022969D02*
X96279585Y-63951541D01*
X96279585Y-63951541D02*
X96279585Y-63808684D01*
X96279585Y-63808684D02*
X96243871Y-63737255D01*
X95815300Y-64058684D02*
X95779585Y-63987255D01*
X95779585Y-63987255D02*
X95779585Y-63808684D01*
X95779585Y-63808684D02*
X95815300Y-63737255D01*
X95815300Y-63737255D02*
X95886728Y-63701541D01*
X95886728Y-63701541D02*
X95958157Y-63701541D01*
X95958157Y-63701541D02*
X96029585Y-63737255D01*
X96029585Y-63737255D02*
X96065300Y-63808684D01*
X96065300Y-63808684D02*
X96065300Y-63987255D01*
X96065300Y-63987255D02*
X96101014Y-64058684D01*
X95779585Y-64737255D02*
X96529585Y-64737255D01*
X95815300Y-64737255D02*
X95779585Y-64665826D01*
X95779585Y-64665826D02*
X95779585Y-64522969D01*
X95779585Y-64522969D02*
X95815300Y-64451540D01*
X95815300Y-64451540D02*
X95851014Y-64415826D01*
X95851014Y-64415826D02*
X95922442Y-64380112D01*
X95922442Y-64380112D02*
X96136728Y-64380112D01*
X96136728Y-64380112D02*
X96208157Y-64415826D01*
X96208157Y-64415826D02*
X96243871Y-64451540D01*
X96243871Y-64451540D02*
X96279585Y-64522969D01*
X96279585Y-64522969D02*
X96279585Y-64665826D01*
X96279585Y-64665826D02*
X96243871Y-64737255D01*
X95815300Y-65380111D02*
X95779585Y-65308683D01*
X95779585Y-65308683D02*
X95779585Y-65165826D01*
X95779585Y-65165826D02*
X95815300Y-65094397D01*
X95815300Y-65094397D02*
X95886728Y-65058683D01*
X95886728Y-65058683D02*
X96172442Y-65058683D01*
X96172442Y-65058683D02*
X96243871Y-65094397D01*
X96243871Y-65094397D02*
X96279585Y-65165826D01*
X96279585Y-65165826D02*
X96279585Y-65308683D01*
X96279585Y-65308683D02*
X96243871Y-65380111D01*
X96243871Y-65380111D02*
X96172442Y-65415826D01*
X96172442Y-65415826D02*
X96101014Y-65415826D01*
X96101014Y-65415826D02*
X96029585Y-65058683D01*
X96279585Y-66237254D02*
X95779585Y-66380112D01*
X95779585Y-66380112D02*
X96136728Y-66522969D01*
X96136728Y-66522969D02*
X95779585Y-66665826D01*
X95779585Y-66665826D02*
X96279585Y-66808683D01*
X95779585Y-67094397D02*
X96279585Y-67094397D01*
X96529585Y-67094397D02*
X96493871Y-67058683D01*
X96493871Y-67058683D02*
X96458157Y-67094397D01*
X96458157Y-67094397D02*
X96493871Y-67130111D01*
X96493871Y-67130111D02*
X96529585Y-67094397D01*
X96529585Y-67094397D02*
X96458157Y-67094397D01*
X96279585Y-67344397D02*
X96279585Y-67630111D01*
X96529585Y-67451540D02*
X95886728Y-67451540D01*
X95886728Y-67451540D02*
X95815300Y-67487254D01*
X95815300Y-67487254D02*
X95779585Y-67558683D01*
X95779585Y-67558683D02*
X95779585Y-67630111D01*
X95779585Y-67880111D02*
X96529585Y-67880111D01*
X95779585Y-68201540D02*
X96172442Y-68201540D01*
X96172442Y-68201540D02*
X96243871Y-68165825D01*
X96243871Y-68165825D02*
X96279585Y-68094397D01*
X96279585Y-68094397D02*
X96279585Y-67987254D01*
X96279585Y-67987254D02*
X96243871Y-67915825D01*
X96243871Y-67915825D02*
X96208157Y-67880111D01*
X95779585Y-69237254D02*
X95815300Y-69165825D01*
X95815300Y-69165825D02*
X95886728Y-69130111D01*
X95886728Y-69130111D02*
X96529585Y-69130111D01*
X95779585Y-69630111D02*
X95815300Y-69558682D01*
X95815300Y-69558682D02*
X95851014Y-69522968D01*
X95851014Y-69522968D02*
X95922442Y-69487254D01*
X95922442Y-69487254D02*
X96136728Y-69487254D01*
X96136728Y-69487254D02*
X96208157Y-69522968D01*
X96208157Y-69522968D02*
X96243871Y-69558682D01*
X96243871Y-69558682D02*
X96279585Y-69630111D01*
X96279585Y-69630111D02*
X96279585Y-69737254D01*
X96279585Y-69737254D02*
X96243871Y-69808682D01*
X96243871Y-69808682D02*
X96208157Y-69844397D01*
X96208157Y-69844397D02*
X96136728Y-69880111D01*
X96136728Y-69880111D02*
X95922442Y-69880111D01*
X95922442Y-69880111D02*
X95851014Y-69844397D01*
X95851014Y-69844397D02*
X95815300Y-69808682D01*
X95815300Y-69808682D02*
X95779585Y-69737254D01*
X95779585Y-69737254D02*
X95779585Y-69630111D01*
X96279585Y-70130110D02*
X95779585Y-70308682D01*
X95779585Y-70308682D02*
X96279585Y-70487253D01*
X95815300Y-71058682D02*
X95779585Y-70987254D01*
X95779585Y-70987254D02*
X95779585Y-70844397D01*
X95779585Y-70844397D02*
X95815300Y-70772968D01*
X95815300Y-70772968D02*
X95886728Y-70737254D01*
X95886728Y-70737254D02*
X96172442Y-70737254D01*
X96172442Y-70737254D02*
X96243871Y-70772968D01*
X96243871Y-70772968D02*
X96279585Y-70844397D01*
X96279585Y-70844397D02*
X96279585Y-70987254D01*
X96279585Y-70987254D02*
X96243871Y-71058682D01*
X96243871Y-71058682D02*
X96172442Y-71094397D01*
X96172442Y-71094397D02*
X96101014Y-71094397D01*
X96101014Y-71094397D02*
X96029585Y-70737254D01*
X95779585Y-72308683D02*
X96172442Y-72308683D01*
X96172442Y-72308683D02*
X96243871Y-72272968D01*
X96243871Y-72272968D02*
X96279585Y-72201540D01*
X96279585Y-72201540D02*
X96279585Y-72058683D01*
X96279585Y-72058683D02*
X96243871Y-71987254D01*
X95815300Y-72308683D02*
X95779585Y-72237254D01*
X95779585Y-72237254D02*
X95779585Y-72058683D01*
X95779585Y-72058683D02*
X95815300Y-71987254D01*
X95815300Y-71987254D02*
X95886728Y-71951540D01*
X95886728Y-71951540D02*
X95958157Y-71951540D01*
X95958157Y-71951540D02*
X96029585Y-71987254D01*
X96029585Y-71987254D02*
X96065300Y-72058683D01*
X96065300Y-72058683D02*
X96065300Y-72237254D01*
X96065300Y-72237254D02*
X96101014Y-72308683D01*
X96279585Y-72665825D02*
X95779585Y-72665825D01*
X96208157Y-72665825D02*
X96243871Y-72701539D01*
X96243871Y-72701539D02*
X96279585Y-72772968D01*
X96279585Y-72772968D02*
X96279585Y-72880111D01*
X96279585Y-72880111D02*
X96243871Y-72951539D01*
X96243871Y-72951539D02*
X96172442Y-72987254D01*
X96172442Y-72987254D02*
X95779585Y-72987254D01*
X95779585Y-73665825D02*
X96529585Y-73665825D01*
X95815300Y-73665825D02*
X95779585Y-73594396D01*
X95779585Y-73594396D02*
X95779585Y-73451539D01*
X95779585Y-73451539D02*
X95815300Y-73380110D01*
X95815300Y-73380110D02*
X95851014Y-73344396D01*
X95851014Y-73344396D02*
X95922442Y-73308682D01*
X95922442Y-73308682D02*
X96136728Y-73308682D01*
X96136728Y-73308682D02*
X96208157Y-73344396D01*
X96208157Y-73344396D02*
X96243871Y-73380110D01*
X96243871Y-73380110D02*
X96279585Y-73451539D01*
X96279585Y-73451539D02*
X96279585Y-73594396D01*
X96279585Y-73594396D02*
X96243871Y-73665825D01*
X96279585Y-74594396D02*
X95529585Y-74594396D01*
X96243871Y-74594396D02*
X96279585Y-74665825D01*
X96279585Y-74665825D02*
X96279585Y-74808682D01*
X96279585Y-74808682D02*
X96243871Y-74880110D01*
X96243871Y-74880110D02*
X96208157Y-74915825D01*
X96208157Y-74915825D02*
X96136728Y-74951539D01*
X96136728Y-74951539D02*
X95922442Y-74951539D01*
X95922442Y-74951539D02*
X95851014Y-74915825D01*
X95851014Y-74915825D02*
X95815300Y-74880110D01*
X95815300Y-74880110D02*
X95779585Y-74808682D01*
X95779585Y-74808682D02*
X95779585Y-74665825D01*
X95779585Y-74665825D02*
X95815300Y-74594396D01*
X95779585Y-75594396D02*
X96172442Y-75594396D01*
X96172442Y-75594396D02*
X96243871Y-75558681D01*
X96243871Y-75558681D02*
X96279585Y-75487253D01*
X96279585Y-75487253D02*
X96279585Y-75344396D01*
X96279585Y-75344396D02*
X96243871Y-75272967D01*
X95815300Y-75594396D02*
X95779585Y-75522967D01*
X95779585Y-75522967D02*
X95779585Y-75344396D01*
X95779585Y-75344396D02*
X95815300Y-75272967D01*
X95815300Y-75272967D02*
X95886728Y-75237253D01*
X95886728Y-75237253D02*
X95958157Y-75237253D01*
X95958157Y-75237253D02*
X96029585Y-75272967D01*
X96029585Y-75272967D02*
X96065300Y-75344396D01*
X96065300Y-75344396D02*
X96065300Y-75522967D01*
X96065300Y-75522967D02*
X96101014Y-75594396D01*
X96279585Y-75844395D02*
X96279585Y-76130109D01*
X96529585Y-75951538D02*
X95886728Y-75951538D01*
X95886728Y-75951538D02*
X95815300Y-75987252D01*
X95815300Y-75987252D02*
X95779585Y-76058681D01*
X95779585Y-76058681D02*
X95779585Y-76130109D01*
X95779585Y-76380109D02*
X96279585Y-76380109D01*
X96529585Y-76380109D02*
X96493871Y-76344395D01*
X96493871Y-76344395D02*
X96458157Y-76380109D01*
X96458157Y-76380109D02*
X96493871Y-76415823D01*
X96493871Y-76415823D02*
X96529585Y-76380109D01*
X96529585Y-76380109D02*
X96458157Y-76380109D01*
X95815300Y-77022966D02*
X95779585Y-76951538D01*
X95779585Y-76951538D02*
X95779585Y-76808681D01*
X95779585Y-76808681D02*
X95815300Y-76737252D01*
X95815300Y-76737252D02*
X95886728Y-76701538D01*
X95886728Y-76701538D02*
X96172442Y-76701538D01*
X96172442Y-76701538D02*
X96243871Y-76737252D01*
X96243871Y-76737252D02*
X96279585Y-76808681D01*
X96279585Y-76808681D02*
X96279585Y-76951538D01*
X96279585Y-76951538D02*
X96243871Y-77022966D01*
X96243871Y-77022966D02*
X96172442Y-77058681D01*
X96172442Y-77058681D02*
X96101014Y-77058681D01*
X96101014Y-77058681D02*
X96029585Y-76701538D01*
X96279585Y-77380109D02*
X95779585Y-77380109D01*
X96208157Y-77380109D02*
X96243871Y-77415823D01*
X96243871Y-77415823D02*
X96279585Y-77487252D01*
X96279585Y-77487252D02*
X96279585Y-77594395D01*
X96279585Y-77594395D02*
X96243871Y-77665823D01*
X96243871Y-77665823D02*
X96172442Y-77701538D01*
X96172442Y-77701538D02*
X95779585Y-77701538D01*
X95815300Y-78380109D02*
X95779585Y-78308680D01*
X95779585Y-78308680D02*
X95779585Y-78165823D01*
X95779585Y-78165823D02*
X95815300Y-78094394D01*
X95815300Y-78094394D02*
X95851014Y-78058680D01*
X95851014Y-78058680D02*
X95922442Y-78022966D01*
X95922442Y-78022966D02*
X96136728Y-78022966D01*
X96136728Y-78022966D02*
X96208157Y-78058680D01*
X96208157Y-78058680D02*
X96243871Y-78094394D01*
X96243871Y-78094394D02*
X96279585Y-78165823D01*
X96279585Y-78165823D02*
X96279585Y-78308680D01*
X96279585Y-78308680D02*
X96243871Y-78380109D01*
X95815300Y-78987251D02*
X95779585Y-78915823D01*
X95779585Y-78915823D02*
X95779585Y-78772966D01*
X95779585Y-78772966D02*
X95815300Y-78701537D01*
X95815300Y-78701537D02*
X95886728Y-78665823D01*
X95886728Y-78665823D02*
X96172442Y-78665823D01*
X96172442Y-78665823D02*
X96243871Y-78701537D01*
X96243871Y-78701537D02*
X96279585Y-78772966D01*
X96279585Y-78772966D02*
X96279585Y-78915823D01*
X96279585Y-78915823D02*
X96243871Y-78987251D01*
X96243871Y-78987251D02*
X96172442Y-79022966D01*
X96172442Y-79022966D02*
X96101014Y-79022966D01*
X96101014Y-79022966D02*
X96029585Y-78665823D01*
D11*
X108940828Y-80035489D02*
X107940828Y-80035489D01*
X108226542Y-80035489D02*
X108083685Y-79964060D01*
X108083685Y-79964060D02*
X108012257Y-79892632D01*
X108012257Y-79892632D02*
X107940828Y-79749774D01*
X107940828Y-79749774D02*
X107940828Y-79606917D01*
X107940828Y-78464061D02*
X108940828Y-78464061D01*
X107940828Y-79106918D02*
X108726542Y-79106918D01*
X108726542Y-79106918D02*
X108869400Y-79035489D01*
X108869400Y-79035489D02*
X108940828Y-78892632D01*
X108940828Y-78892632D02*
X108940828Y-78678346D01*
X108940828Y-78678346D02*
X108869400Y-78535489D01*
X108869400Y-78535489D02*
X108797971Y-78464061D01*
X108940828Y-77106918D02*
X107440828Y-77106918D01*
X108869400Y-77106918D02*
X108940828Y-77249775D01*
X108940828Y-77249775D02*
X108940828Y-77535489D01*
X108940828Y-77535489D02*
X108869400Y-77678346D01*
X108869400Y-77678346D02*
X108797971Y-77749775D01*
X108797971Y-77749775D02*
X108655114Y-77821203D01*
X108655114Y-77821203D02*
X108226542Y-77821203D01*
X108226542Y-77821203D02*
X108083685Y-77749775D01*
X108083685Y-77749775D02*
X108012257Y-77678346D01*
X108012257Y-77678346D02*
X107940828Y-77535489D01*
X107940828Y-77535489D02*
X107940828Y-77249775D01*
X107940828Y-77249775D02*
X108012257Y-77106918D01*
X108940828Y-76392632D02*
X107940828Y-76392632D01*
X108226542Y-76392632D02*
X108083685Y-76321203D01*
X108083685Y-76321203D02*
X108012257Y-76249775D01*
X108012257Y-76249775D02*
X107940828Y-76106917D01*
X107940828Y-76106917D02*
X107940828Y-75964060D01*
X108940828Y-74821204D02*
X108155114Y-74821204D01*
X108155114Y-74821204D02*
X108012257Y-74892632D01*
X108012257Y-74892632D02*
X107940828Y-75035489D01*
X107940828Y-75035489D02*
X107940828Y-75321204D01*
X107940828Y-75321204D02*
X108012257Y-75464061D01*
X108869400Y-74821204D02*
X108940828Y-74964061D01*
X108940828Y-74964061D02*
X108940828Y-75321204D01*
X108940828Y-75321204D02*
X108869400Y-75464061D01*
X108869400Y-75464061D02*
X108726542Y-75535489D01*
X108726542Y-75535489D02*
X108583685Y-75535489D01*
X108583685Y-75535489D02*
X108440828Y-75464061D01*
X108440828Y-75464061D02*
X108369400Y-75321204D01*
X108369400Y-75321204D02*
X108369400Y-74964061D01*
X108369400Y-74964061D02*
X108297971Y-74821204D01*
X107940828Y-74106918D02*
X108940828Y-74106918D01*
X108083685Y-74106918D02*
X108012257Y-74035489D01*
X108012257Y-74035489D02*
X107940828Y-73892632D01*
X107940828Y-73892632D02*
X107940828Y-73678346D01*
X107940828Y-73678346D02*
X108012257Y-73535489D01*
X108012257Y-73535489D02*
X108155114Y-73464061D01*
X108155114Y-73464061D02*
X108940828Y-73464061D01*
X108869400Y-72821203D02*
X108940828Y-72678346D01*
X108940828Y-72678346D02*
X108940828Y-72392632D01*
X108940828Y-72392632D02*
X108869400Y-72249775D01*
X108869400Y-72249775D02*
X108726542Y-72178346D01*
X108726542Y-72178346D02*
X108655114Y-72178346D01*
X108655114Y-72178346D02*
X108512257Y-72249775D01*
X108512257Y-72249775D02*
X108440828Y-72392632D01*
X108440828Y-72392632D02*
X108440828Y-72606918D01*
X108440828Y-72606918D02*
X108369400Y-72749775D01*
X108369400Y-72749775D02*
X108226542Y-72821203D01*
X108226542Y-72821203D02*
X108155114Y-72821203D01*
X108155114Y-72821203D02*
X108012257Y-72749775D01*
X108012257Y-72749775D02*
X107940828Y-72606918D01*
X107940828Y-72606918D02*
X107940828Y-72392632D01*
X107940828Y-72392632D02*
X108012257Y-72249775D01*
X108940828Y-71535489D02*
X107440828Y-71535489D01*
X108940828Y-70892632D02*
X108155114Y-70892632D01*
X108155114Y-70892632D02*
X108012257Y-70964060D01*
X108012257Y-70964060D02*
X107940828Y-71106917D01*
X107940828Y-71106917D02*
X107940828Y-71321203D01*
X107940828Y-71321203D02*
X108012257Y-71464060D01*
X108012257Y-71464060D02*
X108083685Y-71535489D01*
X107940828Y-69535489D02*
X109155114Y-69535489D01*
X109155114Y-69535489D02*
X109297971Y-69606917D01*
X109297971Y-69606917D02*
X109369400Y-69678346D01*
X109369400Y-69678346D02*
X109440828Y-69821203D01*
X109440828Y-69821203D02*
X109440828Y-70035489D01*
X109440828Y-70035489D02*
X109369400Y-70178346D01*
X108869400Y-69535489D02*
X108940828Y-69678346D01*
X108940828Y-69678346D02*
X108940828Y-69964060D01*
X108940828Y-69964060D02*
X108869400Y-70106917D01*
X108869400Y-70106917D02*
X108797971Y-70178346D01*
X108797971Y-70178346D02*
X108655114Y-70249774D01*
X108655114Y-70249774D02*
X108226542Y-70249774D01*
X108226542Y-70249774D02*
X108083685Y-70178346D01*
X108083685Y-70178346D02*
X108012257Y-70106917D01*
X108012257Y-70106917D02*
X107940828Y-69964060D01*
X107940828Y-69964060D02*
X107940828Y-69678346D01*
X107940828Y-69678346D02*
X108012257Y-69535489D01*
X108940828Y-68606917D02*
X108869400Y-68749774D01*
X108869400Y-68749774D02*
X108797971Y-68821203D01*
X108797971Y-68821203D02*
X108655114Y-68892631D01*
X108655114Y-68892631D02*
X108226542Y-68892631D01*
X108226542Y-68892631D02*
X108083685Y-68821203D01*
X108083685Y-68821203D02*
X108012257Y-68749774D01*
X108012257Y-68749774D02*
X107940828Y-68606917D01*
X107940828Y-68606917D02*
X107940828Y-68392631D01*
X107940828Y-68392631D02*
X108012257Y-68249774D01*
X108012257Y-68249774D02*
X108083685Y-68178346D01*
X108083685Y-68178346D02*
X108226542Y-68106917D01*
X108226542Y-68106917D02*
X108655114Y-68106917D01*
X108655114Y-68106917D02*
X108797971Y-68178346D01*
X108797971Y-68178346D02*
X108869400Y-68249774D01*
X108869400Y-68249774D02*
X108940828Y-68392631D01*
X108940828Y-68392631D02*
X108940828Y-68606917D01*
X108869400Y-66892631D02*
X108940828Y-67035488D01*
X108940828Y-67035488D02*
X108940828Y-67321203D01*
X108940828Y-67321203D02*
X108869400Y-67464060D01*
X108869400Y-67464060D02*
X108726542Y-67535488D01*
X108726542Y-67535488D02*
X108155114Y-67535488D01*
X108155114Y-67535488D02*
X108012257Y-67464060D01*
X108012257Y-67464060D02*
X107940828Y-67321203D01*
X107940828Y-67321203D02*
X107940828Y-67035488D01*
X107940828Y-67035488D02*
X108012257Y-66892631D01*
X108012257Y-66892631D02*
X108155114Y-66821203D01*
X108155114Y-66821203D02*
X108297971Y-66821203D01*
X108297971Y-66821203D02*
X108440828Y-67535488D01*
X108940828Y-65964060D02*
X108869400Y-66106917D01*
X108869400Y-66106917D02*
X108726542Y-66178346D01*
X108726542Y-66178346D02*
X107440828Y-66178346D01*
X108797971Y-65392632D02*
X108869400Y-65321203D01*
X108869400Y-65321203D02*
X108940828Y-65392632D01*
X108940828Y-65392632D02*
X108869400Y-65464060D01*
X108869400Y-65464060D02*
X108797971Y-65392632D01*
X108797971Y-65392632D02*
X108940828Y-65392632D01*
X108869400Y-64035489D02*
X108940828Y-64178346D01*
X108940828Y-64178346D02*
X108940828Y-64464060D01*
X108940828Y-64464060D02*
X108869400Y-64606917D01*
X108869400Y-64606917D02*
X108797971Y-64678346D01*
X108797971Y-64678346D02*
X108655114Y-64749774D01*
X108655114Y-64749774D02*
X108226542Y-64749774D01*
X108226542Y-64749774D02*
X108083685Y-64678346D01*
X108083685Y-64678346D02*
X108012257Y-64606917D01*
X108012257Y-64606917D02*
X107940828Y-64464060D01*
X107940828Y-64464060D02*
X107940828Y-64178346D01*
X107940828Y-64178346D02*
X108012257Y-64035489D01*
X108940828Y-63178346D02*
X108869400Y-63321203D01*
X108869400Y-63321203D02*
X108797971Y-63392632D01*
X108797971Y-63392632D02*
X108655114Y-63464060D01*
X108655114Y-63464060D02*
X108226542Y-63464060D01*
X108226542Y-63464060D02*
X108083685Y-63392632D01*
X108083685Y-63392632D02*
X108012257Y-63321203D01*
X108012257Y-63321203D02*
X107940828Y-63178346D01*
X107940828Y-63178346D02*
X107940828Y-62964060D01*
X107940828Y-62964060D02*
X108012257Y-62821203D01*
X108012257Y-62821203D02*
X108083685Y-62749775D01*
X108083685Y-62749775D02*
X108226542Y-62678346D01*
X108226542Y-62678346D02*
X108655114Y-62678346D01*
X108655114Y-62678346D02*
X108797971Y-62749775D01*
X108797971Y-62749775D02*
X108869400Y-62821203D01*
X108869400Y-62821203D02*
X108940828Y-62964060D01*
X108940828Y-62964060D02*
X108940828Y-63178346D01*
X108940828Y-62035489D02*
X107940828Y-62035489D01*
X108083685Y-62035489D02*
X108012257Y-61964060D01*
X108012257Y-61964060D02*
X107940828Y-61821203D01*
X107940828Y-61821203D02*
X107940828Y-61606917D01*
X107940828Y-61606917D02*
X108012257Y-61464060D01*
X108012257Y-61464060D02*
X108155114Y-61392632D01*
X108155114Y-61392632D02*
X108940828Y-61392632D01*
X108155114Y-61392632D02*
X108012257Y-61321203D01*
X108012257Y-61321203D02*
X107940828Y-61178346D01*
X107940828Y-61178346D02*
X107940828Y-60964060D01*
X107940828Y-60964060D02*
X108012257Y-60821203D01*
X108012257Y-60821203D02*
X108155114Y-60749774D01*
X108155114Y-60749774D02*
X108940828Y-60749774D01*
D12*
%TO.C,G\u002A\u002A\u002A*%
G36*
X98947431Y-76703225D02*
G01*
X98948512Y-76726835D01*
X98921117Y-76798133D01*
X98839437Y-76876498D01*
X98704225Y-76961264D01*
X98650877Y-76989079D01*
X98557583Y-77031908D01*
X98502922Y-77045303D01*
X98478999Y-77030235D01*
X98476083Y-77010609D01*
X98498680Y-76971693D01*
X98538610Y-76944809D01*
X98591043Y-76911822D01*
X98666830Y-76853605D01*
X98744170Y-76787503D01*
X98837052Y-76708433D01*
X98898257Y-76669108D01*
X98933234Y-76667911D01*
X98947431Y-76703225D01*
G37*
G36*
X98475422Y-76477791D02*
G01*
X98554906Y-76517552D01*
X98586728Y-76582213D01*
X98587243Y-76593422D01*
X98564824Y-76649403D01*
X98509464Y-76712279D01*
X98439003Y-76766362D01*
X98371284Y-76795960D01*
X98354927Y-76797724D01*
X98304529Y-76807461D01*
X98281954Y-76847594D01*
X98276367Y-76885901D01*
X98257583Y-76957394D01*
X98225067Y-76985075D01*
X98187371Y-76964124D01*
X98174066Y-76943537D01*
X98162780Y-76881164D01*
X98169946Y-76789163D01*
X98192263Y-76689049D01*
X98226089Y-76603194D01*
X98309343Y-76603194D01*
X98331852Y-76627849D01*
X98351028Y-76630984D01*
X98388010Y-76615979D01*
X98392713Y-76603194D01*
X98370204Y-76578540D01*
X98351028Y-76575404D01*
X98314046Y-76590410D01*
X98309343Y-76603194D01*
X98226089Y-76603194D01*
X98226413Y-76602372D01*
X98236134Y-76557287D01*
X98209808Y-76536694D01*
X98176040Y-76512875D01*
X98190145Y-76490280D01*
X98244480Y-76472839D01*
X98331404Y-76464482D01*
X98350683Y-76464245D01*
X98475422Y-76477791D01*
G37*
G36*
X97603705Y-76370799D02*
G01*
X97607910Y-76421947D01*
X97610441Y-76480692D01*
X97647885Y-76507675D01*
X97688120Y-76534892D01*
X97680566Y-76567703D01*
X97630639Y-76595631D01*
X97598407Y-76603373D01*
X97532559Y-76630221D01*
X97508249Y-76681325D01*
X97518472Y-76760912D01*
X97576570Y-76813936D01*
X97645099Y-76835783D01*
X97709624Y-76862327D01*
X97725969Y-76898716D01*
X97697468Y-76933924D01*
X97627453Y-76956925D01*
X97607807Y-76959170D01*
X97520156Y-76954276D01*
X97451902Y-76914493D01*
X97434351Y-76897906D01*
X97386060Y-76833024D01*
X97366410Y-76752584D01*
X97364485Y-76700850D01*
X97356120Y-76607061D01*
X97330043Y-76561384D01*
X97322801Y-76557664D01*
X97284098Y-76528163D01*
X97295266Y-76500838D01*
X97336879Y-76492035D01*
X97393212Y-76472100D01*
X97451787Y-76423999D01*
X97453051Y-76422560D01*
X97515134Y-76369077D01*
X97569208Y-76351808D01*
X97603705Y-76370799D01*
G37*
G36*
X102087881Y-75977321D02*
G01*
X102167116Y-76007842D01*
X102246963Y-76046535D01*
X102306573Y-76083737D01*
X102323536Y-76100625D01*
X102328453Y-76144836D01*
X102315618Y-76210627D01*
X102292029Y-76276022D01*
X102264686Y-76319042D01*
X102251979Y-76325295D01*
X102210051Y-76313471D01*
X102147109Y-76285035D01*
X102146968Y-76284962D01*
X102097874Y-76262407D01*
X102070156Y-76267872D01*
X102049619Y-76310967D01*
X102034092Y-76361384D01*
X101967799Y-76540716D01*
X101889168Y-76670513D01*
X101794032Y-76756221D01*
X101699877Y-76797677D01*
X101639922Y-76809546D01*
X101593624Y-76797578D01*
X101539698Y-76753983D01*
X101515413Y-76730140D01*
X101460010Y-76668506D01*
X101426434Y-76619139D01*
X101421816Y-76604646D01*
X101445587Y-76553558D01*
X101505935Y-76497749D01*
X101586408Y-76449155D01*
X101670559Y-76419710D01*
X101678721Y-76418250D01*
X101756380Y-76397494D01*
X101802511Y-76355209D01*
X101829839Y-76300530D01*
X101896990Y-76148176D01*
X101950609Y-76044440D01*
X101993401Y-75984788D01*
X102028069Y-75964682D01*
X102030109Y-75964636D01*
X102087881Y-75977321D01*
G37*
G36*
X97986836Y-76372568D02*
G01*
X98035151Y-76406845D01*
X98035489Y-76407123D01*
X98078557Y-76448488D01*
X98083392Y-76485743D01*
X98058305Y-76538982D01*
X97997185Y-76606699D01*
X97920313Y-76623699D01*
X97857757Y-76601536D01*
X97814222Y-76549959D01*
X97815695Y-76485057D01*
X97859703Y-76422402D01*
X97889592Y-76400905D01*
X97947592Y-76370983D01*
X97986836Y-76372568D01*
G37*
G36*
X101121936Y-72775176D02*
G01*
X101219573Y-72778748D01*
X101277073Y-72784700D01*
X101292289Y-72788879D01*
X101320479Y-72805703D01*
X101340857Y-72832839D01*
X101356166Y-72880409D01*
X101369150Y-72958531D01*
X101382551Y-73077327D01*
X101389542Y-73147700D01*
X101403904Y-73299191D01*
X101417616Y-73451054D01*
X101428888Y-73583091D01*
X101434701Y-73657461D01*
X101443791Y-73783488D01*
X101454318Y-73930132D01*
X101462639Y-74046520D01*
X101469418Y-74155477D01*
X101477130Y-74301529D01*
X101484865Y-74466225D01*
X101491707Y-74631111D01*
X101492198Y-74644004D01*
X101499222Y-74815045D01*
X101508498Y-75019714D01*
X101518986Y-75236157D01*
X101529651Y-75442521D01*
X101533420Y-75511713D01*
X101542022Y-75698576D01*
X101545657Y-75854421D01*
X101544312Y-75971983D01*
X101537971Y-76044001D01*
X101534566Y-76057109D01*
X101520983Y-76083606D01*
X101498687Y-76104893D01*
X101461929Y-76121585D01*
X101404958Y-76134299D01*
X101322024Y-76143652D01*
X101207378Y-76150259D01*
X101055269Y-76154738D01*
X100859947Y-76157703D01*
X100615663Y-76159772D01*
X100574223Y-76160045D01*
X100364320Y-76161436D01*
X100113232Y-76163172D01*
X99835355Y-76165148D01*
X99545081Y-76167261D01*
X99256805Y-76169407D01*
X98984921Y-76171482D01*
X98930560Y-76171905D01*
X98705176Y-76172993D01*
X98496735Y-76172719D01*
X98311945Y-76171190D01*
X98157512Y-76168513D01*
X98040144Y-76164796D01*
X97966548Y-76160148D01*
X97944018Y-76156059D01*
X97935785Y-76142388D01*
X97928676Y-76109709D01*
X97922582Y-76054155D01*
X97917393Y-75971859D01*
X97913001Y-75858956D01*
X97909296Y-75711578D01*
X97906170Y-75525860D01*
X97903514Y-75297935D01*
X97901218Y-75023937D01*
X97899173Y-74699999D01*
X97898290Y-74533618D01*
X97891659Y-73224231D01*
X98055199Y-73224231D01*
X98057328Y-73374826D01*
X98063454Y-73574012D01*
X98069956Y-73740831D01*
X98081644Y-74029007D01*
X98090928Y-74273349D01*
X98098129Y-74485535D01*
X98103571Y-74677244D01*
X98107576Y-74860156D01*
X98110469Y-75045949D01*
X98112571Y-75246301D01*
X98112988Y-75297068D01*
X98115237Y-75462528D01*
X98119083Y-75618853D01*
X98124082Y-75753017D01*
X98129789Y-75852000D01*
X98133165Y-75887509D01*
X98149739Y-76019417D01*
X98417123Y-76003654D01*
X98555274Y-75995896D01*
X98692584Y-75988832D01*
X98806006Y-75983627D01*
X98837352Y-75982404D01*
X98990197Y-75976918D01*
X98984124Y-75630045D01*
X98979498Y-75451631D01*
X98971932Y-75250593D01*
X98962635Y-75056552D01*
X98956334Y-74949693D01*
X98934617Y-74616214D01*
X98823457Y-74623722D01*
X98769545Y-74627232D01*
X98726968Y-74625777D01*
X98694268Y-74613546D01*
X98681561Y-74598467D01*
X99168619Y-74598467D01*
X99185118Y-74913030D01*
X99193175Y-75064927D01*
X99201550Y-75220022D01*
X99209034Y-75356020D01*
X99212761Y-75422122D01*
X99219025Y-75556660D01*
X99223596Y-75701570D01*
X99225158Y-75794202D01*
X99226411Y-75971753D01*
X99677997Y-75954535D01*
X99831496Y-75948703D01*
X99965534Y-75943648D01*
X100070250Y-75939740D01*
X100135783Y-75937347D01*
X100152769Y-75936777D01*
X100158948Y-75910121D01*
X100163720Y-75835622D01*
X100166917Y-75721000D01*
X100168374Y-75573977D01*
X100167925Y-75402276D01*
X100166664Y-75290120D01*
X100160645Y-74871518D01*
X100315979Y-74871518D01*
X100317869Y-75023868D01*
X100321814Y-75198730D01*
X100324757Y-75298500D01*
X100345044Y-75935106D01*
X100820902Y-75917569D01*
X100977887Y-75910523D01*
X101114861Y-75901981D01*
X101222449Y-75892721D01*
X101291274Y-75883521D01*
X101312082Y-75876796D01*
X101316995Y-75839751D01*
X101316151Y-75762658D01*
X101309820Y-75660722D01*
X101307842Y-75637841D01*
X101301488Y-75549023D01*
X101294137Y-75415315D01*
X101286267Y-75247386D01*
X101278358Y-75055906D01*
X101270887Y-74851543D01*
X101266388Y-74713479D01*
X101260197Y-74515026D01*
X101254317Y-74330214D01*
X101249037Y-74167813D01*
X101244645Y-74036596D01*
X101241428Y-73945333D01*
X101239923Y-73907571D01*
X101238007Y-73844997D01*
X101235880Y-73739845D01*
X101233762Y-73605115D01*
X101231874Y-73453808D01*
X101231319Y-73400404D01*
X101227286Y-72990503D01*
X101081389Y-72990701D01*
X100972923Y-72993653D01*
X100841878Y-73001098D01*
X100743894Y-73008989D01*
X100552296Y-73027080D01*
X100570287Y-73377008D01*
X100584264Y-73648398D01*
X100595501Y-73869778D01*
X100603957Y-74046652D01*
X100609592Y-74184524D01*
X100612363Y-74288898D01*
X100612231Y-74365277D01*
X100609153Y-74419167D01*
X100603090Y-74456070D01*
X100594000Y-74481492D01*
X100581842Y-74500936D01*
X100566575Y-74519906D01*
X100561726Y-74525897D01*
X100483771Y-74589420D01*
X100421001Y-74602319D01*
X100357105Y-74611752D01*
X100322879Y-74632107D01*
X100318461Y-74667381D01*
X100316169Y-74749937D01*
X100315979Y-74871518D01*
X100160645Y-74871518D01*
X100157374Y-74644004D01*
X100056110Y-74635555D01*
X99986495Y-74625221D01*
X99934696Y-74602425D01*
X99897514Y-74559554D01*
X99871752Y-74488996D01*
X99854213Y-74383138D01*
X99841699Y-74234368D01*
X99834598Y-74108162D01*
X99826437Y-73923753D01*
X99819454Y-73721792D01*
X99814378Y-73526406D01*
X99811940Y-73361720D01*
X99811917Y-73357936D01*
X99810000Y-73016726D01*
X99608523Y-73024639D01*
X99407046Y-73032552D01*
X99409606Y-73199109D01*
X99414330Y-73516753D01*
X99417589Y-73783249D01*
X99418911Y-74003018D01*
X99417824Y-74180484D01*
X99413854Y-74320068D01*
X99406530Y-74426193D01*
X99395379Y-74503282D01*
X99379928Y-74555757D01*
X99359705Y-74588040D01*
X99334238Y-74604554D01*
X99303053Y-74609721D01*
X99265678Y-74607964D01*
X99259142Y-74607341D01*
X99168619Y-74598467D01*
X98681561Y-74598467D01*
X98669987Y-74584732D01*
X98652668Y-74533525D01*
X98640852Y-74454117D01*
X98633081Y-74340697D01*
X98627897Y-74187457D01*
X98623843Y-73988588D01*
X98620850Y-73816481D01*
X98607497Y-73053145D01*
X98344507Y-73033840D01*
X98230249Y-73026383D01*
X98139135Y-73022194D01*
X98083729Y-73021757D01*
X98072952Y-73023362D01*
X98062993Y-73052560D01*
X98057081Y-73118163D01*
X98055199Y-73224231D01*
X97891659Y-73224231D01*
X97890191Y-72934423D01*
X97962782Y-72906824D01*
X98018269Y-72891865D01*
X98104917Y-72877971D01*
X98225682Y-72864972D01*
X98383520Y-72852698D01*
X98581387Y-72840979D01*
X98822239Y-72829647D01*
X99109032Y-72818532D01*
X99444723Y-72807464D01*
X99832268Y-72796273D01*
X99941917Y-72793322D01*
X100278715Y-72784864D01*
X100562551Y-72778829D01*
X100795990Y-72775209D01*
X100981596Y-72773994D01*
X101121936Y-72775176D01*
G37*
G36*
X101877253Y-72573953D02*
G01*
X101894011Y-72631847D01*
X101894245Y-72643129D01*
X101888215Y-72693500D01*
X101862187Y-72724779D01*
X101804253Y-72744235D01*
X101704642Y-72758885D01*
X101619194Y-72765191D01*
X101573112Y-72756125D01*
X101551766Y-72729234D01*
X101556724Y-72672944D01*
X101604335Y-72617570D01*
X101682594Y-72574110D01*
X101738047Y-72558555D01*
X101828053Y-72551032D01*
X101877253Y-72573953D01*
G37*
G36*
X98164127Y-71224536D02*
G01*
X98221316Y-71267545D01*
X98274211Y-71348842D01*
X98329573Y-71476293D01*
X98334738Y-71489847D01*
X98371028Y-71581701D01*
X98412887Y-71682221D01*
X98419811Y-71698271D01*
X98463702Y-71831367D01*
X98486095Y-71969459D01*
X98485473Y-72094440D01*
X98460785Y-72187307D01*
X98387415Y-72275713D01*
X98285846Y-72329515D01*
X98174724Y-72339382D01*
X98161418Y-72337127D01*
X98064866Y-72315676D01*
X98007785Y-72294554D01*
X97974741Y-72265446D01*
X97952291Y-72224438D01*
X97920823Y-72096487D01*
X97943583Y-71975184D01*
X98019240Y-71865707D01*
X98052272Y-71835763D01*
X98121545Y-71778726D01*
X98062035Y-71662076D01*
X98022343Y-71593295D01*
X97989292Y-71551396D01*
X97978757Y-71545426D01*
X97942508Y-71555940D01*
X97872052Y-71583293D01*
X97796346Y-71615586D01*
X97637703Y-71685746D01*
X97694406Y-71781850D01*
X97743782Y-71883955D01*
X97788671Y-72008110D01*
X97822009Y-72131570D01*
X97836734Y-72231591D01*
X97836914Y-72240744D01*
X97812216Y-72335848D01*
X97747642Y-72429963D01*
X97657476Y-72509608D01*
X97556002Y-72561305D01*
X97484130Y-72573654D01*
X97439384Y-72555312D01*
X97382420Y-72510633D01*
X97377117Y-72505442D01*
X97319514Y-72413704D01*
X97310349Y-72312474D01*
X97349561Y-72217202D01*
X97378380Y-72184595D01*
X97425467Y-72133516D01*
X97447611Y-72096021D01*
X97447855Y-72093633D01*
X97432876Y-72036336D01*
X97394963Y-71954499D01*
X97344649Y-71867957D01*
X97292471Y-71796544D01*
X97286489Y-71789830D01*
X97242766Y-71736920D01*
X97234471Y-71699427D01*
X97257439Y-71653759D01*
X97261392Y-71647687D01*
X97312949Y-71593923D01*
X97390874Y-71537693D01*
X97423995Y-71518840D01*
X97500757Y-71474575D01*
X97557827Y-71434068D01*
X97571711Y-71420536D01*
X97619758Y-71384280D01*
X97705165Y-71339979D01*
X97811648Y-71294115D01*
X97922918Y-71253169D01*
X98022688Y-71223621D01*
X98094673Y-71211954D01*
X98095884Y-71211947D01*
X98164127Y-71224536D01*
G37*
G36*
X101488930Y-72180675D02*
G01*
X101505865Y-72242131D01*
X101501662Y-72325941D01*
X101482880Y-72395949D01*
X101431538Y-72498994D01*
X101374273Y-72549010D01*
X101312574Y-72544902D01*
X101294835Y-72533997D01*
X101267992Y-72510193D01*
X101259023Y-72480648D01*
X101267835Y-72429603D01*
X101293674Y-72343382D01*
X101335228Y-72237484D01*
X101381702Y-72178355D01*
X101440558Y-72157243D01*
X101452774Y-72156805D01*
X101488930Y-72180675D01*
G37*
G36*
X97568995Y-101787883D02*
G01*
X97662616Y-101823366D01*
X97717011Y-101869188D01*
X97738715Y-101921766D01*
X97761596Y-101975491D01*
X97800717Y-101990524D01*
X97839994Y-102005283D01*
X97848967Y-102026265D01*
X97868524Y-102056916D01*
X97890665Y-102062863D01*
X97936067Y-102077851D01*
X97992957Y-102113497D01*
X98001328Y-102120113D01*
X98049517Y-102175510D01*
X98050684Y-102224157D01*
X98005018Y-102265778D01*
X97912710Y-102300099D01*
X97869816Y-102310252D01*
X97821629Y-102332549D01*
X97807329Y-102380155D01*
X97807269Y-102385273D01*
X97821763Y-102442256D01*
X97862083Y-102460825D01*
X97923489Y-102439125D01*
X97931709Y-102433951D01*
X97985676Y-102411744D01*
X98056588Y-102398665D01*
X98130020Y-102395055D01*
X98191544Y-102401252D01*
X98226734Y-102417598D01*
X98230205Y-102426918D01*
X98210583Y-102456406D01*
X98161921Y-102490289D01*
X98146810Y-102498015D01*
X98081598Y-102534386D01*
X98060755Y-102560549D01*
X98084868Y-102576825D01*
X98154524Y-102583538D01*
X98270311Y-102581009D01*
X98295731Y-102579618D01*
X98528048Y-102566026D01*
X98462522Y-102618711D01*
X98412116Y-102664075D01*
X98403735Y-102690510D01*
X98439063Y-102704449D01*
X98486350Y-102709865D01*
X98548027Y-102720752D01*
X98576420Y-102745721D01*
X98583511Y-102772358D01*
X98596137Y-102810367D01*
X98628778Y-102817896D01*
X98658953Y-102812601D01*
X98710603Y-102808943D01*
X98742670Y-102835090D01*
X98758746Y-102864726D01*
X98779941Y-102902105D01*
X98806667Y-102921104D01*
X98853024Y-102926531D01*
X98930602Y-102923349D01*
X99008004Y-102922141D01*
X99064759Y-102927611D01*
X99085101Y-102935813D01*
X99134477Y-102979246D01*
X99206570Y-103017366D01*
X99276947Y-103037954D01*
X99291292Y-103038930D01*
X99335013Y-103045217D01*
X99342290Y-103071084D01*
X99338179Y-103086584D01*
X99333736Y-103112919D01*
X99348219Y-103127226D01*
X99391394Y-103133126D01*
X99466803Y-103134239D01*
X99552125Y-103131382D01*
X99608265Y-103118784D01*
X99653549Y-103090405D01*
X99683676Y-103062757D01*
X99762541Y-103006214D01*
X99833644Y-102991275D01*
X99908184Y-102974434D01*
X99940853Y-102942651D01*
X99959516Y-102888731D01*
X99939301Y-102858397D01*
X99884764Y-102858458D01*
X99884563Y-102858508D01*
X99828269Y-102856171D01*
X99798087Y-102824117D01*
X99799549Y-102775611D01*
X99831047Y-102730183D01*
X99864982Y-102689822D01*
X99861753Y-102660452D01*
X99855102Y-102652794D01*
X99829437Y-102611796D01*
X99841901Y-102572701D01*
X99895648Y-102530326D01*
X99946671Y-102502361D01*
X100033188Y-102465047D01*
X100085766Y-102459044D01*
X100106741Y-102484756D01*
X100102132Y-102529240D01*
X100098845Y-102572288D01*
X100124965Y-102585897D01*
X100134592Y-102586209D01*
X100183370Y-102604466D01*
X100216537Y-102636447D01*
X100255302Y-102670412D01*
X100281923Y-102668022D01*
X100321149Y-102652338D01*
X100389000Y-102632343D01*
X100438705Y-102619933D01*
X100520183Y-102605291D01*
X100560677Y-102611099D01*
X100563441Y-102640089D01*
X100531731Y-102694994D01*
X100530390Y-102696914D01*
X100507243Y-102743984D01*
X100520950Y-102762575D01*
X100568773Y-102750735D01*
X100590955Y-102740137D01*
X100656993Y-102715247D01*
X100721803Y-102705032D01*
X100772517Y-102709434D01*
X100796264Y-102728391D01*
X100794947Y-102741087D01*
X100793346Y-102771824D01*
X100801981Y-102776828D01*
X100824164Y-102796642D01*
X100847047Y-102842354D01*
X100879441Y-102905448D01*
X100926263Y-102972532D01*
X100931917Y-102979361D01*
X100971229Y-103021150D01*
X100989673Y-103026344D01*
X100993326Y-103009145D01*
X101009982Y-102973863D01*
X101048085Y-102971803D01*
X101084727Y-102996040D01*
X101114341Y-103055257D01*
X101105261Y-103123981D01*
X101060570Y-103188788D01*
X101035881Y-103208908D01*
X100983498Y-103247159D01*
X100950115Y-103274609D01*
X100946528Y-103278445D01*
X100918118Y-103300441D01*
X100881003Y-103322130D01*
X100845979Y-103354918D01*
X100828137Y-103397393D01*
X100831412Y-103432552D01*
X100852785Y-103443995D01*
X100894003Y-103435712D01*
X100946181Y-103408097D01*
X101015080Y-103357002D01*
X101106459Y-103278279D01*
X101191977Y-103199764D01*
X101254063Y-103149537D01*
X101310028Y-103117123D01*
X101335251Y-103110412D01*
X101367472Y-103113439D01*
X101363464Y-103130625D01*
X101342185Y-103155298D01*
X101317975Y-103194507D01*
X101311169Y-103248586D01*
X101317734Y-103322090D01*
X101325514Y-103393633D01*
X101322131Y-103429939D01*
X101304546Y-103442731D01*
X101286099Y-103443995D01*
X101228552Y-103463025D01*
X101192587Y-103509149D01*
X101188791Y-103552211D01*
X101198889Y-103575033D01*
X101221924Y-103567487D01*
X101254212Y-103541235D01*
X101321121Y-103496590D01*
X101397326Y-103465084D01*
X101467756Y-103451043D01*
X101517335Y-103458794D01*
X101523916Y-103463822D01*
X101567661Y-103488826D01*
X101585073Y-103491650D01*
X101620196Y-103508275D01*
X101669148Y-103548572D01*
X101717370Y-103598173D01*
X101750299Y-103642709D01*
X101756659Y-103660962D01*
X101772919Y-103680891D01*
X101807267Y-103678113D01*
X101838062Y-103656229D01*
X101843352Y-103646528D01*
X101876013Y-103615681D01*
X101899007Y-103610787D01*
X101937771Y-103591011D01*
X101984324Y-103541021D01*
X102028692Y-103474825D01*
X102060902Y-103406430D01*
X102070222Y-103370316D01*
X102085865Y-103330169D01*
X102107032Y-103329141D01*
X102121097Y-103362288D01*
X102121498Y-103390384D01*
X102129322Y-103434188D01*
X102158979Y-103441756D01*
X102204022Y-103415210D01*
X102258008Y-103356674D01*
X102268948Y-103341825D01*
X102340431Y-103241462D01*
X102347330Y-103465535D01*
X102349647Y-103572220D01*
X102347341Y-103643048D01*
X102338397Y-103689748D01*
X102320800Y-103724048D01*
X102298213Y-103751464D01*
X102237204Y-103835198D01*
X102197699Y-103933385D01*
X102175078Y-104059336D01*
X102169624Y-104121888D01*
X102159156Y-104232141D01*
X102142635Y-104305420D01*
X102115235Y-104352387D01*
X102072135Y-104383709D01*
X102045732Y-104395789D01*
X102005616Y-104419870D01*
X101970945Y-104461511D01*
X101934882Y-104530871D01*
X101901857Y-104609574D01*
X101867825Y-104698011D01*
X101842109Y-104770846D01*
X101828985Y-104815754D01*
X101828142Y-104822055D01*
X101806944Y-104840943D01*
X101753308Y-104849680D01*
X101744746Y-104849811D01*
X101687268Y-104844481D01*
X101664076Y-104823670D01*
X101661350Y-104802157D01*
X101648884Y-104763005D01*
X101610112Y-104760268D01*
X101542972Y-104793946D01*
X101530299Y-104802157D01*
X101473000Y-104829761D01*
X101409334Y-104846037D01*
X101352585Y-104849902D01*
X101316032Y-104840274D01*
X101311018Y-104820027D01*
X101339758Y-104748637D01*
X101350286Y-104714812D01*
X101342352Y-104711973D01*
X101315705Y-104733546D01*
X101307979Y-104740324D01*
X101270154Y-104783797D01*
X101256284Y-104817763D01*
X101249637Y-104823736D01*
X101227816Y-104828948D01*
X101188001Y-104833448D01*
X101127373Y-104837284D01*
X101043111Y-104840503D01*
X100932398Y-104843153D01*
X100792412Y-104845281D01*
X100620334Y-104846937D01*
X100413345Y-104848167D01*
X100168625Y-104849019D01*
X99883354Y-104849542D01*
X99554713Y-104849782D01*
X99365978Y-104849811D01*
X99070019Y-104849616D01*
X98787891Y-104849049D01*
X98523215Y-104848142D01*
X98279612Y-104846924D01*
X98060706Y-104845425D01*
X97870116Y-104843676D01*
X97711465Y-104841707D01*
X97588376Y-104839548D01*
X97504468Y-104837229D01*
X97463365Y-104834781D01*
X97459786Y-104833926D01*
X97449212Y-104801507D01*
X97444012Y-104742713D01*
X97443901Y-104732503D01*
X97436171Y-104646740D01*
X97418056Y-104563725D01*
X97398421Y-104480954D01*
X97385500Y-104391825D01*
X97384949Y-104385177D01*
X97371585Y-104307858D01*
X97345282Y-104213746D01*
X97325614Y-104158817D01*
X97293073Y-104074474D01*
X97265173Y-103997962D01*
X97253073Y-103961937D01*
X97235316Y-103865662D01*
X97229277Y-103741886D01*
X97234623Y-103609211D01*
X97251020Y-103486240D01*
X97262508Y-103436876D01*
X97283254Y-103335837D01*
X97286900Y-103304846D01*
X100256837Y-103304846D01*
X100281397Y-103338030D01*
X100317406Y-103346234D01*
X100385439Y-103351678D01*
X100459799Y-103353135D01*
X100540711Y-103355941D01*
X100601080Y-103364132D01*
X100626228Y-103374729D01*
X100650745Y-103375849D01*
X100694643Y-103356050D01*
X100741233Y-103325552D01*
X100773822Y-103294577D01*
X100779736Y-103280718D01*
X100798149Y-103258237D01*
X100843012Y-103226324D01*
X100848348Y-103223121D01*
X100899976Y-103180958D01*
X100929259Y-103135519D01*
X100929514Y-103134587D01*
X100933171Y-103095505D01*
X100911656Y-103092706D01*
X100864535Y-103123083D01*
X100798053Y-103149598D01*
X100708171Y-103156388D01*
X100614825Y-103143550D01*
X100555516Y-103121611D01*
X100504231Y-103099359D01*
X100469507Y-103104013D01*
X100436379Y-103129273D01*
X100378088Y-103175004D01*
X100321059Y-103213785D01*
X100269821Y-103259635D01*
X100256837Y-103304846D01*
X97286900Y-103304846D01*
X97297207Y-103217244D01*
X97298707Y-103183256D01*
X99874295Y-103183256D01*
X99894489Y-103200679D01*
X99927907Y-103205426D01*
X99984019Y-103182009D01*
X100035130Y-103122365D01*
X100075044Y-103046647D01*
X100087802Y-102989852D01*
X100074184Y-102958570D01*
X100034969Y-102959392D01*
X100016844Y-102967670D01*
X99980224Y-103001029D01*
X99936756Y-103057967D01*
X99898117Y-103120823D01*
X99875986Y-103171934D01*
X99874295Y-103183256D01*
X97298707Y-103183256D01*
X97300937Y-103132701D01*
X97306308Y-103020679D01*
X97320812Y-102919322D01*
X97342039Y-102838585D01*
X97367575Y-102788424D01*
X97387156Y-102776828D01*
X97480034Y-102788487D01*
X97545825Y-102820377D01*
X97572812Y-102860181D01*
X97608252Y-102910788D01*
X97652050Y-102930987D01*
X97733827Y-102963799D01*
X97772908Y-103011879D01*
X97777485Y-103041847D01*
X97787524Y-103078961D01*
X97800128Y-103086584D01*
X97832058Y-103066356D01*
X97854204Y-103020062D01*
X97856345Y-102969289D01*
X97856109Y-102968355D01*
X97863893Y-102921666D01*
X97883052Y-102897340D01*
X97917352Y-102849106D01*
X97904990Y-102803860D01*
X97858556Y-102771433D01*
X97816500Y-102744506D01*
X97805000Y-102705395D01*
X97809403Y-102664721D01*
X97814124Y-102611143D01*
X97799276Y-102589664D01*
X97768044Y-102586209D01*
X97715619Y-102579710D01*
X97697999Y-102554045D01*
X97711070Y-102499961D01*
X97719895Y-102477926D01*
X97739666Y-102418416D01*
X97736149Y-102370173D01*
X97711910Y-102313927D01*
X97664300Y-102248350D01*
X97606361Y-102207659D01*
X97604736Y-102207060D01*
X97556129Y-102175747D01*
X97538522Y-102135702D01*
X97557781Y-102101075D01*
X97560154Y-102099530D01*
X97570129Y-102069985D01*
X97571265Y-102011518D01*
X97565157Y-101941705D01*
X97553401Y-101878123D01*
X97537591Y-101838348D01*
X97536308Y-101836838D01*
X97515680Y-101799303D01*
X97535794Y-101783320D01*
X97568995Y-101787883D01*
G37*
G36*
X106605534Y-100890052D02*
G01*
X106675684Y-100907666D01*
X106750143Y-100940427D01*
X106755817Y-100943663D01*
X106815403Y-100977125D01*
X106844885Y-100986780D01*
X106854792Y-100973722D01*
X106855721Y-100954033D01*
X106870229Y-100921970D01*
X106907225Y-100921632D01*
X106956914Y-100949685D01*
X107009506Y-101002797D01*
X107013255Y-101007644D01*
X107081134Y-101096997D01*
X107016921Y-101055299D01*
X106963784Y-101025994D01*
X106925415Y-101013604D01*
X106925124Y-101013601D01*
X106911130Y-101024419D01*
X106927171Y-101049616D01*
X106962876Y-101078311D01*
X107006794Y-101099289D01*
X107054811Y-101122569D01*
X107121715Y-101169779D01*
X107212163Y-101244519D01*
X107327124Y-101347026D01*
X107429202Y-101440140D01*
X107386692Y-101530670D01*
X107363262Y-101613955D01*
X107350653Y-101735899D01*
X107348939Y-101888735D01*
X107358194Y-102064693D01*
X107378495Y-102256007D01*
X107379627Y-102264539D01*
X107392668Y-102389728D01*
X107401849Y-102530904D01*
X107405097Y-102650915D01*
X107407456Y-102756553D01*
X107415481Y-102822928D01*
X107430503Y-102858236D01*
X107440143Y-102866308D01*
X107464491Y-102900391D01*
X107484423Y-102963033D01*
X107489543Y-102992222D01*
X107504673Y-103087829D01*
X107523743Y-103188095D01*
X107527528Y-103205721D01*
X107544506Y-103297479D01*
X107556784Y-103389915D01*
X107558412Y-103408254D01*
X107567259Y-103483751D01*
X107579724Y-103546511D01*
X107582022Y-103554296D01*
X107584099Y-103590156D01*
X107561374Y-103629000D01*
X107507091Y-103681164D01*
X107489173Y-103696349D01*
X107430500Y-103751294D01*
X107390844Y-103799722D01*
X107379924Y-103825126D01*
X107367627Y-103864060D01*
X107335694Y-103927205D01*
X107299533Y-103987361D01*
X107236879Y-104109310D01*
X107203686Y-104228705D01*
X107203398Y-104230826D01*
X107183830Y-104320268D01*
X107153282Y-104404566D01*
X107140400Y-104429600D01*
X107111750Y-104483842D01*
X107108627Y-104515158D01*
X107129312Y-104539703D01*
X107162686Y-104588338D01*
X107149620Y-104634672D01*
X107117823Y-104659192D01*
X107080659Y-104699883D01*
X107070168Y-104767254D01*
X107070168Y-104849811D01*
X106181406Y-104849811D01*
X105917397Y-104849196D01*
X105699886Y-104847330D01*
X105527733Y-104844180D01*
X105399798Y-104839714D01*
X105314938Y-104833900D01*
X105272015Y-104826705D01*
X105266741Y-104823908D01*
X105237979Y-104810890D01*
X105224828Y-104823908D01*
X105201186Y-104831059D01*
X105138860Y-104836996D01*
X105036344Y-104841757D01*
X104892128Y-104845380D01*
X104704704Y-104847904D01*
X104472566Y-104849368D01*
X104211390Y-104849811D01*
X103213960Y-104849811D01*
X103174998Y-104732508D01*
X103140054Y-104647629D01*
X103124449Y-104623451D01*
X105664352Y-104623451D01*
X105676265Y-104635365D01*
X105688179Y-104623451D01*
X105676265Y-104611537D01*
X105664352Y-104623451D01*
X103124449Y-104623451D01*
X103102703Y-104589757D01*
X103068524Y-104566090D01*
X103050812Y-104572294D01*
X103041396Y-104605805D01*
X103039150Y-104667405D01*
X103043632Y-104738139D01*
X103054400Y-104799054D01*
X103056251Y-104805302D01*
X103058118Y-104836688D01*
X103028913Y-104848629D01*
X102997743Y-104849811D01*
X102942401Y-104841076D01*
X102915208Y-104806484D01*
X102909256Y-104786646D01*
X102906165Y-104718864D01*
X102920716Y-104647947D01*
X102943129Y-104559705D01*
X102946133Y-104482096D01*
X102937079Y-104451304D01*
X105867720Y-104451304D01*
X105872286Y-104479527D01*
X105879299Y-104493336D01*
X105898307Y-104549887D01*
X105900240Y-104582689D01*
X105906403Y-104641442D01*
X105930795Y-104705177D01*
X105963991Y-104752298D01*
X105978525Y-104762036D01*
X106028792Y-104773983D01*
X106060716Y-104754752D01*
X106084050Y-104696965D01*
X106088960Y-104678501D01*
X106104078Y-104599320D01*
X106097806Y-104555849D01*
X106068531Y-104540442D01*
X106059790Y-104540055D01*
X106022035Y-104523771D01*
X105986022Y-104492401D01*
X106248123Y-104492401D01*
X106253525Y-104512799D01*
X106270544Y-104516228D01*
X106303145Y-104503788D01*
X106307691Y-104492401D01*
X106290590Y-104469255D01*
X106285270Y-104468573D01*
X106253000Y-104485893D01*
X106248123Y-104492401D01*
X105986022Y-104492401D01*
X105937494Y-104456189D01*
X105898094Y-104444746D01*
X105867720Y-104451304D01*
X102937079Y-104451304D01*
X102930217Y-104427969D01*
X102911716Y-104412082D01*
X102875224Y-104380243D01*
X102854914Y-104344007D01*
X102842137Y-104318996D01*
X102832520Y-104328672D01*
X102823084Y-104378415D01*
X102818918Y-104409005D01*
X102797418Y-104521756D01*
X102769061Y-104599838D01*
X102737550Y-104641041D01*
X102706588Y-104643158D01*
X102679876Y-104603979D01*
X102661117Y-104521296D01*
X102659146Y-104504314D01*
X102646205Y-104413336D01*
X102628700Y-104331092D01*
X102623291Y-104313695D01*
X106355346Y-104313695D01*
X106376059Y-104342441D01*
X106414915Y-104349436D01*
X106459686Y-104340802D01*
X106474483Y-104324203D01*
X106459886Y-104309972D01*
X106450656Y-104313695D01*
X106428699Y-104311806D01*
X106426828Y-104303188D01*
X106407551Y-104280809D01*
X106391087Y-104277954D01*
X106359498Y-104297027D01*
X106355346Y-104313695D01*
X102623291Y-104313695D01*
X102616370Y-104291438D01*
X102601001Y-104228439D01*
X102606825Y-104154910D01*
X102616901Y-104110674D01*
X102747379Y-104110674D01*
X102756287Y-104164206D01*
X102774521Y-104206943D01*
X102796926Y-104222288D01*
X102801856Y-104220368D01*
X102809152Y-104191570D01*
X102802392Y-104134639D01*
X102796765Y-104110913D01*
X102779526Y-104054019D01*
X102766978Y-104038572D01*
X102754324Y-104059318D01*
X102752954Y-104062947D01*
X102747379Y-104110674D01*
X102616901Y-104110674D01*
X102617124Y-104109697D01*
X102632715Y-104029904D01*
X102628703Y-103966713D01*
X102606288Y-103899155D01*
X102573223Y-103791207D01*
X102573230Y-103789130D01*
X102838564Y-103789130D01*
X102840806Y-103801406D01*
X102871268Y-103824325D01*
X102877953Y-103825234D01*
X102899732Y-103807059D01*
X102900374Y-103801406D01*
X102880980Y-103780495D01*
X102863227Y-103777579D01*
X102838564Y-103789130D01*
X102573230Y-103789130D01*
X102573501Y-103709060D01*
X102607736Y-103643877D01*
X102625242Y-103625823D01*
X102667906Y-103568726D01*
X102670075Y-103519572D01*
X102669186Y-103460093D01*
X102685145Y-103398231D01*
X102705350Y-103328635D01*
X102719083Y-103243978D01*
X102720632Y-103225648D01*
X102725610Y-103150817D01*
X102729693Y-103090809D01*
X102730507Y-103079221D01*
X102739230Y-103042606D01*
X102755629Y-103047204D01*
X102777684Y-103087568D01*
X102803376Y-103158253D01*
X102830687Y-103253814D01*
X102857597Y-103368804D01*
X102878993Y-103479736D01*
X102894509Y-103563206D01*
X102905710Y-103604794D01*
X102915128Y-103609778D01*
X102925298Y-103583438D01*
X102926570Y-103578859D01*
X102931223Y-103499731D01*
X102918844Y-103453665D01*
X102905700Y-103404978D01*
X102911679Y-103378369D01*
X102934810Y-103379243D01*
X102941413Y-103390532D01*
X102964204Y-103409531D01*
X102974831Y-103406416D01*
X102975200Y-103380450D01*
X102954955Y-103324841D01*
X102918247Y-103250658D01*
X102912553Y-103240355D01*
X102860755Y-103136074D01*
X102839908Y-103062791D01*
X102841453Y-103032922D01*
X102843959Y-102966763D01*
X102833422Y-102918863D01*
X102822863Y-102855547D01*
X102828910Y-102812569D01*
X102842004Y-102788665D01*
X102857211Y-102798010D01*
X102880964Y-102845865D01*
X102887179Y-102860224D01*
X102917159Y-102943084D01*
X102938823Y-103025448D01*
X102941248Y-103038930D01*
X102958642Y-103106081D01*
X102982916Y-103155913D01*
X102984643Y-103158067D01*
X103009014Y-103202292D01*
X103034698Y-103271338D01*
X103043338Y-103301031D01*
X103068597Y-103382170D01*
X103097024Y-103454543D01*
X103105257Y-103471499D01*
X103129706Y-103529932D01*
X103138648Y-103572559D01*
X103153390Y-103616291D01*
X103192610Y-103679863D01*
X103248800Y-103754791D01*
X103314450Y-103832589D01*
X103382052Y-103904773D01*
X103444097Y-103962858D01*
X103493076Y-103998359D01*
X103520217Y-104003735D01*
X103546766Y-103964045D01*
X103532618Y-103905963D01*
X103479388Y-103833017D01*
X103412663Y-103768836D01*
X103336247Y-103697034D01*
X103294591Y-103641655D01*
X103281622Y-103594557D01*
X103281613Y-103593235D01*
X103271921Y-103525859D01*
X103245420Y-103426575D01*
X103205973Y-103306415D01*
X103157442Y-103176409D01*
X103103687Y-103047589D01*
X103052363Y-102938455D01*
X103018769Y-102858533D01*
X102999375Y-102785382D01*
X102996071Y-102730596D01*
X103010746Y-102705771D01*
X103014374Y-102705346D01*
X103041778Y-102726718D01*
X103077289Y-102784634D01*
X103116006Y-102869793D01*
X103149361Y-102961491D01*
X103174464Y-103030149D01*
X103196298Y-103075586D01*
X103206627Y-103086584D01*
X103226328Y-103105928D01*
X103255871Y-103154390D01*
X103266922Y-103175937D01*
X103300131Y-103243246D01*
X103327443Y-103297882D01*
X103331909Y-103306664D01*
X103344809Y-103355007D01*
X103352317Y-103427937D01*
X103353095Y-103459279D01*
X103354254Y-103525451D01*
X103361127Y-103551852D01*
X103378808Y-103546359D01*
X103398467Y-103529457D01*
X103440648Y-103502445D01*
X103481133Y-103511965D01*
X103490271Y-103517392D01*
X103536782Y-103568954D01*
X103571954Y-103648559D01*
X103588449Y-103736764D01*
X103587680Y-103775504D01*
X103594745Y-103842161D01*
X103622695Y-103919997D01*
X103663856Y-103995538D01*
X103710554Y-104055312D01*
X103755115Y-104085847D01*
X103765292Y-104087335D01*
X103779382Y-104068482D01*
X103774182Y-104020156D01*
X103753249Y-103954705D01*
X103720139Y-103884479D01*
X103695319Y-103844338D01*
X103659530Y-103777331D01*
X103648161Y-103721293D01*
X103662255Y-103687414D01*
X103680217Y-103682269D01*
X103716157Y-103700626D01*
X103767456Y-103748532D01*
X103824034Y-103815238D01*
X103875813Y-103889994D01*
X103877297Y-103892432D01*
X103930160Y-103958890D01*
X103997625Y-104017000D01*
X104064363Y-104055057D01*
X104101302Y-104063507D01*
X104105337Y-104059063D01*
X104464640Y-104059063D01*
X104468423Y-104101525D01*
X104468801Y-104103399D01*
X104479884Y-104143580D01*
X104488806Y-104138673D01*
X104491904Y-104126502D01*
X104488899Y-104077928D01*
X104478175Y-104059170D01*
X104464640Y-104059063D01*
X104105337Y-104059063D01*
X104118063Y-104045049D01*
X104112619Y-103996056D01*
X104106636Y-103978705D01*
X104282363Y-103978705D01*
X104290215Y-104013132D01*
X104310847Y-104002812D01*
X104317087Y-103993672D01*
X104314098Y-103963069D01*
X104306579Y-103956524D01*
X104285858Y-103961701D01*
X104282363Y-103978705D01*
X104106636Y-103978705D01*
X104088498Y-103926105D01*
X104049231Y-103844770D01*
X103998346Y-103761625D01*
X103981128Y-103737471D01*
X103945079Y-103682834D01*
X103925906Y-103642156D01*
X103924952Y-103636204D01*
X103904590Y-103617030D01*
X103865996Y-103610787D01*
X103813709Y-103589736D01*
X103767376Y-103537025D01*
X103738560Y-103468319D01*
X103734333Y-103432427D01*
X103720030Y-103378968D01*
X103685831Y-103323854D01*
X103644797Y-103285105D01*
X103621820Y-103277204D01*
X103598049Y-103290363D01*
X103604103Y-103318901D01*
X103621512Y-103373720D01*
X103633630Y-103429160D01*
X103636337Y-103477326D01*
X103619041Y-103488538D01*
X103612389Y-103486824D01*
X103589256Y-103458510D01*
X103569581Y-103399944D01*
X103564093Y-103370608D01*
X103550551Y-103292224D01*
X103545901Y-103271544D01*
X103808323Y-103271544D01*
X103814236Y-103320301D01*
X103834833Y-103405149D01*
X103865453Y-103482418D01*
X103899818Y-103539314D01*
X103931649Y-103563043D01*
X103933400Y-103563132D01*
X103962390Y-103579107D01*
X104014496Y-103621650D01*
X104080107Y-103682690D01*
X104103658Y-103706097D01*
X104168795Y-103771082D01*
X104220030Y-103820623D01*
X104249156Y-103846845D01*
X104252671Y-103849061D01*
X104249335Y-103831565D01*
X104236847Y-103805403D01*
X104198760Y-103752895D01*
X104177071Y-103731527D01*
X104148582Y-103688675D01*
X104126815Y-103623596D01*
X104124979Y-103614350D01*
X104102270Y-103522549D01*
X104067952Y-103463042D01*
X104011576Y-103420479D01*
X103999402Y-103414281D01*
X104194694Y-103414281D01*
X104200058Y-103455436D01*
X104222604Y-103538036D01*
X104258568Y-103639735D01*
X104300438Y-103741507D01*
X104340704Y-103824325D01*
X104355449Y-103849061D01*
X104388757Y-103904609D01*
X104408135Y-103944371D01*
X104415657Y-103943068D01*
X104421436Y-103903167D01*
X104423811Y-103849061D01*
X104428847Y-103748650D01*
X104443593Y-103691521D01*
X104473855Y-103673464D01*
X104525439Y-103690267D01*
X104589960Y-103728538D01*
X104654204Y-103772974D01*
X104698178Y-103809528D01*
X104711256Y-103827379D01*
X104729479Y-103851755D01*
X104775777Y-103889952D01*
X104806566Y-103911458D01*
X104862706Y-103954723D01*
X104896952Y-103992901D01*
X104901875Y-104006177D01*
X104918007Y-104043836D01*
X104955487Y-104087952D01*
X104996960Y-104116337D01*
X105016296Y-104107560D01*
X105012494Y-104067172D01*
X104984553Y-104000723D01*
X104974554Y-103982243D01*
X104940958Y-103921309D01*
X104929777Y-103889896D01*
X104940886Y-103875540D01*
X104973357Y-103865984D01*
X105014029Y-103842854D01*
X105011861Y-103804512D01*
X104966582Y-103748892D01*
X104956714Y-103739541D01*
X104912786Y-103692714D01*
X104888622Y-103655300D01*
X104887534Y-103651326D01*
X104874764Y-103605226D01*
X104865887Y-103581003D01*
X104857592Y-103550996D01*
X104868005Y-103543994D01*
X104900917Y-103562260D01*
X104960117Y-103608058D01*
X105049395Y-103683653D01*
X105075276Y-103706097D01*
X105155894Y-103774531D01*
X105224178Y-103829362D01*
X105271739Y-103864041D01*
X105288931Y-103872888D01*
X105291716Y-103855353D01*
X105272256Y-103811470D01*
X105261229Y-103792637D01*
X105219509Y-103714608D01*
X105211642Y-103668863D01*
X105237978Y-103653799D01*
X105289070Y-103664432D01*
X105402031Y-103705711D01*
X105480099Y-103745031D01*
X105535206Y-103789301D01*
X105564126Y-103823680D01*
X105627813Y-103883051D01*
X105679896Y-103896716D01*
X105721266Y-103892302D01*
X105722302Y-103874517D01*
X105713767Y-103863096D01*
X105701177Y-103827605D01*
X105724804Y-103809513D01*
X105770635Y-103816256D01*
X105796553Y-103819547D01*
X105799257Y-103793013D01*
X105793046Y-103764761D01*
X105785977Y-103718905D01*
X105799876Y-103708695D01*
X105809707Y-103711807D01*
X105860118Y-103732150D01*
X105888664Y-103743601D01*
X105920707Y-103749870D01*
X105923281Y-103739930D01*
X105905447Y-103704267D01*
X105879348Y-103652003D01*
X105860390Y-103589948D01*
X105874177Y-103557275D01*
X105914654Y-103559744D01*
X105952155Y-103582724D01*
X106015371Y-103626895D01*
X106066583Y-103657399D01*
X106102635Y-103674128D01*
X106115665Y-103666029D01*
X106111560Y-103623945D01*
X106106416Y-103595426D01*
X106079588Y-103516943D01*
X106036707Y-103448115D01*
X106031811Y-103442691D01*
X106020408Y-103428110D01*
X107244902Y-103428110D01*
X107248173Y-103442276D01*
X107260787Y-103443995D01*
X107280400Y-103435277D01*
X107276672Y-103428110D01*
X107248394Y-103425259D01*
X107244902Y-103428110D01*
X106020408Y-103428110D01*
X105983092Y-103380394D01*
X105974859Y-103341501D01*
X106005170Y-103327718D01*
X106072083Y-103340749D01*
X106125311Y-103360599D01*
X106204887Y-103389659D01*
X106244143Y-103393510D01*
X106243027Y-103372158D01*
X106225900Y-103350459D01*
X106189376Y-103292230D01*
X106197848Y-103248847D01*
X106250801Y-103221037D01*
X106325785Y-103210433D01*
X106406235Y-103202417D01*
X106443829Y-103188066D01*
X106443271Y-103164030D01*
X106423725Y-103140667D01*
X106417598Y-103120194D01*
X106451144Y-103104531D01*
X106483293Y-103097508D01*
X106541257Y-103078642D01*
X106569122Y-103053172D01*
X106569793Y-103048803D01*
X106589068Y-103016708D01*
X106636002Y-102982176D01*
X106641275Y-102979361D01*
X106695308Y-102944361D01*
X106709158Y-102907502D01*
X106686153Y-102854280D01*
X106674276Y-102835558D01*
X106649853Y-102794203D01*
X106654984Y-102778940D01*
X106684240Y-102776828D01*
X106762351Y-102764369D01*
X106801880Y-102725881D01*
X106808067Y-102690135D01*
X106821644Y-102640234D01*
X106844945Y-102618217D01*
X106859278Y-102602875D01*
X106837973Y-102576507D01*
X106797290Y-102546623D01*
X106737286Y-102493926D01*
X106712556Y-102446032D01*
X106724064Y-102410614D01*
X106772773Y-102395346D01*
X106778282Y-102395225D01*
X106819417Y-102390938D01*
X106816156Y-102377616D01*
X106810800Y-102373956D01*
X106772009Y-102363473D01*
X106700169Y-102355141D01*
X106609884Y-102350576D01*
X106597551Y-102350343D01*
X106507841Y-102349829D01*
X106458845Y-102352747D01*
X106443656Y-102360724D01*
X106455367Y-102375383D01*
X106463766Y-102381824D01*
X106495140Y-102408623D01*
X106488130Y-102423672D01*
X106468347Y-102432247D01*
X106417422Y-102438927D01*
X106348465Y-102433739D01*
X106340060Y-102432270D01*
X106283976Y-102424926D01*
X106264144Y-102433506D01*
X106266959Y-102450744D01*
X106262775Y-102502664D01*
X106219372Y-102563348D01*
X106142351Y-102625363D01*
X106129004Y-102633853D01*
X106076496Y-102674058D01*
X106047556Y-102711286D01*
X106045590Y-102719951D01*
X106026882Y-102756936D01*
X105967401Y-102782051D01*
X105946184Y-102786751D01*
X105847270Y-102806625D01*
X105787280Y-102820950D01*
X105758405Y-102833484D01*
X105752832Y-102847987D01*
X105762751Y-102868218D01*
X105766018Y-102873462D01*
X105781926Y-102919086D01*
X105760220Y-102939077D01*
X105704825Y-102931154D01*
X105681313Y-102922629D01*
X105598785Y-102891109D01*
X105549226Y-102878473D01*
X105522154Y-102884035D01*
X105507085Y-102907109D01*
X105505544Y-102911132D01*
X105475680Y-102961020D01*
X105427136Y-102980709D01*
X105349968Y-102975773D01*
X105261945Y-102961782D01*
X105272636Y-103053967D01*
X105281245Y-103127484D01*
X105288409Y-103187512D01*
X105289177Y-103193808D01*
X105283264Y-103228395D01*
X105246506Y-103245032D01*
X105217068Y-103248968D01*
X105139109Y-103256473D01*
X105188906Y-103326407D01*
X105215440Y-103371475D01*
X105218595Y-103395246D01*
X105215239Y-103396340D01*
X105185535Y-103381212D01*
X105183833Y-103378095D01*
X105160387Y-103353448D01*
X105111504Y-103313957D01*
X105051297Y-103269803D01*
X104993884Y-103231165D01*
X104953380Y-103208226D01*
X104944836Y-103205721D01*
X104929136Y-103225661D01*
X104925703Y-103252071D01*
X104917561Y-103281264D01*
X104885477Y-103297201D01*
X104817961Y-103305324D01*
X104812522Y-103305682D01*
X104742255Y-103313493D01*
X104706652Y-103329483D01*
X104692755Y-103360183D01*
X104691728Y-103366556D01*
X104677232Y-103411206D01*
X104649516Y-103413101D01*
X104604066Y-103372550D01*
X104604033Y-103372513D01*
X104559701Y-103332627D01*
X104533439Y-103334631D01*
X104521914Y-103380431D01*
X104520637Y-103420168D01*
X104516676Y-103479720D01*
X104506779Y-103512628D01*
X104502766Y-103514948D01*
X104464704Y-103497122D01*
X104415572Y-103455246D01*
X104371631Y-103404308D01*
X104356858Y-103380455D01*
X104333226Y-103346671D01*
X104300784Y-103342413D01*
X104258071Y-103356155D01*
X104208810Y-103380780D01*
X104194694Y-103414281D01*
X103999402Y-103414281D01*
X103983149Y-103406006D01*
X103917411Y-103361367D01*
X103867700Y-103304888D01*
X103863722Y-103297818D01*
X103830857Y-103243759D01*
X103812176Y-103235098D01*
X103808323Y-103271544D01*
X103545901Y-103271544D01*
X103535581Y-103225649D01*
X103531529Y-103211678D01*
X103526265Y-103169920D01*
X103551270Y-103158067D01*
X103551442Y-103158067D01*
X103596223Y-103143078D01*
X103605046Y-103107161D01*
X103574828Y-103063887D01*
X103573156Y-103062512D01*
X103538087Y-103019829D01*
X103496378Y-102948859D01*
X103462141Y-102876470D01*
X103426496Y-102790695D01*
X103407847Y-102739786D01*
X103404526Y-102714758D01*
X103414866Y-102706628D01*
X103430534Y-102706214D01*
X103463276Y-102725312D01*
X103507240Y-102771249D01*
X103550833Y-102829026D01*
X103582461Y-102883645D01*
X103591369Y-102914299D01*
X103605248Y-102937507D01*
X103651440Y-102933709D01*
X103705334Y-102933105D01*
X103758242Y-102966177D01*
X103774819Y-102981940D01*
X103823886Y-103022569D01*
X103860069Y-103028106D01*
X103875583Y-103020479D01*
X103904574Y-102988429D01*
X103907623Y-102971288D01*
X103900693Y-102933869D01*
X103889972Y-102870113D01*
X103886274Y-102847224D01*
X103877960Y-102785326D01*
X103883328Y-102759559D01*
X103907757Y-102759132D01*
X103927430Y-102764638D01*
X103993570Y-102788486D01*
X104048010Y-102812160D01*
X104093995Y-102830050D01*
X104115128Y-102820469D01*
X104123218Y-102797814D01*
X104152124Y-102759824D01*
X104209560Y-102759252D01*
X104282037Y-102788573D01*
X104348198Y-102810052D01*
X104399969Y-102804321D01*
X104424716Y-102773399D01*
X104425327Y-102765670D01*
X104445074Y-102745503D01*
X104484896Y-102747169D01*
X104529475Y-102748242D01*
X104543968Y-102721086D01*
X104544464Y-102708124D01*
X104536491Y-102667899D01*
X104524462Y-102657691D01*
X104502074Y-102638313D01*
X104475343Y-102593350D01*
X104454594Y-102542558D01*
X104449155Y-102513606D01*
X104457327Y-102493685D01*
X104485028Y-102500163D01*
X104537035Y-102535510D01*
X104614452Y-102599056D01*
X104678729Y-102650702D01*
X104728573Y-102684776D01*
X104753822Y-102694387D01*
X104754404Y-102693968D01*
X104751925Y-102668697D01*
X104739452Y-102652529D01*
X104714282Y-102610303D01*
X104711256Y-102593357D01*
X104729833Y-102569463D01*
X104770104Y-102563125D01*
X104808877Y-102575890D01*
X104818479Y-102586209D01*
X104850164Y-102602323D01*
X104907905Y-102609944D01*
X104915195Y-102610037D01*
X104972219Y-102604408D01*
X104994865Y-102582786D01*
X104997185Y-102563220D01*
X105018701Y-102512968D01*
X105075459Y-102478472D01*
X105147579Y-102467072D01*
X105203830Y-102454477D01*
X105232988Y-102434308D01*
X105276677Y-102412787D01*
X105358629Y-102410828D01*
X105372913Y-102412021D01*
X105439710Y-102417460D01*
X105465714Y-102414736D01*
X105457571Y-102400219D01*
X105432873Y-102379260D01*
X105370810Y-102330297D01*
X105325650Y-102296371D01*
X105289793Y-102266961D01*
X105291237Y-102250689D01*
X105314505Y-102239593D01*
X105369237Y-102236017D01*
X105409815Y-102247962D01*
X105500283Y-102283163D01*
X105572105Y-102286665D01*
X105628882Y-102266409D01*
X105678756Y-102227525D01*
X105701656Y-102167798D01*
X105705147Y-102141883D01*
X105707940Y-102129537D01*
X106717926Y-102129537D01*
X106725652Y-102152640D01*
X106761848Y-102153364D01*
X106808885Y-102134726D01*
X106826725Y-102113613D01*
X106818999Y-102090510D01*
X106782803Y-102089786D01*
X106735766Y-102108424D01*
X106717926Y-102129537D01*
X105707940Y-102129537D01*
X105725797Y-102050587D01*
X105763908Y-102000135D01*
X105797572Y-101990524D01*
X105818963Y-101973690D01*
X105816759Y-101956936D01*
X105823913Y-101924743D01*
X105866573Y-101905151D01*
X105933500Y-101901494D01*
X105980600Y-101908330D01*
X106031180Y-101917825D01*
X106041910Y-101911065D01*
X106019386Y-101882448D01*
X106015806Y-101878445D01*
X105976685Y-101813713D01*
X105981760Y-101760452D01*
X106028277Y-101721956D01*
X106113485Y-101701524D01*
X106165593Y-101699097D01*
X106243540Y-101694239D01*
X106276460Y-101679872D01*
X106276925Y-101672062D01*
X106265353Y-101653820D01*
X106237692Y-101643602D01*
X106180908Y-101637829D01*
X106145109Y-101635862D01*
X106103039Y-101622352D01*
X106097735Y-101591416D01*
X106116827Y-101562955D01*
X106166906Y-101548538D01*
X106210982Y-101545071D01*
X106291775Y-101532649D01*
X106335490Y-101505791D01*
X106336979Y-101503373D01*
X106372249Y-101471295D01*
X106392271Y-101466322D01*
X106422828Y-101447223D01*
X106426828Y-101430581D01*
X106439694Y-101398872D01*
X106450656Y-101394840D01*
X106471795Y-101375540D01*
X106474483Y-101359098D01*
X106462971Y-101327370D01*
X106453205Y-101323357D01*
X106424030Y-101304833D01*
X106414994Y-101263967D01*
X106428939Y-101222826D01*
X106438994Y-101213003D01*
X106467953Y-101175548D01*
X106470807Y-101152806D01*
X106478371Y-101111950D01*
X106506029Y-101057895D01*
X106506752Y-101056806D01*
X106534983Y-100994284D01*
X106541761Y-100937669D01*
X106542443Y-100899575D01*
X106568285Y-100887908D01*
X106605534Y-100890052D01*
G37*
G36*
X102466471Y-103771705D02*
G01*
X102452235Y-103812782D01*
X102437840Y-103870275D01*
X102442029Y-103948766D01*
X102451481Y-104002641D01*
X102464639Y-104084711D01*
X102462541Y-104148318D01*
X102442710Y-104217747D01*
X102424891Y-104263418D01*
X102388110Y-104345337D01*
X102355215Y-104390092D01*
X102316544Y-104406211D01*
X102266781Y-104402949D01*
X102239230Y-104394677D01*
X102227004Y-104373741D01*
X102227611Y-104328212D01*
X102236696Y-104258923D01*
X102266145Y-104102066D01*
X102305189Y-103961920D01*
X102350286Y-103849487D01*
X102388933Y-103786142D01*
X102433970Y-103742932D01*
X102462189Y-103739118D01*
X102466471Y-103771705D01*
G37*
G36*
X101810146Y-103487951D02*
G01*
X101821428Y-103522471D01*
X101805152Y-103550209D01*
X101765016Y-103583571D01*
X101739272Y-103574660D01*
X101732832Y-103540711D01*
X101746583Y-103492075D01*
X101778742Y-103473450D01*
X101810146Y-103487951D01*
G37*
G36*
X103344934Y-102994382D02*
G01*
X103393919Y-103027228D01*
X103423431Y-103060616D01*
X103435387Y-103102237D01*
X103408203Y-103130154D01*
X103402619Y-103133239D01*
X103362381Y-103152556D01*
X103337693Y-103149199D01*
X103314943Y-103115571D01*
X103294205Y-103072736D01*
X103271029Y-103016407D01*
X103263028Y-102980884D01*
X103264358Y-102976759D01*
X103295793Y-102974420D01*
X103344934Y-102994382D01*
G37*
G36*
X102044339Y-102955418D02*
G01*
X102052310Y-102995797D01*
X102044782Y-103032928D01*
X102020709Y-103086250D01*
X101991471Y-103104850D01*
X101966182Y-103083661D01*
X101963758Y-103077976D01*
X101958083Y-103026388D01*
X101971322Y-102975344D01*
X101997059Y-102945415D01*
X102005655Y-102943620D01*
X102044339Y-102955418D01*
G37*
G36*
X101918070Y-101929627D02*
G01*
X101927302Y-101961556D01*
X101932224Y-102024567D01*
X101932367Y-102073028D01*
X101923530Y-102164357D01*
X101899157Y-102225016D01*
X101878755Y-102249667D01*
X101836906Y-102321743D01*
X101828142Y-102378911D01*
X101813463Y-102460443D01*
X101770888Y-102505918D01*
X101728521Y-102514727D01*
X101689631Y-102536661D01*
X101671482Y-102580252D01*
X101650513Y-102651509D01*
X101625211Y-102717260D01*
X101598252Y-102788221D01*
X101581286Y-102848310D01*
X101561220Y-102945714D01*
X101546193Y-103003979D01*
X101530272Y-103030343D01*
X101507525Y-103032040D01*
X101472019Y-103016308D01*
X101451826Y-103006220D01*
X101411199Y-102971013D01*
X101409615Y-102929602D01*
X101405816Y-102871834D01*
X101387580Y-102834293D01*
X101358387Y-102780514D01*
X101358602Y-102727200D01*
X101391282Y-102666402D01*
X101459483Y-102590175D01*
X101494558Y-102556257D01*
X101560810Y-102489901D01*
X101610762Y-102432577D01*
X101636017Y-102394172D01*
X101637522Y-102387911D01*
X101651491Y-102350117D01*
X101686706Y-102293920D01*
X101705640Y-102268773D01*
X101756418Y-102188516D01*
X101797217Y-102096585D01*
X101803919Y-102075331D01*
X101834096Y-101993910D01*
X101868772Y-101940358D01*
X101902211Y-101921998D01*
X101918070Y-101929627D01*
G37*
G36*
X103802002Y-102889714D02*
G01*
X103821922Y-102925587D01*
X103825775Y-102954473D01*
X103824247Y-102956541D01*
X103805325Y-102947011D01*
X103787945Y-102930309D01*
X103760027Y-102889621D01*
X103772427Y-102872599D01*
X103779438Y-102872138D01*
X103802002Y-102889714D01*
G37*
G36*
X101128630Y-102829342D02*
G01*
X101121509Y-102867222D01*
X101097423Y-102908941D01*
X101066315Y-102917509D01*
X101044400Y-102892077D01*
X101041838Y-102871390D01*
X101057825Y-102825382D01*
X101078606Y-102808878D01*
X101118214Y-102802489D01*
X101128630Y-102829342D01*
G37*
G36*
X101299830Y-102815397D02*
G01*
X101299135Y-102819635D01*
X101273357Y-102858755D01*
X101222716Y-102859208D01*
X101214586Y-102856253D01*
X101186126Y-102833126D01*
X101201154Y-102809605D01*
X101245524Y-102794603D01*
X101290010Y-102792956D01*
X101299830Y-102815397D01*
G37*
G36*
X102846804Y-102654255D02*
G01*
X102852719Y-102693432D01*
X102849504Y-102741932D01*
X102836515Y-102749907D01*
X102820950Y-102737116D01*
X102806472Y-102702177D01*
X102808180Y-102659949D01*
X102824205Y-102634729D01*
X102828892Y-102633864D01*
X102846804Y-102654255D01*
G37*
G36*
X104351157Y-102700818D02*
G01*
X104353845Y-102717260D01*
X104340979Y-102748969D01*
X104330018Y-102753001D01*
X104308879Y-102733702D01*
X104306190Y-102717260D01*
X104319056Y-102685551D01*
X104330018Y-102681519D01*
X104351157Y-102700818D01*
G37*
G36*
X99488868Y-102330398D02*
G01*
X99539739Y-102353336D01*
X99586217Y-102359849D01*
X99636401Y-102375374D01*
X99659290Y-102410920D01*
X99651829Y-102449945D01*
X99610961Y-102475906D01*
X99607784Y-102476605D01*
X99474049Y-102498782D01*
X99378107Y-102503578D01*
X99322562Y-102490986D01*
X99310481Y-102477492D01*
X99318676Y-102435910D01*
X99364814Y-102380163D01*
X99374844Y-102370938D01*
X99427891Y-102328623D01*
X99462539Y-102317495D01*
X99488868Y-102330398D01*
G37*
G36*
X102799786Y-102010930D02*
G01*
X102805065Y-102050093D01*
X102794631Y-102097286D01*
X102770192Y-102109275D01*
X102746825Y-102087984D01*
X102742676Y-102049753D01*
X102758622Y-102008698D01*
X102783787Y-101990524D01*
X102799786Y-102010930D01*
G37*
G36*
X99309185Y-101916660D02*
G01*
X99320122Y-101942544D01*
X99300265Y-101976903D01*
X99260364Y-102015945D01*
X99191114Y-102068760D01*
X99139567Y-102083172D01*
X99097624Y-102060843D01*
X99088858Y-102051137D01*
X99070590Y-102017131D01*
X99083423Y-101987452D01*
X99132896Y-101955034D01*
X99182940Y-101931119D01*
X99249185Y-101905529D01*
X99288782Y-101903609D01*
X99309185Y-101916660D01*
G37*
G36*
X98723701Y-101501989D02*
G01*
X98795642Y-101532443D01*
X98847055Y-101560061D01*
X98916567Y-101598468D01*
X98958393Y-101612731D01*
X98984124Y-101605696D01*
X98993767Y-101596065D01*
X99026982Y-101573604D01*
X99043037Y-101575214D01*
X99063932Y-101612987D01*
X99056431Y-101672020D01*
X99023842Y-101737998D01*
X98997879Y-101770514D01*
X98956047Y-101823195D01*
X98947769Y-101860983D01*
X98956181Y-101880935D01*
X98966418Y-101920432D01*
X98945027Y-101943183D01*
X98879754Y-101965166D01*
X98826739Y-101944361D01*
X98812064Y-101926277D01*
X98767167Y-101894931D01*
X98704962Y-101884579D01*
X98648024Y-101878071D01*
X98622911Y-101853894D01*
X98616318Y-101822960D01*
X98590051Y-101765075D01*
X98556750Y-101739564D01*
X98516496Y-101701583D01*
X98508933Y-101646714D01*
X98528625Y-101586659D01*
X98570135Y-101533120D01*
X98628028Y-101497798D01*
X98672603Y-101490149D01*
X98723701Y-101501989D01*
G37*
G36*
X102571072Y-101067041D02*
G01*
X102594053Y-101094200D01*
X102609547Y-101142919D01*
X102620070Y-101221559D01*
X102628136Y-101338482D01*
X102629062Y-101355553D01*
X102642248Y-101492027D01*
X102665004Y-101615353D01*
X102686929Y-101689137D01*
X102712777Y-101760153D01*
X102729714Y-101812465D01*
X102733570Y-101829689D01*
X102717407Y-101846678D01*
X102685454Y-101837920D01*
X102677985Y-101831675D01*
X102663209Y-101795693D01*
X102662100Y-101782338D01*
X102644736Y-101737095D01*
X102599699Y-101674607D01*
X102537576Y-101606042D01*
X102468950Y-101542568D01*
X102404407Y-101495356D01*
X102376741Y-101481243D01*
X102314498Y-101448863D01*
X102282912Y-101405338D01*
X102269796Y-101355239D01*
X102263146Y-101305235D01*
X102270220Y-101266700D01*
X102297681Y-101226287D01*
X102352193Y-101170648D01*
X102370888Y-101152738D01*
X102445413Y-101087565D01*
X102499043Y-101055987D01*
X102538089Y-101053078D01*
X102571072Y-101067041D01*
G37*
G36*
X102977443Y-101072615D02*
G01*
X103082980Y-101090543D01*
X103147275Y-101128889D01*
X103173538Y-101190889D01*
X103168260Y-101265053D01*
X103136864Y-101347249D01*
X103095958Y-101382713D01*
X103048894Y-101417637D01*
X103029602Y-101448238D01*
X103004633Y-101485861D01*
X102970995Y-101479743D01*
X102933300Y-101431909D01*
X102916873Y-101398747D01*
X102890703Y-101324491D01*
X102877093Y-101256699D01*
X102876547Y-101245275D01*
X102869098Y-101193868D01*
X102854956Y-101169862D01*
X102842420Y-101138971D01*
X102845421Y-101110419D01*
X102859597Y-101083101D01*
X102891757Y-101071257D01*
X102954818Y-101071189D01*
X102977443Y-101072615D01*
G37*
G36*
X101526393Y-100982705D02*
G01*
X101589910Y-100996589D01*
X101657299Y-101015810D01*
X101700470Y-101034297D01*
X101709005Y-101043067D01*
X101725248Y-101060684D01*
X101764023Y-101051948D01*
X101807507Y-101022625D01*
X101859174Y-100996954D01*
X101902550Y-101009034D01*
X101923188Y-101054052D01*
X101923451Y-101061256D01*
X101937316Y-101108001D01*
X101981236Y-101123954D01*
X102058696Y-101109983D01*
X102085110Y-101101435D01*
X102166814Y-101086546D01*
X102217721Y-101106424D01*
X102236148Y-101158107D01*
X102220408Y-101238634D01*
X102195721Y-101295869D01*
X102160312Y-101348868D01*
X102113455Y-101368996D01*
X102076584Y-101371012D01*
X102014453Y-101362293D01*
X101994933Y-101336677D01*
X101979066Y-101294250D01*
X101936983Y-101286900D01*
X101888847Y-101308507D01*
X101845462Y-101332111D01*
X101818656Y-101326200D01*
X101802207Y-101308905D01*
X101772554Y-101286031D01*
X101730803Y-101285634D01*
X101663137Y-101308075D01*
X101651256Y-101312877D01*
X101618480Y-101320353D01*
X101618500Y-101297669D01*
X101619830Y-101294082D01*
X101626487Y-101252618D01*
X101602621Y-101246077D01*
X101550268Y-101274584D01*
X101531066Y-101288647D01*
X101479536Y-101325528D01*
X101445006Y-101345823D01*
X101440195Y-101347185D01*
X101434270Y-101326579D01*
X101437803Y-101275801D01*
X101439605Y-101263789D01*
X101444416Y-101206638D01*
X101431220Y-101183178D01*
X101414561Y-101180393D01*
X101384573Y-101198605D01*
X101381659Y-101234005D01*
X101374776Y-101276489D01*
X101339680Y-101287616D01*
X101303518Y-101270296D01*
X101293542Y-101225594D01*
X101307538Y-101164395D01*
X101343292Y-101097587D01*
X101389094Y-101044562D01*
X101439426Y-101000299D01*
X101478486Y-100981282D01*
X101526393Y-100982705D01*
G37*
G36*
X100312271Y-100220095D02*
G01*
X100350250Y-100256309D01*
X100385265Y-100291196D01*
X100414107Y-100289769D01*
X100431955Y-100276848D01*
X100466829Y-100257893D01*
X100501440Y-100272996D01*
X100517520Y-100286762D01*
X100549563Y-100329527D01*
X100537358Y-100364030D01*
X100479579Y-100394969D01*
X100436313Y-100429915D01*
X100421063Y-100479432D01*
X100437851Y-100520809D01*
X100463743Y-100516340D01*
X100515254Y-100489005D01*
X100568957Y-100453298D01*
X100642446Y-100407849D01*
X100710815Y-100377688D01*
X100746828Y-100370262D01*
X100789962Y-100375462D01*
X100799470Y-100400882D01*
X100792319Y-100435787D01*
X100778450Y-100502842D01*
X100765503Y-100585386D01*
X100763314Y-100602579D01*
X100751380Y-100664393D01*
X100735780Y-100700233D01*
X100729682Y-100703845D01*
X100709030Y-100722199D01*
X100708254Y-100728856D01*
X100730972Y-100742138D01*
X100798126Y-100742639D01*
X100849126Y-100737928D01*
X100989998Y-100721991D01*
X101053003Y-100821796D01*
X101095387Y-100882291D01*
X101131366Y-100910140D01*
X101175930Y-100915279D01*
X101192102Y-100913990D01*
X101246183Y-100914178D01*
X101269942Y-100935807D01*
X101276256Y-100963382D01*
X101263889Y-101025001D01*
X101218939Y-101076562D01*
X101149191Y-101123043D01*
X101094778Y-101126915D01*
X101053752Y-101092968D01*
X101030338Y-101070089D01*
X100996993Y-101065289D01*
X100938275Y-101077519D01*
X100916000Y-101083624D01*
X100846803Y-101098756D01*
X100795883Y-101102265D01*
X100783265Y-101099178D01*
X100750945Y-101101037D01*
X100744235Y-101108522D01*
X100708664Y-101128413D01*
X100654266Y-101130917D01*
X100606696Y-101115745D01*
X100599840Y-101110151D01*
X100567611Y-101099411D01*
X100499213Y-101088807D01*
X100406114Y-101079860D01*
X100341209Y-101075823D01*
X100221134Y-101067675D01*
X100141101Y-101055515D01*
X100093513Y-101036482D01*
X100070773Y-101007713D01*
X100065279Y-100971903D01*
X100079619Y-100944234D01*
X100088181Y-100942119D01*
X100117961Y-100925897D01*
X100168643Y-100884062D01*
X100229746Y-100826864D01*
X100290789Y-100764552D01*
X100341291Y-100707375D01*
X100370557Y-100665999D01*
X100384208Y-100613012D01*
X100380369Y-100558021D01*
X100362030Y-100520014D01*
X100346498Y-100513226D01*
X100308266Y-100523555D01*
X100281439Y-100535942D01*
X100228220Y-100547243D01*
X100165778Y-100538467D01*
X100109787Y-100515243D01*
X100075924Y-100483202D01*
X100072993Y-100461081D01*
X100069356Y-100426587D01*
X100032900Y-100417159D01*
X99979683Y-100405210D01*
X99932144Y-100377994D01*
X99905511Y-100346198D01*
X99906456Y-100328400D01*
X99935603Y-100309214D01*
X99993625Y-100285792D01*
X100022022Y-100276679D01*
X100098944Y-100252632D01*
X100165187Y-100230070D01*
X100179216Y-100224816D01*
X100256124Y-100205204D01*
X100312271Y-100220095D01*
G37*
G36*
X103631081Y-100973889D02*
G01*
X103627810Y-100988054D01*
X103615196Y-100989774D01*
X103595583Y-100981056D01*
X103599311Y-100973889D01*
X103627589Y-100971037D01*
X103631081Y-100973889D01*
G37*
G36*
X99961611Y-100810764D02*
G01*
X99959301Y-100820378D01*
X99965193Y-100840682D01*
X100005926Y-100846810D01*
X100051065Y-100855683D01*
X100059454Y-100875105D01*
X100048307Y-100895431D01*
X100024482Y-100905200D01*
X99976157Y-100906324D01*
X99898123Y-100901232D01*
X99799295Y-100888952D01*
X99745841Y-100872098D01*
X99738298Y-100852489D01*
X99777208Y-100831946D01*
X99863108Y-100812288D01*
X99871354Y-100810917D01*
X99937176Y-100803651D01*
X99961611Y-100810764D01*
G37*
G36*
X106809260Y-100359085D02*
G01*
X106813088Y-100386964D01*
X106783936Y-100440040D01*
X106773519Y-100454211D01*
X106727944Y-100522736D01*
X106715452Y-100572396D01*
X106733909Y-100616436D01*
X106745124Y-100630487D01*
X106775391Y-100679370D01*
X106803156Y-100744660D01*
X106803453Y-100745543D01*
X106816038Y-100798730D01*
X106804425Y-100820437D01*
X106764165Y-100811506D01*
X106690813Y-100772780D01*
X106683206Y-100768316D01*
X106622777Y-100724713D01*
X106595043Y-100688315D01*
X106601606Y-100665846D01*
X106644067Y-100664031D01*
X106659145Y-100667258D01*
X106724671Y-100683491D01*
X106671059Y-100633172D01*
X106625973Y-100570543D01*
X106623745Y-100512865D01*
X106664104Y-100467905D01*
X106677016Y-100461236D01*
X106720954Y-100431253D01*
X106736584Y-100403584D01*
X106754270Y-100363971D01*
X106792978Y-100352803D01*
X106809260Y-100359085D01*
G37*
G36*
X100180019Y-100740539D02*
G01*
X100184052Y-100751500D01*
X100164752Y-100772639D01*
X100148310Y-100775327D01*
X100116602Y-100762461D01*
X100112569Y-100751500D01*
X100131869Y-100730361D01*
X100148310Y-100727673D01*
X100180019Y-100740539D01*
G37*
G36*
X99103629Y-100603862D02*
G01*
X99111819Y-100631012D01*
X99090932Y-100687550D01*
X99039147Y-100728347D01*
X98972774Y-100744155D01*
X98927157Y-100735720D01*
X98899299Y-100707770D01*
X98915965Y-100665624D01*
X98950984Y-100631018D01*
X99011740Y-100594963D01*
X99066814Y-100585910D01*
X99103629Y-100603862D01*
G37*
G36*
X104097258Y-100334867D02*
G01*
X104160759Y-100359499D01*
X104228630Y-100397844D01*
X104277141Y-100435256D01*
X104321408Y-100471981D01*
X104359333Y-100500092D01*
X104393797Y-100528381D01*
X104392152Y-100553023D01*
X104366383Y-100584019D01*
X104316344Y-100620646D01*
X104274249Y-100632363D01*
X104220707Y-100647902D01*
X104176675Y-100677279D01*
X104103320Y-100729613D01*
X104042792Y-100737947D01*
X103990005Y-100702440D01*
X103975127Y-100683557D01*
X103925252Y-100631746D01*
X103871366Y-100600354D01*
X103867844Y-100599368D01*
X103828326Y-100583767D01*
X103825564Y-100555460D01*
X103837571Y-100526919D01*
X103881867Y-100475791D01*
X103941788Y-100455254D01*
X104000119Y-100469121D01*
X104020262Y-100486421D01*
X104059669Y-100520187D01*
X104110071Y-100549748D01*
X104156618Y-100568270D01*
X104184464Y-100568917D01*
X104187053Y-100563198D01*
X104169703Y-100537491D01*
X104126033Y-100496921D01*
X104103658Y-100479100D01*
X104042810Y-100421115D01*
X104021621Y-100372565D01*
X104041646Y-100338137D01*
X104054769Y-100331697D01*
X104097258Y-100334867D01*
G37*
G36*
X98493644Y-100621276D02*
G01*
X98507215Y-100642742D01*
X98479449Y-100671741D01*
X98430480Y-100695744D01*
X98382065Y-100703347D01*
X98352139Y-100692853D01*
X98349342Y-100684044D01*
X98369368Y-100655918D01*
X98415149Y-100630532D01*
X98465245Y-100617213D01*
X98493644Y-100621276D01*
G37*
G36*
X100954838Y-100460895D02*
G01*
X100956547Y-100505212D01*
X100941303Y-100544728D01*
X100926824Y-100555535D01*
X100904815Y-100548540D01*
X100902501Y-100502536D01*
X100902997Y-100497952D01*
X100915635Y-100451323D01*
X100934614Y-100435787D01*
X100954838Y-100460895D01*
G37*
G36*
X102970686Y-100234831D02*
G01*
X103018931Y-100266080D01*
X103082956Y-100308020D01*
X103132452Y-100339384D01*
X103148169Y-100348688D01*
X103224642Y-100387399D01*
X103275049Y-100404662D01*
X103313392Y-100404824D01*
X103322433Y-100402780D01*
X103366484Y-100405636D01*
X103431102Y-100424875D01*
X103501273Y-100453938D01*
X103561983Y-100486267D01*
X103598218Y-100515304D01*
X103602536Y-100525140D01*
X103581518Y-100539877D01*
X103526873Y-100551716D01*
X103482029Y-100556036D01*
X103397130Y-100555463D01*
X103346097Y-100539733D01*
X103328486Y-100524198D01*
X103277743Y-100496125D01*
X103229184Y-100498693D01*
X103170654Y-100498981D01*
X103133163Y-100465639D01*
X103132765Y-100465006D01*
X103081591Y-100425891D01*
X103030995Y-100417916D01*
X102961345Y-100405648D01*
X102898698Y-100375047D01*
X102859000Y-100335419D01*
X102852719Y-100313896D01*
X102865855Y-100271757D01*
X102884316Y-100240850D01*
X102905589Y-100217423D01*
X102930012Y-100214598D01*
X102970686Y-100234831D01*
G37*
G36*
X98010318Y-100126022D02*
G01*
X98012323Y-100170678D01*
X97989584Y-100228737D01*
X97978667Y-100245823D01*
X97955632Y-100284229D01*
X97962739Y-100297747D01*
X97975889Y-100298780D01*
X98005285Y-100319260D01*
X98021995Y-100360462D01*
X98021518Y-100408674D01*
X97990912Y-100446289D01*
X97959247Y-100467596D01*
X97894527Y-100502677D01*
X97862249Y-100510855D01*
X97865236Y-100492873D01*
X97902822Y-100452693D01*
X97948614Y-100408064D01*
X97964860Y-100378655D01*
X97957163Y-100347512D01*
X97945231Y-100324390D01*
X97932716Y-100273326D01*
X97934800Y-100209531D01*
X97948443Y-100150352D01*
X97970603Y-100113133D01*
X97983135Y-100108160D01*
X98010318Y-100126022D01*
G37*
G36*
X106759515Y-92685470D02*
G01*
X106880344Y-92728799D01*
X106947866Y-92772865D01*
X107001067Y-92831355D01*
X107053143Y-92919163D01*
X107058888Y-92930309D01*
X107089394Y-92993659D01*
X107111585Y-93052361D01*
X107127736Y-93117436D01*
X107140121Y-93199907D01*
X107151015Y-93310793D01*
X107159453Y-93417597D01*
X107167901Y-93737152D01*
X107149089Y-94081951D01*
X107105124Y-94439710D01*
X107038115Y-94798143D01*
X106950172Y-95144968D01*
X106843404Y-95467900D01*
X106780813Y-95623069D01*
X106738583Y-95699425D01*
X106678304Y-95784368D01*
X106639001Y-95830850D01*
X106541203Y-95936949D01*
X106592227Y-96019509D01*
X106618387Y-96069636D01*
X106632882Y-96123753D01*
X106638031Y-96196505D01*
X106636307Y-96298132D01*
X106629361Y-96494195D01*
X106546278Y-96522101D01*
X106472663Y-96565911D01*
X106439239Y-96632859D01*
X106445869Y-96720688D01*
X106492418Y-96827143D01*
X106571476Y-96940961D01*
X106621692Y-97030600D01*
X106657948Y-97149232D01*
X106674411Y-97272701D01*
X106689518Y-97402055D01*
X106719283Y-97504716D01*
X106760799Y-97570834D01*
X106762979Y-97572867D01*
X106784363Y-97597150D01*
X106796451Y-97629369D01*
X106800504Y-97680386D01*
X106797785Y-97761067D01*
X106793121Y-97832579D01*
X106786696Y-97937206D01*
X106786144Y-98005488D01*
X106792878Y-98048527D01*
X106808310Y-98077424D01*
X106826721Y-98096756D01*
X106870445Y-98155867D01*
X106892169Y-98208151D01*
X106911080Y-98260585D01*
X106929843Y-98286996D01*
X106946340Y-98318508D01*
X106951031Y-98357041D01*
X106973670Y-98416757D01*
X107040384Y-98479376D01*
X107146356Y-98560569D01*
X107215165Y-98625524D01*
X107250539Y-98682473D01*
X107256209Y-98739644D01*
X107235906Y-98805269D01*
X107210921Y-98855657D01*
X107188638Y-98904677D01*
X107173539Y-98960513D01*
X107164060Y-99034084D01*
X107158634Y-99136310D01*
X107156313Y-99236542D01*
X107138280Y-99493092D01*
X107092846Y-99713287D01*
X107019815Y-99899347D01*
X107001699Y-99949589D01*
X106998686Y-99971055D01*
X106980443Y-100006271D01*
X106951031Y-100031149D01*
X106914105Y-100075742D01*
X106902618Y-100150060D01*
X106891444Y-100232965D01*
X106863253Y-100289614D01*
X106823669Y-100311864D01*
X106795781Y-100304765D01*
X106769217Y-100283773D01*
X106780412Y-100258906D01*
X106793368Y-100245400D01*
X106818037Y-100213199D01*
X106805634Y-100188022D01*
X106793957Y-100177820D01*
X106771335Y-100131384D01*
X106776956Y-100066275D01*
X106808749Y-100000590D01*
X106815197Y-99992346D01*
X106848790Y-99933164D01*
X106879323Y-99849567D01*
X106899267Y-99764583D01*
X106903017Y-99723689D01*
X106914584Y-99656209D01*
X106938970Y-99592638D01*
X106970729Y-99509220D01*
X106964873Y-99448707D01*
X106939790Y-99417724D01*
X106907600Y-99403440D01*
X106864631Y-99415488D01*
X106823797Y-99438634D01*
X106761288Y-99471096D01*
X106709292Y-99487972D01*
X106701405Y-99488648D01*
X106672806Y-99498807D01*
X106672331Y-99537175D01*
X106675007Y-99548697D01*
X106679290Y-99592312D01*
X106654606Y-99613896D01*
X106618727Y-99623017D01*
X106563851Y-99645611D01*
X106534315Y-99678437D01*
X106504773Y-99711690D01*
X106447587Y-99743203D01*
X106429631Y-99749825D01*
X106377498Y-99762827D01*
X106323233Y-99764749D01*
X106257001Y-99753776D01*
X106168965Y-99728089D01*
X106049288Y-99685871D01*
X106015349Y-99673295D01*
X105959854Y-99650503D01*
X105942964Y-99632910D01*
X105958086Y-99610610D01*
X105967694Y-99601689D01*
X106004710Y-99580044D01*
X106060410Y-99572114D01*
X106148246Y-99576127D01*
X106156407Y-99576851D01*
X106251337Y-99581546D01*
X106340821Y-99579574D01*
X106387218Y-99574342D01*
X106446398Y-99556389D01*
X106472807Y-99524041D01*
X106478934Y-99493808D01*
X106499839Y-99439679D01*
X106554973Y-99396207D01*
X106575749Y-99385419D01*
X106631236Y-99353549D01*
X106662538Y-99326341D01*
X106665102Y-99319894D01*
X106684481Y-99300599D01*
X106701591Y-99298029D01*
X106741560Y-99278789D01*
X106751471Y-99263134D01*
X106747064Y-99219363D01*
X106717593Y-99163495D01*
X106675438Y-99112910D01*
X106632978Y-99084986D01*
X106623573Y-99083583D01*
X106583850Y-99076108D01*
X106513097Y-99056301D01*
X106425079Y-99028091D01*
X106404792Y-99021157D01*
X106310901Y-98990147D01*
X106245321Y-98974434D01*
X106191859Y-98972288D01*
X106134317Y-98981978D01*
X106105158Y-98989129D01*
X106009664Y-99021292D01*
X105931703Y-99062024D01*
X105880388Y-99105174D01*
X105864831Y-99144589D01*
X105866353Y-99150357D01*
X105858083Y-99185592D01*
X105821926Y-99235159D01*
X105801985Y-99255354D01*
X105756807Y-99294451D01*
X105717285Y-99314313D01*
X105666478Y-99319163D01*
X105587440Y-99313223D01*
X105574874Y-99311946D01*
X105424804Y-99296571D01*
X105439938Y-99356869D01*
X105445911Y-99395390D01*
X105430177Y-99412617D01*
X105381408Y-99417056D01*
X105359652Y-99417166D01*
X105271808Y-99403210D01*
X105156067Y-99363411D01*
X105081786Y-99330523D01*
X104987855Y-99287829D01*
X104924550Y-99265168D01*
X104880677Y-99259718D01*
X104845048Y-99268655D01*
X104841945Y-99270031D01*
X104766838Y-99283624D01*
X104714072Y-99271613D01*
X104653225Y-99240904D01*
X104628521Y-99195584D01*
X104629180Y-99131237D01*
X104635006Y-99078731D01*
X104637788Y-99053517D01*
X104659858Y-99045392D01*
X104712439Y-99047404D01*
X104732021Y-99050116D01*
X104810387Y-99049488D01*
X104849223Y-99037536D01*
X105129034Y-99037536D01*
X105138638Y-99100599D01*
X105183394Y-99179544D01*
X105195693Y-99196763D01*
X105231849Y-99215753D01*
X105292186Y-99225132D01*
X105356215Y-99224242D01*
X105403444Y-99212424D01*
X105413521Y-99203760D01*
X105444362Y-99191369D01*
X105465833Y-99195643D01*
X105493573Y-99196888D01*
X105492262Y-99176732D01*
X105459856Y-99152412D01*
X105405615Y-99149199D01*
X105354168Y-99146770D01*
X105330886Y-99132663D01*
X105330768Y-99131328D01*
X105349715Y-99109356D01*
X105362034Y-99107410D01*
X105401446Y-99097599D01*
X105463564Y-99072930D01*
X105490070Y-99060655D01*
X105562398Y-99012994D01*
X105598992Y-98960905D01*
X105595977Y-98911876D01*
X105578103Y-98890595D01*
X105554709Y-98847305D01*
X105550778Y-98800367D01*
X105548503Y-98755027D01*
X105521638Y-98742460D01*
X105505857Y-98743347D01*
X105451341Y-98732620D01*
X105425501Y-98713562D01*
X105380059Y-98685937D01*
X105338159Y-98678517D01*
X105296352Y-98686258D01*
X105291659Y-98715052D01*
X105293375Y-98720965D01*
X105289779Y-98757650D01*
X105246562Y-98786005D01*
X105236950Y-98789797D01*
X105188200Y-98816389D01*
X105177265Y-98851325D01*
X105180196Y-98866444D01*
X105176977Y-98922756D01*
X105152368Y-98979238D01*
X105129034Y-99037536D01*
X104849223Y-99037536D01*
X104882240Y-99027375D01*
X104933252Y-98990296D01*
X104949530Y-98951139D01*
X104968299Y-98918728D01*
X105014171Y-98881446D01*
X105021012Y-98877259D01*
X105069036Y-98842058D01*
X105092131Y-98811699D01*
X105092494Y-98808843D01*
X105112063Y-98782999D01*
X105160857Y-98750655D01*
X105179372Y-98741224D01*
X105266249Y-98699795D01*
X105224779Y-98670748D01*
X105908583Y-98670748D01*
X105918854Y-98712534D01*
X105958577Y-98725866D01*
X105971129Y-98726160D01*
X106035939Y-98715945D01*
X106127357Y-98688883D01*
X106229819Y-98650318D01*
X106327759Y-98605594D01*
X106338704Y-98599944D01*
X106432202Y-98575877D01*
X106529081Y-98597262D01*
X106624591Y-98662594D01*
X106663050Y-98702655D01*
X106758041Y-98786200D01*
X106870426Y-98831348D01*
X106956866Y-98842870D01*
X106996423Y-98821784D01*
X107040129Y-98755739D01*
X107049858Y-98735925D01*
X107101274Y-98626542D01*
X107032109Y-98568309D01*
X106965590Y-98516211D01*
X106888954Y-98461349D01*
X106873592Y-98451033D01*
X106819134Y-98406488D01*
X106787278Y-98363891D01*
X106783888Y-98350591D01*
X106772062Y-98299640D01*
X106749170Y-98249624D01*
X106713723Y-98183900D01*
X106690367Y-98135983D01*
X106666358Y-98098983D01*
X106635641Y-98101587D01*
X106620638Y-98110197D01*
X106576113Y-98150942D01*
X106535408Y-98206089D01*
X106483972Y-98266957D01*
X106425409Y-98309926D01*
X106377467Y-98341246D01*
X106355495Y-98368481D01*
X106355346Y-98370120D01*
X106336017Y-98397358D01*
X106313648Y-98409270D01*
X106269892Y-98433956D01*
X106211520Y-98477058D01*
X106193169Y-98492368D01*
X106116685Y-98543388D01*
X106028334Y-98582734D01*
X106011485Y-98587803D01*
X105945444Y-98610239D01*
X105915078Y-98636878D01*
X105908583Y-98670748D01*
X105224779Y-98670748D01*
X105210721Y-98660901D01*
X105146357Y-98630596D01*
X105094060Y-98620478D01*
X105040532Y-98608511D01*
X105025239Y-98581840D01*
X105052762Y-98548971D01*
X105054831Y-98547640D01*
X105106652Y-98538801D01*
X105139743Y-98553597D01*
X105193454Y-98572309D01*
X105268090Y-98582058D01*
X105288747Y-98582483D01*
X105348686Y-98580475D01*
X105366974Y-98573584D01*
X105349583Y-98558740D01*
X105342682Y-98554735D01*
X105299892Y-98526116D01*
X105283076Y-98510020D01*
X105253980Y-98492789D01*
X105198096Y-98473515D01*
X105187767Y-98470728D01*
X105129563Y-98450365D01*
X105115444Y-98432656D01*
X105141846Y-98419363D01*
X105205206Y-98412249D01*
X105301963Y-98413077D01*
X105304072Y-98413179D01*
X105401333Y-98415387D01*
X105453937Y-98409955D01*
X105464307Y-98396628D01*
X105464071Y-98396232D01*
X105431674Y-98374825D01*
X105373702Y-98356710D01*
X105366522Y-98355277D01*
X105302871Y-98335634D01*
X105258995Y-98308696D01*
X105257217Y-98306700D01*
X105214268Y-98281958D01*
X105162465Y-98273451D01*
X105108535Y-98265800D01*
X105080581Y-98249624D01*
X105049968Y-98226573D01*
X105025102Y-98241608D01*
X105021012Y-98262285D01*
X105005380Y-98303404D01*
X104965048Y-98311784D01*
X104909859Y-98287514D01*
X104877473Y-98260986D01*
X104836291Y-98215776D01*
X104817793Y-98183684D01*
X104818294Y-98178442D01*
X104848899Y-98165176D01*
X104906149Y-98159262D01*
X104969605Y-98160702D01*
X105018827Y-98169497D01*
X105033102Y-98178427D01*
X105064821Y-98189030D01*
X105092380Y-98178203D01*
X105155911Y-98168164D01*
X105226842Y-98190786D01*
X105279377Y-98233208D01*
X105313989Y-98256285D01*
X105367635Y-98252343D01*
X105385464Y-98247604D01*
X105464107Y-98232382D01*
X105548775Y-98225803D01*
X105551014Y-98225796D01*
X105615080Y-98219095D01*
X105639736Y-98197240D01*
X105640524Y-98190055D01*
X105656304Y-98157792D01*
X105694650Y-98153467D01*
X105742074Y-98173857D01*
X105785089Y-98215740D01*
X105791860Y-98226217D01*
X105831433Y-98274048D01*
X105861741Y-98278744D01*
X105874635Y-98242812D01*
X105870468Y-98202016D01*
X105874201Y-98126408D01*
X105912327Y-98070482D01*
X105976417Y-98046483D01*
X105977577Y-98046427D01*
X106044024Y-98030035D01*
X106107704Y-97993734D01*
X106152740Y-97948623D01*
X106164727Y-97915631D01*
X106186483Y-97875615D01*
X106234462Y-97848738D01*
X106283215Y-97823604D01*
X106294062Y-97789304D01*
X106291251Y-97774925D01*
X106292265Y-97733611D01*
X106310869Y-97725056D01*
X106359352Y-97712561D01*
X106377641Y-97703045D01*
X106399424Y-97679135D01*
X106382854Y-97646487D01*
X106380681Y-97643841D01*
X106365065Y-97598556D01*
X106389279Y-97560298D01*
X106445522Y-97537633D01*
X106479984Y-97534802D01*
X106528919Y-97530095D01*
X106542226Y-97508374D01*
X106537148Y-97479086D01*
X106540455Y-97412376D01*
X106557634Y-97377820D01*
X106586011Y-97317222D01*
X106592862Y-97276377D01*
X106580001Y-97211920D01*
X106547062Y-97143543D01*
X106504804Y-97090003D01*
X106475284Y-97071351D01*
X106369610Y-97043286D01*
X106254515Y-97017195D01*
X106141610Y-96995193D01*
X106042506Y-96979395D01*
X105968812Y-96971914D01*
X105936400Y-96973223D01*
X105901715Y-96985584D01*
X105886750Y-97008728D01*
X105886975Y-97056421D01*
X105892897Y-97105427D01*
X105898540Y-97187402D01*
X105885324Y-97252081D01*
X105847689Y-97326514D01*
X105847297Y-97327184D01*
X105756589Y-97454399D01*
X105647481Y-97552126D01*
X105512045Y-97625266D01*
X105342352Y-97678721D01*
X105245938Y-97698912D01*
X105131418Y-97717735D01*
X105056312Y-97723950D01*
X105014009Y-97717310D01*
X104997901Y-97697570D01*
X104997185Y-97689680D01*
X104986205Y-97668927D01*
X104947284Y-97657785D01*
X104871446Y-97654009D01*
X104854220Y-97653939D01*
X104772458Y-97656358D01*
X104728375Y-97665370D01*
X104712162Y-97683610D01*
X104711256Y-97692332D01*
X104701062Y-97717519D01*
X104662752Y-97721237D01*
X104633817Y-97716990D01*
X104504698Y-97695444D01*
X104412497Y-97684540D01*
X104347596Y-97684653D01*
X104300375Y-97696159D01*
X104261218Y-97719431D01*
X104245657Y-97732120D01*
X104176638Y-97791488D01*
X104285843Y-97919314D01*
X104380867Y-98041216D01*
X104450105Y-98152603D01*
X104489360Y-98246035D01*
X104496810Y-98293200D01*
X104514980Y-98345201D01*
X104544464Y-98361857D01*
X104578448Y-98384013D01*
X104593508Y-98416408D01*
X104582704Y-98440197D01*
X104574249Y-98442729D01*
X104493314Y-98450312D01*
X104415956Y-98451678D01*
X104359056Y-98446930D01*
X104341931Y-98441314D01*
X104307020Y-98423862D01*
X104244416Y-98397872D01*
X104203218Y-98382155D01*
X104113284Y-98337416D01*
X104064654Y-98283425D01*
X104061590Y-98276786D01*
X104028670Y-98221981D01*
X103981067Y-98165986D01*
X103932362Y-98122871D01*
X103897419Y-98106659D01*
X103880931Y-98126599D01*
X103877297Y-98153193D01*
X103861296Y-98233146D01*
X103820193Y-98298436D01*
X103767386Y-98331565D01*
X103701011Y-98369105D01*
X103662973Y-98432122D01*
X103655323Y-98506343D01*
X103680115Y-98577497D01*
X103725475Y-98623141D01*
X103775857Y-98676356D01*
X103781767Y-98738412D01*
X103745034Y-98806865D01*
X103667485Y-98879274D01*
X103550949Y-98953195D01*
X103436491Y-99009301D01*
X103308729Y-99070144D01*
X103211901Y-99129280D01*
X103132523Y-99198149D01*
X103057109Y-99288189D01*
X102983770Y-99393339D01*
X102921174Y-99482244D01*
X102855473Y-99567464D01*
X102800714Y-99630793D01*
X102799923Y-99631613D01*
X102709323Y-99735902D01*
X102632666Y-99844559D01*
X102576388Y-99946883D01*
X102546923Y-100032171D01*
X102544108Y-100057098D01*
X102552678Y-100098165D01*
X102576168Y-100100517D01*
X102613728Y-100107840D01*
X102659047Y-100141693D01*
X102696272Y-100187212D01*
X102709755Y-100225794D01*
X102717123Y-100244730D01*
X102744452Y-100228164D01*
X102784951Y-100211036D01*
X102804021Y-100214739D01*
X102824094Y-100250810D01*
X102827525Y-100308315D01*
X102815151Y-100364356D01*
X102797597Y-100390399D01*
X102761764Y-100399854D01*
X102689208Y-100405385D01*
X102590670Y-100407329D01*
X102476892Y-100406022D01*
X102358614Y-100401800D01*
X102246577Y-100394999D01*
X102151523Y-100385956D01*
X102084193Y-100375006D01*
X102060960Y-100367342D01*
X102004353Y-100354503D01*
X101957821Y-100370995D01*
X101901815Y-100388210D01*
X101864167Y-100385582D01*
X101817755Y-100391369D01*
X101768441Y-100427796D01*
X101717060Y-100465409D01*
X101647904Y-100485791D01*
X101577108Y-100493081D01*
X101502286Y-100495953D01*
X101449362Y-100494769D01*
X101432952Y-100491384D01*
X101422266Y-100451170D01*
X101439786Y-100397623D01*
X101470284Y-100358752D01*
X101510244Y-100330839D01*
X101542447Y-100337750D01*
X101556258Y-100348203D01*
X101590668Y-100366977D01*
X101619112Y-100346994D01*
X101626966Y-100336694D01*
X101669541Y-100305312D01*
X101735209Y-100304211D01*
X101811428Y-100299994D01*
X101855217Y-100271704D01*
X101896828Y-100242477D01*
X101942710Y-100248407D01*
X101958136Y-100254979D01*
X102013336Y-100269958D01*
X102050776Y-100254217D01*
X102095635Y-100236472D01*
X102117007Y-100238918D01*
X102151795Y-100229198D01*
X102193121Y-100186144D01*
X102197466Y-100179829D01*
X102235951Y-100132347D01*
X102268473Y-100108789D01*
X102272201Y-100108229D01*
X102294215Y-100087447D01*
X102309658Y-100037429D01*
X102309844Y-100036190D01*
X102300470Y-99948109D01*
X102252347Y-99864617D01*
X102221290Y-99834065D01*
X102193510Y-99799264D01*
X102157116Y-99739478D01*
X102141892Y-99710925D01*
X102096720Y-99629412D01*
X102041586Y-99539087D01*
X102018825Y-99504353D01*
X101969767Y-99425904D01*
X101927415Y-99348531D01*
X101913041Y-99317737D01*
X101844804Y-99211431D01*
X101734528Y-99119519D01*
X101613695Y-99054584D01*
X101515261Y-99001631D01*
X101413072Y-98932877D01*
X101319715Y-98858147D01*
X101247775Y-98787266D01*
X101216587Y-98744637D01*
X101192442Y-98680814D01*
X101185646Y-98636819D01*
X101186879Y-98632012D01*
X102066416Y-98632012D01*
X102086626Y-98657716D01*
X102134720Y-98684924D01*
X102191888Y-98705606D01*
X102239323Y-98711729D01*
X102248377Y-98709712D01*
X102273490Y-98722256D01*
X102292658Y-98776966D01*
X102293734Y-98782466D01*
X102322345Y-98853434D01*
X102372948Y-98882765D01*
X102419818Y-98878217D01*
X102461461Y-98872802D01*
X102530297Y-98869553D01*
X102565961Y-98869136D01*
X102638090Y-98865580D01*
X102675944Y-98851640D01*
X102692585Y-98822411D01*
X102692832Y-98821481D01*
X102714261Y-98787921D01*
X102763664Y-98773196D01*
X102796877Y-98771078D01*
X102879417Y-98767715D01*
X102927292Y-98761664D01*
X102953487Y-98749601D01*
X102970988Y-98728201D01*
X102972284Y-98726172D01*
X102993777Y-98672714D01*
X102984314Y-98637928D01*
X102962860Y-98630862D01*
X102920700Y-98614066D01*
X102901640Y-98596646D01*
X102872778Y-98578078D01*
X102820159Y-98571000D01*
X102733245Y-98574257D01*
X102712332Y-98575920D01*
X102612765Y-98579653D01*
X102536143Y-98573564D01*
X102503974Y-98564017D01*
X102444438Y-98550545D01*
X102355948Y-98562254D01*
X102350824Y-98563439D01*
X102241094Y-98586971D01*
X102151947Y-98600095D01*
X102108113Y-98603994D01*
X102072685Y-98618424D01*
X102066416Y-98632012D01*
X101186879Y-98632012D01*
X101196207Y-98595658D01*
X101237957Y-98583293D01*
X101244371Y-98583207D01*
X101292280Y-98570779D01*
X101303939Y-98547466D01*
X101319722Y-98506307D01*
X101356988Y-98458676D01*
X101398183Y-98392117D01*
X101402790Y-98345496D01*
X101385877Y-98299005D01*
X101352711Y-98254248D01*
X101313535Y-98219571D01*
X101278595Y-98203320D01*
X101258134Y-98213842D01*
X101256284Y-98226132D01*
X101239069Y-98257654D01*
X101197109Y-98303024D01*
X101144937Y-98349098D01*
X101097081Y-98382735D01*
X101073028Y-98391890D01*
X101035946Y-98376655D01*
X101031027Y-98370546D01*
X101030095Y-98335381D01*
X101046673Y-98285360D01*
X101071583Y-98241817D01*
X101093317Y-98225796D01*
X101108327Y-98205373D01*
X101113320Y-98165869D01*
X101133609Y-98105162D01*
X101192537Y-98025741D01*
X101220569Y-97995593D01*
X101279392Y-97930860D01*
X101306203Y-97888342D01*
X101305648Y-97859805D01*
X101301047Y-97852987D01*
X101256012Y-97825131D01*
X101205368Y-97825529D01*
X101170802Y-97853606D01*
X101169591Y-97856472D01*
X101140267Y-97888127D01*
X101123897Y-97892213D01*
X101086227Y-97911969D01*
X101039391Y-97962566D01*
X100992888Y-98030996D01*
X100956215Y-98104252D01*
X100944873Y-98137382D01*
X100915212Y-98213732D01*
X100872680Y-98291797D01*
X100867185Y-98300081D01*
X100825083Y-98352555D01*
X100782735Y-98373270D01*
X100722494Y-98373440D01*
X100655053Y-98375425D01*
X100605381Y-98389678D01*
X100600367Y-98393139D01*
X100550074Y-98412738D01*
X100495178Y-98406250D01*
X100456568Y-98377908D01*
X100450606Y-98362804D01*
X100459557Y-98327389D01*
X100478741Y-98321106D01*
X100522450Y-98305822D01*
X100529688Y-98271104D01*
X100504950Y-98240093D01*
X100479660Y-98213904D01*
X100477049Y-98177932D01*
X100492498Y-98122541D01*
X100519844Y-98062048D01*
X100555060Y-98037545D01*
X100577939Y-98035177D01*
X100636669Y-98014472D01*
X100677358Y-97974337D01*
X100718335Y-97918842D01*
X100772644Y-97848591D01*
X100797607Y-97817205D01*
X100841904Y-97756731D01*
X100869929Y-97708104D01*
X100875046Y-97691119D01*
X100853188Y-97640456D01*
X100794281Y-97602843D01*
X100708325Y-97583757D01*
X100676594Y-97582457D01*
X100599725Y-97575338D01*
X100567672Y-97553628D01*
X100580417Y-97516799D01*
X100637940Y-97464320D01*
X100671453Y-97440222D01*
X100765356Y-97365654D01*
X100827186Y-97295066D01*
X100851114Y-97235221D01*
X100851219Y-97231658D01*
X100836379Y-97204329D01*
X100802678Y-97206039D01*
X100766346Y-97233582D01*
X100754944Y-97250677D01*
X100709330Y-97316747D01*
X100642125Y-97377421D01*
X100541921Y-97442878D01*
X100535018Y-97446941D01*
X100472361Y-97490015D01*
X100431445Y-97530332D01*
X100422325Y-97550370D01*
X100417121Y-97565063D01*
X100396847Y-97574871D01*
X100354509Y-97580373D01*
X100283117Y-97582146D01*
X100175676Y-97580770D01*
X100082785Y-97578448D01*
X99947121Y-97574222D01*
X99847761Y-97568860D01*
X99773362Y-97560374D01*
X99712583Y-97546776D01*
X99654080Y-97526078D01*
X99586510Y-97496293D01*
X99569787Y-97488548D01*
X99430593Y-97409868D01*
X99315694Y-97317034D01*
X99234037Y-97218060D01*
X99206065Y-97162681D01*
X99191658Y-97100658D01*
X99186336Y-97045988D01*
X99426403Y-97045988D01*
X99443125Y-97129314D01*
X99474430Y-97200713D01*
X99523565Y-97277055D01*
X99589652Y-97334716D01*
X99656613Y-97373462D01*
X99726223Y-97408457D01*
X99777422Y-97432396D01*
X99796655Y-97439492D01*
X99788584Y-97423766D01*
X99755306Y-97382860D01*
X99712347Y-97334764D01*
X99630272Y-97221674D01*
X99578921Y-97099261D01*
X99564672Y-97003060D01*
X99552931Y-96972018D01*
X99510406Y-96966210D01*
X99499014Y-96967319D01*
X99445095Y-96991395D01*
X99426403Y-97045988D01*
X99186336Y-97045988D01*
X99183794Y-97019876D01*
X99183301Y-96996624D01*
X99178902Y-96926450D01*
X99161012Y-96887255D01*
X99125911Y-96864292D01*
X99071945Y-96851123D01*
X99012322Y-96866767D01*
X98991200Y-96876717D01*
X98912615Y-96903228D01*
X98826796Y-96915229D01*
X98821464Y-96915290D01*
X98723561Y-96927853D01*
X98633028Y-96961433D01*
X98555726Y-97009861D01*
X98497512Y-97066973D01*
X98464247Y-97126599D01*
X98461789Y-97182575D01*
X98495998Y-97228734D01*
X98513546Y-97239369D01*
X98570459Y-97277984D01*
X98627505Y-97329990D01*
X98627691Y-97330189D01*
X98675269Y-97371830D01*
X98715485Y-97391585D01*
X98718793Y-97391838D01*
X98756479Y-97410682D01*
X98776751Y-97436720D01*
X98815257Y-97471245D01*
X98877287Y-97495798D01*
X98884813Y-97497368D01*
X98948646Y-97520256D01*
X98967532Y-97555476D01*
X98940527Y-97601253D01*
X98940262Y-97601519D01*
X98886425Y-97628594D01*
X98833047Y-97611518D01*
X98807592Y-97582457D01*
X98767065Y-97541565D01*
X98723286Y-97546833D01*
X98674684Y-97596674D01*
X98646187Y-97641112D01*
X98646876Y-97670577D01*
X98672420Y-97703149D01*
X98718484Y-97738480D01*
X98753335Y-97749249D01*
X98801578Y-97764643D01*
X98840212Y-97799277D01*
X98849718Y-97824815D01*
X98829244Y-97842556D01*
X98779252Y-97861440D01*
X98772279Y-97863327D01*
X98704427Y-97871279D01*
X98662085Y-97850827D01*
X98612866Y-97827020D01*
X98578933Y-97825420D01*
X98534469Y-97846996D01*
X98522784Y-97887603D01*
X98538271Y-97938033D01*
X98575322Y-97989077D01*
X98628329Y-98031526D01*
X98691686Y-98056173D01*
X98721176Y-98059005D01*
X98810046Y-98066865D01*
X98859028Y-98092271D01*
X98873545Y-98136154D01*
X98879143Y-98166662D01*
X98904682Y-98175752D01*
X98962898Y-98168197D01*
X99039270Y-98156323D01*
X99135324Y-98143921D01*
X99188612Y-98138001D01*
X99266001Y-98127887D01*
X99305981Y-98114833D01*
X99318768Y-98094093D01*
X99317940Y-98077896D01*
X99295291Y-98032270D01*
X99249571Y-97983012D01*
X99244590Y-97978927D01*
X99202520Y-97942021D01*
X99194887Y-97918407D01*
X99217451Y-97893540D01*
X99219259Y-97892033D01*
X99251568Y-97872957D01*
X99279978Y-97885450D01*
X99307825Y-97916775D01*
X99341435Y-97950209D01*
X99383174Y-97968006D01*
X99448381Y-97974819D01*
X99501670Y-97975571D01*
X99582499Y-97977034D01*
X99627390Y-97984289D01*
X99648038Y-98001719D01*
X99656100Y-98033424D01*
X99675543Y-98081769D01*
X99715777Y-98140162D01*
X99766447Y-98197522D01*
X99817198Y-98242767D01*
X99857674Y-98264815D01*
X99871099Y-98263513D01*
X99896718Y-98225420D01*
X99889342Y-98179661D01*
X99853215Y-98148308D01*
X99848685Y-98146944D01*
X99814704Y-98130527D01*
X99818589Y-98098729D01*
X99825696Y-98084597D01*
X99861596Y-98045062D01*
X99911784Y-98041103D01*
X99981557Y-98073596D01*
X100048710Y-98121464D01*
X100117658Y-98182380D01*
X100143162Y-98223836D01*
X100125214Y-98245803D01*
X100091890Y-98249624D01*
X100040355Y-98263498D01*
X100003943Y-98284607D01*
X99943066Y-98312746D01*
X99896931Y-98320348D01*
X99839873Y-98330919D01*
X99809156Y-98348122D01*
X99779848Y-98358054D01*
X99729920Y-98341985D01*
X99674840Y-98312255D01*
X99607369Y-98266975D01*
X99572920Y-98224711D01*
X99560083Y-98172255D01*
X99542145Y-98109498D01*
X99507837Y-98086642D01*
X99479362Y-98086821D01*
X99471576Y-98110433D01*
X99479132Y-98163885D01*
X99486855Y-98220413D01*
X99476371Y-98244399D01*
X99440754Y-98249606D01*
X99435975Y-98249624D01*
X99385724Y-98259973D01*
X99354340Y-98283872D01*
X99355530Y-98310599D01*
X99356595Y-98311723D01*
X99385128Y-98319718D01*
X99444320Y-98326955D01*
X99477490Y-98329366D01*
X99542588Y-98336683D01*
X99591667Y-98348192D01*
X99615328Y-98360425D01*
X99604172Y-98369914D01*
X99592338Y-98371739D01*
X99545634Y-98379513D01*
X99540712Y-98380674D01*
X99496710Y-98387810D01*
X99478364Y-98389610D01*
X99451019Y-98406468D01*
X99453314Y-98444095D01*
X99453714Y-98506748D01*
X99442344Y-98541267D01*
X99428067Y-98589402D01*
X99433146Y-98628957D01*
X99452743Y-98645975D01*
X99474776Y-98634846D01*
X99521717Y-98614090D01*
X99593884Y-98606743D01*
X99671420Y-98612068D01*
X99734470Y-98629325D01*
X99757298Y-98645354D01*
X99772581Y-98687099D01*
X99747355Y-98719028D01*
X99688333Y-98737729D01*
X99602230Y-98739791D01*
X99576518Y-98737216D01*
X99458970Y-98733433D01*
X99376087Y-98757527D01*
X99322237Y-98811930D01*
X99303049Y-98855370D01*
X99286250Y-98947392D01*
X99307853Y-99015256D01*
X99370407Y-99066196D01*
X99378831Y-99070547D01*
X99442132Y-99093151D01*
X99511324Y-99105130D01*
X99571484Y-99105623D01*
X99607691Y-99093766D01*
X99612194Y-99084036D01*
X99632577Y-99062264D01*
X99677719Y-99045010D01*
X99755003Y-99019178D01*
X99785557Y-98989134D01*
X99770209Y-98953728D01*
X99753585Y-98939432D01*
X99716353Y-98897201D01*
X99720104Y-98868027D01*
X99758474Y-98862760D01*
X99791986Y-98873967D01*
X99840411Y-98887642D01*
X99881358Y-98870448D01*
X99905851Y-98849241D01*
X99960355Y-98810473D01*
X100006798Y-98797697D01*
X100034180Y-98811564D01*
X100035159Y-98841579D01*
X100044657Y-98888550D01*
X100093706Y-98926951D01*
X100174316Y-98951481D01*
X100207100Y-98955683D01*
X100273481Y-98976208D01*
X100333186Y-99017626D01*
X100369702Y-99066991D01*
X100374141Y-99086649D01*
X100352503Y-99109115D01*
X100291583Y-99130418D01*
X100199748Y-99148513D01*
X100085362Y-99161353D01*
X100061825Y-99163027D01*
X99902457Y-99184297D01*
X99768038Y-99228062D01*
X99749769Y-99236406D01*
X99676004Y-99269338D01*
X99617975Y-99291698D01*
X99592863Y-99298029D01*
X99561046Y-99316632D01*
X99543057Y-99341301D01*
X99506388Y-99374008D01*
X99439651Y-99408300D01*
X99359802Y-99438036D01*
X99283800Y-99457075D01*
X99228599Y-99459274D01*
X99222338Y-99457469D01*
X99186627Y-99431390D01*
X99194395Y-99403203D01*
X99242491Y-99380638D01*
X99254783Y-99377851D01*
X99310555Y-99359024D01*
X99323266Y-99338585D01*
X99292513Y-99324289D01*
X99257701Y-99321856D01*
X99198569Y-99309728D01*
X99154921Y-99280404D01*
X99140002Y-99244480D01*
X99144573Y-99231380D01*
X99136270Y-99204850D01*
X99098039Y-99167408D01*
X99042718Y-99129166D01*
X98983141Y-99100240D01*
X98974325Y-99097233D01*
X98920908Y-99064337D01*
X98896509Y-99034314D01*
X98861797Y-98997166D01*
X98835782Y-98988273D01*
X98790510Y-98977806D01*
X98730496Y-98952475D01*
X98727752Y-98951069D01*
X98664916Y-98930476D01*
X98567046Y-98917033D01*
X98428527Y-98910030D01*
X98397298Y-98909371D01*
X98282096Y-98908055D01*
X98204030Y-98910032D01*
X98152609Y-98917031D01*
X98117342Y-98930782D01*
X98087735Y-98953014D01*
X98077955Y-98962002D01*
X98020925Y-99001150D01*
X97947582Y-99018769D01*
X97897466Y-99021571D01*
X97830933Y-99025065D01*
X97790763Y-99031354D01*
X97784861Y-99035928D01*
X97798257Y-99063181D01*
X97823458Y-99117352D01*
X97834298Y-99141083D01*
X97859644Y-99206469D01*
X97861880Y-99251848D01*
X97845604Y-99292400D01*
X97827174Y-99338394D01*
X97839268Y-99367234D01*
X97854484Y-99379694D01*
X97881311Y-99424762D01*
X97889094Y-99493314D01*
X97877973Y-99565209D01*
X97852847Y-99615024D01*
X97836276Y-99647013D01*
X97858893Y-99671472D01*
X97871256Y-99678444D01*
X97909614Y-99719077D01*
X97920449Y-99785923D01*
X97913835Y-99850890D01*
X97897911Y-99878335D01*
X97878554Y-99864922D01*
X97863640Y-99818159D01*
X97844292Y-99754127D01*
X97820431Y-99709334D01*
X97803391Y-99666843D01*
X97791389Y-99596405D01*
X97788369Y-99552185D01*
X97779201Y-99419037D01*
X97761302Y-99284840D01*
X97737212Y-99163777D01*
X97709468Y-99070030D01*
X97696935Y-99041431D01*
X97671596Y-98967183D01*
X97659741Y-98879209D01*
X97661012Y-98817748D01*
X97709714Y-98817748D01*
X97715349Y-98855478D01*
X97737292Y-98905842D01*
X97769875Y-98911059D01*
X97813321Y-98877551D01*
X97837980Y-98846341D01*
X97830740Y-98818950D01*
X97803374Y-98789125D01*
X97755433Y-98759473D01*
X97721533Y-98771035D01*
X97709714Y-98817748D01*
X97661012Y-98817748D01*
X97661507Y-98793820D01*
X97677030Y-98727324D01*
X97694089Y-98702344D01*
X97722764Y-98655987D01*
X97729830Y-98616959D01*
X97746555Y-98557191D01*
X97773937Y-98518610D01*
X97807353Y-98474182D01*
X97843006Y-98412494D01*
X97920449Y-98412494D01*
X97933218Y-98476049D01*
X97964280Y-98541242D01*
X98002768Y-98587271D01*
X98015751Y-98594914D01*
X98125393Y-98636649D01*
X98200868Y-98658448D01*
X98251669Y-98659474D01*
X98287289Y-98638889D01*
X98317221Y-98595856D01*
X98332351Y-98566990D01*
X98358236Y-98511536D01*
X98361657Y-98481106D01*
X98342614Y-98458694D01*
X98332351Y-98450865D01*
X98303769Y-98416809D01*
X98316005Y-98376113D01*
X98357939Y-98338136D01*
X98422932Y-98329267D01*
X98515455Y-98349893D01*
X98639981Y-98400400D01*
X98649938Y-98405030D01*
X98784317Y-98462266D01*
X98883645Y-98491926D01*
X98946715Y-98493736D01*
X98968855Y-98477905D01*
X98956883Y-98455203D01*
X98913083Y-98421864D01*
X98879735Y-98402571D01*
X98802475Y-98352600D01*
X98732860Y-98293033D01*
X98716782Y-98275556D01*
X98669488Y-98228668D01*
X98628729Y-98203391D01*
X98620889Y-98201969D01*
X98585474Y-98181916D01*
X98545743Y-98132445D01*
X98511703Y-98069593D01*
X98493359Y-98009394D01*
X98492396Y-97996062D01*
X98472610Y-97951112D01*
X98422947Y-97928312D01*
X98357666Y-97931834D01*
X98321264Y-97945979D01*
X98271054Y-97979082D01*
X98209256Y-98028993D01*
X98147082Y-98085332D01*
X98095742Y-98137714D01*
X98066448Y-98175757D01*
X98063414Y-98184780D01*
X98048863Y-98215107D01*
X98012147Y-98265046D01*
X97991931Y-98289005D01*
X97948292Y-98347517D01*
X97922994Y-98398486D01*
X97920449Y-98412494D01*
X97843006Y-98412494D01*
X97848482Y-98403019D01*
X97879466Y-98339797D01*
X97913592Y-98257081D01*
X97927328Y-98197986D01*
X97923680Y-98144617D01*
X97916927Y-98116829D01*
X97905881Y-98016808D01*
X97917764Y-97967087D01*
X97934017Y-97913318D01*
X97954073Y-97829388D01*
X97973951Y-97732151D01*
X97976517Y-97718305D01*
X97997104Y-97624512D01*
X98020631Y-97545673D01*
X98042569Y-97496540D01*
X98046038Y-97491945D01*
X98067438Y-97458554D01*
X98516134Y-97458554D01*
X98531036Y-97490285D01*
X98544160Y-97505642D01*
X98578573Y-97517006D01*
X98612464Y-97502485D01*
X98626156Y-97473508D01*
X98621689Y-97460620D01*
X98592878Y-97443953D01*
X98550959Y-97440277D01*
X98520041Y-97450064D01*
X98516134Y-97458554D01*
X98067438Y-97458554D01*
X98082654Y-97434813D01*
X98097942Y-97397795D01*
X98130187Y-97353537D01*
X98161672Y-97344183D01*
X98212322Y-97324579D01*
X98271309Y-97274052D01*
X98327180Y-97205033D01*
X98368483Y-97129950D01*
X98374804Y-97112870D01*
X98401683Y-97045010D01*
X98440654Y-96961403D01*
X98461199Y-96921440D01*
X98503631Y-96836176D01*
X98509920Y-96821916D01*
X100352654Y-96821916D01*
X100374671Y-96843808D01*
X100418396Y-96851679D01*
X100432849Y-96842815D01*
X100439600Y-96808827D01*
X100427091Y-96791387D01*
X100394839Y-96775256D01*
X100368913Y-96792380D01*
X100352654Y-96821916D01*
X98509920Y-96821916D01*
X98541334Y-96750687D01*
X98553760Y-96718452D01*
X98559859Y-96704887D01*
X98649684Y-96704887D01*
X98682137Y-96720693D01*
X98724122Y-96711160D01*
X98747421Y-96686096D01*
X98735740Y-96668900D01*
X98696062Y-96670951D01*
X98656294Y-96686657D01*
X98649684Y-96704887D01*
X98559859Y-96704887D01*
X98587115Y-96644267D01*
X98593694Y-96632574D01*
X98852970Y-96632574D01*
X98862286Y-96686240D01*
X98893447Y-96716689D01*
X98933094Y-96729902D01*
X98980331Y-96715162D01*
X99012584Y-96696254D01*
X99062165Y-96654534D01*
X99087241Y-96613222D01*
X99087992Y-96606887D01*
X99104645Y-96560268D01*
X99135646Y-96522138D01*
X99171766Y-96474901D01*
X99183301Y-96437380D01*
X99204905Y-96398685D01*
X99254783Y-96370830D01*
X99304489Y-96343518D01*
X99326227Y-96311800D01*
X99326265Y-96310633D01*
X99346672Y-96251792D01*
X99401825Y-96216839D01*
X99482625Y-96210990D01*
X99496558Y-96212973D01*
X99579756Y-96216276D01*
X99675700Y-96205278D01*
X99705219Y-96198751D01*
X99776855Y-96183631D01*
X99835452Y-96183096D01*
X99902366Y-96198818D01*
X99961111Y-96218788D01*
X100054668Y-96248912D01*
X100146825Y-96273342D01*
X100195965Y-96283179D01*
X100334448Y-96319701D01*
X100485429Y-96385118D01*
X100631682Y-96471075D01*
X100720168Y-96537434D01*
X100762383Y-96572869D01*
X100826976Y-96627143D01*
X100898873Y-96687590D01*
X100988527Y-96775957D01*
X101066584Y-96876776D01*
X101125414Y-96978025D01*
X101157384Y-97067680D01*
X101160975Y-97100502D01*
X101165127Y-97155790D01*
X101176265Y-97244259D01*
X101192410Y-97352289D01*
X101211584Y-97466258D01*
X101223286Y-97529568D01*
X101252343Y-97577411D01*
X101304574Y-97598072D01*
X101357422Y-97618415D01*
X101375064Y-97657459D01*
X101375421Y-97667425D01*
X101382834Y-97715410D01*
X101394713Y-97734532D01*
X101405144Y-97763717D01*
X101409488Y-97823203D01*
X101408065Y-97896067D01*
X101401197Y-97965390D01*
X101389408Y-98013782D01*
X101395894Y-98050163D01*
X101430096Y-98089456D01*
X101475167Y-98117692D01*
X101514257Y-98120903D01*
X101516908Y-98119486D01*
X101555129Y-98115686D01*
X101575804Y-98121045D01*
X101599787Y-98148558D01*
X101612565Y-98195839D01*
X101612335Y-98243372D01*
X101597297Y-98271642D01*
X101589868Y-98273451D01*
X101566733Y-98291583D01*
X101566040Y-98297279D01*
X101585140Y-98317603D01*
X101631872Y-98320501D01*
X101690383Y-98308044D01*
X101744821Y-98282302D01*
X101758109Y-98272194D01*
X101819186Y-98237089D01*
X101894687Y-98234980D01*
X101898762Y-98235553D01*
X101956476Y-98243897D01*
X101989141Y-98248504D01*
X101990870Y-98248724D01*
X101991728Y-98269688D01*
X101983326Y-98319594D01*
X101981998Y-98325756D01*
X101965277Y-98401888D01*
X102029775Y-98359628D01*
X102077818Y-98332885D01*
X102109381Y-98334607D01*
X102133956Y-98353115D01*
X102184665Y-98380608D01*
X102253270Y-98398345D01*
X102257035Y-98398826D01*
X102357975Y-98406792D01*
X102486286Y-98411227D01*
X102623984Y-98412061D01*
X102753087Y-98409224D01*
X102855613Y-98402646D01*
X102868618Y-98401209D01*
X102946804Y-98387408D01*
X102988618Y-98366640D01*
X103004022Y-98339451D01*
X103024580Y-98307803D01*
X103043359Y-98309205D01*
X103060471Y-98342639D01*
X103057625Y-98359257D01*
X103051156Y-98385456D01*
X103065487Y-98388296D01*
X103108085Y-98366546D01*
X103144029Y-98345022D01*
X103218901Y-98306996D01*
X103274055Y-98301692D01*
X103323863Y-98328534D01*
X103334090Y-98337384D01*
X103370358Y-98364125D01*
X103397950Y-98356498D01*
X103417631Y-98338264D01*
X103443104Y-98300434D01*
X103436541Y-98255671D01*
X103428803Y-98237469D01*
X103405069Y-98159939D01*
X103404488Y-98092578D01*
X103426497Y-98049518D01*
X103436491Y-98043794D01*
X103467034Y-98011301D01*
X103470354Y-97962464D01*
X103448281Y-97918717D01*
X103424577Y-97904127D01*
X103383536Y-97879077D01*
X103381201Y-97848907D01*
X103394855Y-97836287D01*
X103426657Y-97836484D01*
X103484573Y-97850362D01*
X103507123Y-97857635D01*
X103576221Y-97878657D01*
X103607059Y-97878336D01*
X103605030Y-97854446D01*
X103588012Y-97824211D01*
X103568534Y-97755804D01*
X103586782Y-97691178D01*
X103635688Y-97645729D01*
X103675203Y-97634235D01*
X103731865Y-97623302D01*
X103764202Y-97609131D01*
X103780152Y-97576358D01*
X103802465Y-97508196D01*
X103828024Y-97415958D01*
X103853709Y-97310958D01*
X103876399Y-97204509D01*
X103877884Y-97196831D01*
X103913290Y-97095455D01*
X104024551Y-97095455D01*
X104025718Y-97118727D01*
X104056003Y-97153564D01*
X104086182Y-97192183D01*
X104091744Y-97212356D01*
X104107715Y-97264021D01*
X104149596Y-97336294D01*
X104208336Y-97417401D01*
X104274885Y-97495564D01*
X104340191Y-97559007D01*
X104381029Y-97588767D01*
X104448372Y-97620053D01*
X104521248Y-97642082D01*
X104589344Y-97653779D01*
X104642348Y-97654071D01*
X104669947Y-97641883D01*
X104663601Y-97618198D01*
X104625451Y-97588043D01*
X104605709Y-97582457D01*
X104548433Y-97561528D01*
X104484376Y-97506616D01*
X105397054Y-97506616D01*
X105427217Y-97498114D01*
X105492548Y-97458213D01*
X105505657Y-97449382D01*
X105575248Y-97384322D01*
X105632611Y-97298758D01*
X105669965Y-97208072D01*
X105679530Y-97127644D01*
X105676731Y-97111193D01*
X105654069Y-97065281D01*
X105623275Y-97062279D01*
X105588631Y-97099088D01*
X105554419Y-97172609D01*
X105542859Y-97208056D01*
X105508736Y-97300264D01*
X105465576Y-97387366D01*
X105438979Y-97428403D01*
X105401246Y-97483464D01*
X105397054Y-97506616D01*
X104484376Y-97506616D01*
X104482556Y-97505056D01*
X104415117Y-97422511D01*
X104353161Y-97323361D01*
X104303729Y-97217077D01*
X104280893Y-97145682D01*
X104262691Y-97081037D01*
X104247687Y-97040906D01*
X104242610Y-97034427D01*
X104216636Y-97044279D01*
X104166781Y-97068353D01*
X104159892Y-97071892D01*
X104101131Y-97094025D01*
X104056159Y-97097218D01*
X104053852Y-97096467D01*
X104024551Y-97095455D01*
X103913290Y-97095455D01*
X103919714Y-97077061D01*
X103998583Y-96945522D01*
X104011905Y-96929189D01*
X104878048Y-96929189D01*
X104891937Y-96955282D01*
X104920516Y-96951122D01*
X104944070Y-96919757D01*
X104933699Y-96895452D01*
X104915775Y-96891462D01*
X104882951Y-96910647D01*
X104878048Y-96929189D01*
X104011905Y-96929189D01*
X104108455Y-96810822D01*
X104232879Y-96690513D01*
X104379699Y-96586084D01*
X104569695Y-96488579D01*
X104798645Y-96399980D01*
X104957969Y-96350484D01*
X105094313Y-96315200D01*
X105229445Y-96286630D01*
X105355616Y-96265700D01*
X105465076Y-96253332D01*
X105550075Y-96250450D01*
X105602864Y-96257979D01*
X105616697Y-96271950D01*
X105597398Y-96293089D01*
X105580956Y-96295778D01*
X105545469Y-96302745D01*
X105547989Y-96319307D01*
X105581674Y-96338954D01*
X105639679Y-96355174D01*
X105644230Y-96355972D01*
X105754665Y-96397498D01*
X105854679Y-96478289D01*
X105937063Y-96590066D01*
X105994609Y-96724548D01*
X106006950Y-96772641D01*
X106022860Y-96810375D01*
X106058843Y-96835981D01*
X106127263Y-96857371D01*
X106146592Y-96861993D01*
X106229483Y-96878882D01*
X106301517Y-96889543D01*
X106329739Y-96891462D01*
X106386132Y-96891462D01*
X106323084Y-96833032D01*
X106281155Y-96787812D01*
X106260491Y-96753050D01*
X106260037Y-96749636D01*
X106244600Y-96716207D01*
X106209999Y-96674633D01*
X106177654Y-96631243D01*
X106184369Y-96600290D01*
X106186315Y-96598242D01*
X106191662Y-96571809D01*
X106165533Y-96528304D01*
X106112255Y-96469574D01*
X106055711Y-96415146D01*
X106011179Y-96378037D01*
X105991577Y-96367260D01*
X105957586Y-96352229D01*
X105906113Y-96315061D01*
X105850863Y-96267638D01*
X105848121Y-96264867D01*
X106251086Y-96264867D01*
X106283864Y-96268188D01*
X106317690Y-96264444D01*
X106313648Y-96256170D01*
X106264865Y-96253023D01*
X106254080Y-96256170D01*
X106251086Y-96264867D01*
X105848121Y-96264867D01*
X105805543Y-96221846D01*
X105783858Y-96189568D01*
X105783489Y-96186834D01*
X105765316Y-96168228D01*
X105707898Y-96167713D01*
X105691268Y-96169717D01*
X105623019Y-96171717D01*
X105584466Y-96157957D01*
X105582639Y-96155536D01*
X105548693Y-96135168D01*
X105502111Y-96127476D01*
X105458687Y-96125225D01*
X105460282Y-96117770D01*
X105491603Y-96104416D01*
X105532883Y-96078878D01*
X105545215Y-96058272D01*
X105527068Y-96036695D01*
X105482475Y-96038450D01*
X105426211Y-96062950D01*
X105426140Y-96062995D01*
X105374262Y-96073827D01*
X105330791Y-96044230D01*
X105303267Y-95981421D01*
X105297864Y-95940238D01*
X105282042Y-95877609D01*
X105233761Y-95835739D01*
X105223090Y-95830140D01*
X105156536Y-95786425D01*
X105094045Y-95730101D01*
X105092494Y-95728393D01*
X105032475Y-95678127D01*
X104953537Y-95631519D01*
X104925703Y-95619035D01*
X104847489Y-95586058D01*
X104778048Y-95554421D01*
X104758911Y-95544921D01*
X104698455Y-95522404D01*
X104617304Y-95502521D01*
X104586162Y-95497130D01*
X104518211Y-95488592D01*
X104484909Y-95492566D01*
X104473951Y-95513409D01*
X104472982Y-95537214D01*
X104490495Y-95596259D01*
X104520637Y-95634996D01*
X104552620Y-95689205D01*
X104567909Y-95772840D01*
X104565858Y-95870454D01*
X104545821Y-95966603D01*
X104535651Y-95994190D01*
X104498811Y-96054047D01*
X104440599Y-96120445D01*
X104373179Y-96182300D01*
X104308714Y-96228527D01*
X104259368Y-96248043D01*
X104256987Y-96248123D01*
X104214806Y-96229706D01*
X104179855Y-96192407D01*
X104131783Y-96149117D01*
X104090174Y-96138795D01*
X104043989Y-96128798D01*
X104026644Y-96111115D01*
X104036989Y-96086799D01*
X104063327Y-96081331D01*
X104087415Y-96076419D01*
X104102696Y-96055271D01*
X104112142Y-96008270D01*
X104118722Y-95925798D01*
X104120368Y-95896669D01*
X104125033Y-95780361D01*
X104122777Y-95703166D01*
X104111754Y-95656809D01*
X104090119Y-95633020D01*
X104059531Y-95623993D01*
X104021510Y-95606346D01*
X104008669Y-95559647D01*
X104008348Y-95545215D01*
X103990334Y-95457867D01*
X104092720Y-95457867D01*
X104106005Y-95482221D01*
X104125879Y-95485646D01*
X104159854Y-95465802D01*
X104165537Y-95455462D01*
X105172916Y-95455462D01*
X105183480Y-95461819D01*
X105218403Y-95444283D01*
X105224525Y-95436406D01*
X105233444Y-95405388D01*
X105214953Y-95402843D01*
X105188282Y-95425502D01*
X105172916Y-95455462D01*
X104165537Y-95455462D01*
X104175140Y-95437992D01*
X104196532Y-95399484D01*
X104212486Y-95390337D01*
X104232100Y-95370965D01*
X104234708Y-95353882D01*
X104227288Y-95335221D01*
X104199276Y-95345334D01*
X104163226Y-95370277D01*
X104112753Y-95417586D01*
X104092720Y-95457867D01*
X103990334Y-95457867D01*
X103989446Y-95453560D01*
X103933339Y-95391523D01*
X103841556Y-95360192D01*
X103756698Y-95346434D01*
X103676445Y-95331251D01*
X103669312Y-95329735D01*
X103614282Y-95323025D01*
X103585058Y-95340911D01*
X103568402Y-95376159D01*
X103533064Y-95441947D01*
X103494308Y-95492217D01*
X103422885Y-95579672D01*
X103356702Y-95681407D01*
X103304634Y-95781987D01*
X103275555Y-95865978D01*
X103273784Y-95875794D01*
X103259671Y-95948679D01*
X103242341Y-95979903D01*
X103215886Y-95975381D01*
X103192406Y-95957306D01*
X103136887Y-95923914D01*
X103084656Y-95905276D01*
X103033769Y-95900916D01*
X103005556Y-95927581D01*
X102995348Y-95951165D01*
X102970307Y-95991260D01*
X102946137Y-95996766D01*
X102914534Y-96001713D01*
X102866556Y-96033333D01*
X102849013Y-96048944D01*
X102802560Y-96090351D01*
X102775440Y-96100985D01*
X102753933Y-96084401D01*
X102747056Y-96075374D01*
X102711760Y-96041652D01*
X102690987Y-96033676D01*
X102654201Y-96053429D01*
X102613575Y-96101461D01*
X102580606Y-96160930D01*
X102566793Y-96214997D01*
X102566791Y-96215595D01*
X102557588Y-96257057D01*
X102520695Y-96271247D01*
X102500074Y-96271950D01*
X102436009Y-96259511D01*
X102389457Y-96228861D01*
X102376172Y-96198593D01*
X102395796Y-96179492D01*
X102443647Y-96154527D01*
X102449658Y-96151983D01*
X102503727Y-96119029D01*
X102542291Y-96065562D01*
X102573083Y-95979652D01*
X102581097Y-95949230D01*
X102584217Y-95902772D01*
X102567124Y-95893518D01*
X102539173Y-95921297D01*
X102523471Y-95950280D01*
X102491888Y-95994303D01*
X102461201Y-96009849D01*
X102440906Y-96000461D01*
X102434353Y-95965452D01*
X102439731Y-95894552D01*
X102440182Y-95890712D01*
X102441363Y-95878789D01*
X102695212Y-95878789D01*
X102701139Y-95902626D01*
X102733193Y-95931760D01*
X102780700Y-95936515D01*
X102816978Y-95914539D01*
X102850224Y-95895030D01*
X102883910Y-95889954D01*
X102945020Y-95875004D01*
X102982130Y-95854387D01*
X103011073Y-95828795D01*
X103010800Y-95805619D01*
X102979488Y-95767804D01*
X102972020Y-95759835D01*
X102913179Y-95714538D01*
X102858745Y-95701635D01*
X102820246Y-95722941D01*
X102814029Y-95734927D01*
X102781595Y-95771419D01*
X102757410Y-95783489D01*
X102708408Y-95820386D01*
X102695212Y-95878789D01*
X102441363Y-95878789D01*
X102447145Y-95820398D01*
X102442950Y-95785197D01*
X102422627Y-95772971D01*
X102391404Y-95771575D01*
X102344215Y-95762716D01*
X102328956Y-95727825D01*
X102328517Y-95714556D01*
X102314046Y-95664652D01*
X102289756Y-95642663D01*
X102260639Y-95637802D01*
X102226917Y-95649587D01*
X102179881Y-95683355D01*
X102110820Y-95744443D01*
X102085947Y-95767546D01*
X102019429Y-95820620D01*
X101968059Y-95838343D01*
X101946194Y-95835870D01*
X101884455Y-95836593D01*
X101849818Y-95849930D01*
X101811403Y-95864774D01*
X101784136Y-95849584D01*
X101765015Y-95799066D01*
X101751040Y-95707923D01*
X101747105Y-95668663D01*
X101720910Y-95505686D01*
X101676530Y-95386386D01*
X101614068Y-95310906D01*
X101533629Y-95279388D01*
X101465742Y-95283759D01*
X101401724Y-95302865D01*
X101356216Y-95325653D01*
X101355616Y-95326129D01*
X101313911Y-95338332D01*
X101276686Y-95322245D01*
X101218134Y-95304069D01*
X101166707Y-95316779D01*
X101138624Y-95354983D01*
X101137147Y-95368638D01*
X101127641Y-95413461D01*
X101102787Y-95485176D01*
X101069998Y-95563609D01*
X101032140Y-95655743D01*
X101013798Y-95731559D01*
X101010439Y-95815879D01*
X101013293Y-95874215D01*
X101017068Y-95964598D01*
X101012170Y-96022345D01*
X100995820Y-96062113D01*
X100972090Y-96091399D01*
X100900934Y-96135639D01*
X100815526Y-96143699D01*
X100731107Y-96116827D01*
X100670892Y-96066701D01*
X100633184Y-96010261D01*
X100614275Y-95961811D01*
X100613802Y-95956579D01*
X100607305Y-95908975D01*
X100591983Y-95838194D01*
X100584480Y-95808799D01*
X100570568Y-95715385D01*
X100589187Y-95642034D01*
X100645312Y-95579194D01*
X100733384Y-95522978D01*
X100806896Y-95476563D01*
X100844666Y-95433524D01*
X100855656Y-95395964D01*
X100871553Y-95346994D01*
X100911687Y-95331368D01*
X100920611Y-95331099D01*
X100968643Y-95319945D01*
X100988122Y-95300984D01*
X100976615Y-95277696D01*
X100936600Y-95271200D01*
X100890874Y-95278759D01*
X100875046Y-95293947D01*
X100854118Y-95312352D01*
X100802189Y-95329590D01*
X100785693Y-95332990D01*
X100706791Y-95356429D01*
X100636698Y-95391180D01*
X100633094Y-95393638D01*
X100571173Y-95425462D01*
X100515648Y-95437992D01*
X100440736Y-95448365D01*
X100345327Y-95475297D01*
X100250749Y-95512501D01*
X100231706Y-95521674D01*
X100163149Y-95549021D01*
X100096582Y-95567771D01*
X100019321Y-95598707D01*
X99951889Y-95650121D01*
X99907828Y-95709704D01*
X99898123Y-95748176D01*
X99886637Y-95812486D01*
X99874006Y-95843598D01*
X99832576Y-95879348D01*
X99765174Y-95903459D01*
X99693002Y-95911056D01*
X99638186Y-95897845D01*
X99584055Y-95882495D01*
X99549145Y-95908588D01*
X99540712Y-95950915D01*
X99519515Y-96009660D01*
X99466369Y-96057256D01*
X99396945Y-96080685D01*
X99383746Y-96081331D01*
X99328467Y-96095738D01*
X99273987Y-96127509D01*
X99208799Y-96167264D01*
X99150805Y-96189869D01*
X99091620Y-96223585D01*
X99051680Y-96273053D01*
X99013115Y-96325343D01*
X98971485Y-96354511D01*
X98930438Y-96389137D01*
X98906663Y-96448571D01*
X98908457Y-96510818D01*
X98910392Y-96516427D01*
X98905049Y-96557613D01*
X98886543Y-96580806D01*
X98852970Y-96632574D01*
X98593694Y-96632574D01*
X98634907Y-96559331D01*
X98658400Y-96523152D01*
X98691220Y-96473022D01*
X98712172Y-96429344D01*
X98723758Y-96379580D01*
X98728480Y-96311188D01*
X98728839Y-96211630D01*
X98728450Y-96171960D01*
X98729594Y-96061854D01*
X98734827Y-95963940D01*
X98743214Y-95891709D01*
X98749659Y-95865562D01*
X98762717Y-95781999D01*
X98751233Y-95681280D01*
X98719995Y-95582345D01*
X98673790Y-95504135D01*
X98653133Y-95483649D01*
X98627209Y-95457614D01*
X98617545Y-95425544D01*
X98622425Y-95372575D01*
X98633644Y-95314778D01*
X98648378Y-95206542D01*
X98639852Y-95129314D01*
X98636496Y-95119543D01*
X98622455Y-95076082D01*
X98631914Y-95067794D01*
X98657502Y-95079726D01*
X98698923Y-95125317D01*
X98720839Y-95194767D01*
X98718081Y-95266489D01*
X98708340Y-95292063D01*
X98684333Y-95367709D01*
X98701060Y-95424572D01*
X98735635Y-95450212D01*
X98769540Y-95476809D01*
X98793917Y-95528092D01*
X98814163Y-95615471D01*
X98814386Y-95616697D01*
X98833192Y-95703003D01*
X98854590Y-95776754D01*
X98868900Y-95811706D01*
X98892882Y-95880249D01*
X98893960Y-95944503D01*
X98872792Y-95987924D01*
X98861631Y-95994638D01*
X98834784Y-96027782D01*
X98825890Y-96082330D01*
X98836412Y-96136010D01*
X98863960Y-96149396D01*
X98902511Y-96123907D01*
X98946041Y-96060958D01*
X98950203Y-96053105D01*
X98997699Y-95985840D01*
X99057890Y-95953516D01*
X99071649Y-95950348D01*
X99189533Y-95918537D01*
X99264082Y-95878546D01*
X99290886Y-95841918D01*
X99326500Y-95804810D01*
X99380865Y-95790869D01*
X99448033Y-95769551D01*
X99488235Y-95717963D01*
X99520221Y-95671471D01*
X99552520Y-95652438D01*
X99589147Y-95639438D01*
X99611905Y-95595409D01*
X99624325Y-95512813D01*
X99625516Y-95496617D01*
X99622764Y-95416139D01*
X99621830Y-95414164D01*
X99778986Y-95414164D01*
X99797118Y-95437299D01*
X99802813Y-95437992D01*
X99825948Y-95419859D01*
X99826641Y-95414164D01*
X99808509Y-95391029D01*
X99802813Y-95390337D01*
X99779678Y-95408469D01*
X99778986Y-95414164D01*
X99621830Y-95414164D01*
X99598510Y-95364858D01*
X99588708Y-95354904D01*
X99552228Y-95310191D01*
X99519897Y-95252292D01*
X99499339Y-95197800D01*
X99498180Y-95163306D01*
X99499723Y-95161282D01*
X99529464Y-95161568D01*
X99581046Y-95185707D01*
X99640374Y-95226254D01*
X99668798Y-95250595D01*
X99720752Y-95289275D01*
X99749194Y-95286558D01*
X99754294Y-95263237D01*
X99830296Y-95263237D01*
X99837332Y-95290276D01*
X99862382Y-95295027D01*
X99890766Y-95274117D01*
X99897365Y-95229502D01*
X99897103Y-95224885D01*
X101830999Y-95224885D01*
X101857456Y-95271639D01*
X101919555Y-95332273D01*
X101967525Y-95372233D01*
X102003529Y-95417501D01*
X102017809Y-95485492D01*
X102018761Y-95519084D01*
X102018761Y-95624471D01*
X102093383Y-95596757D01*
X102157895Y-95560060D01*
X102204665Y-95513418D01*
X102223402Y-95461819D01*
X102519136Y-95461819D01*
X102537268Y-95484954D01*
X102542963Y-95485646D01*
X102566098Y-95467514D01*
X102566791Y-95461819D01*
X102548659Y-95438684D01*
X102542963Y-95437992D01*
X102519828Y-95456124D01*
X102519136Y-95461819D01*
X102223402Y-95461819D01*
X102224224Y-95459554D01*
X102218273Y-95389340D01*
X102185282Y-95295075D01*
X102175085Y-95273601D01*
X102376290Y-95273601D01*
X102386406Y-95323722D01*
X102411033Y-95379996D01*
X102440574Y-95423995D01*
X102461898Y-95437992D01*
X102491589Y-95427763D01*
X102494452Y-95420121D01*
X102481993Y-95394931D01*
X102453095Y-95354168D01*
X102418613Y-95311296D01*
X102389404Y-95279777D01*
X102376326Y-95273073D01*
X102376290Y-95273601D01*
X102175085Y-95273601D01*
X102149886Y-95220537D01*
X102948885Y-95220537D01*
X102950470Y-95273922D01*
X102959644Y-95346263D01*
X102974313Y-95423949D01*
X102992381Y-95493369D01*
X103008659Y-95535353D01*
X103045112Y-95589060D01*
X103082606Y-95599728D01*
X103130326Y-95567901D01*
X103153786Y-95543987D01*
X103193091Y-95482900D01*
X103210111Y-95419429D01*
X103210130Y-95417702D01*
X103226445Y-95343373D01*
X103275912Y-95303223D01*
X103331115Y-95295027D01*
X103391036Y-95282583D01*
X103428686Y-95252152D01*
X103432372Y-95214088D01*
X103429171Y-95208200D01*
X103398080Y-95180686D01*
X103370893Y-95163977D01*
X105426078Y-95163977D01*
X105437992Y-95175890D01*
X105449905Y-95163977D01*
X105437992Y-95152063D01*
X105426078Y-95163977D01*
X103370893Y-95163977D01*
X103343950Y-95147418D01*
X103336563Y-95143554D01*
X103247651Y-95119851D01*
X103167716Y-95142551D01*
X103105102Y-95203814D01*
X103072010Y-95240581D01*
X103039778Y-95240249D01*
X103019625Y-95229146D01*
X102976584Y-95205993D01*
X102956985Y-95199718D01*
X102948885Y-95220537D01*
X102149886Y-95220537D01*
X102143961Y-95208059D01*
X102091762Y-95148921D01*
X102018174Y-95115563D01*
X101939882Y-95111982D01*
X101873570Y-95142174D01*
X101872593Y-95143048D01*
X101837079Y-95184519D01*
X101830999Y-95224885D01*
X99897103Y-95224885D01*
X99894852Y-95185139D01*
X99883140Y-95183790D01*
X99861624Y-95210229D01*
X99830296Y-95263237D01*
X99754294Y-95263237D01*
X99755158Y-95259286D01*
X99770931Y-95216885D01*
X99802273Y-95176431D01*
X99832551Y-95130577D01*
X99836013Y-95094464D01*
X99815465Y-95068667D01*
X103639023Y-95068667D01*
X103650937Y-95080581D01*
X103662851Y-95068667D01*
X103650937Y-95056753D01*
X103639023Y-95068667D01*
X99815465Y-95068667D01*
X99801122Y-95050660D01*
X105382479Y-95050660D01*
X105385077Y-95072472D01*
X105420121Y-95103816D01*
X105462632Y-95152797D01*
X105471383Y-95195336D01*
X105445988Y-95220645D01*
X105424376Y-95223545D01*
X105390624Y-95227699D01*
X105399442Y-95247567D01*
X105410335Y-95258861D01*
X105444541Y-95302193D01*
X105455817Y-95324386D01*
X105471511Y-95341999D01*
X105503712Y-95323450D01*
X105504901Y-95322473D01*
X105553908Y-95301352D01*
X105623191Y-95291569D01*
X105633869Y-95291485D01*
X105707379Y-95292600D01*
X105804191Y-95294312D01*
X105878798Y-95295758D01*
X105967311Y-95296627D01*
X106042009Y-95295733D01*
X106081331Y-95293696D01*
X106161897Y-95291460D01*
X106205876Y-95305174D01*
X106212382Y-95318855D01*
X106191155Y-95333518D01*
X106137775Y-95342224D01*
X106111115Y-95343205D01*
X106021378Y-95354269D01*
X105929176Y-95380906D01*
X105913200Y-95387628D01*
X105849214Y-95408426D01*
X105755888Y-95429161D01*
X105648865Y-95447438D01*
X105543786Y-95460862D01*
X105456296Y-95467037D01*
X105408246Y-95464942D01*
X105390860Y-95470808D01*
X105397471Y-95505111D01*
X105405664Y-95526309D01*
X105452074Y-95638027D01*
X105488079Y-95714823D01*
X105520826Y-95766076D01*
X105557464Y-95801167D01*
X105605139Y-95829478D01*
X105654427Y-95852816D01*
X105736039Y-95886013D01*
X105808543Y-95908420D01*
X105846838Y-95914539D01*
X105887997Y-95922123D01*
X105899207Y-95954523D01*
X105897571Y-95980065D01*
X105896716Y-96019525D01*
X105912727Y-96039973D01*
X105957265Y-96049250D01*
X106005909Y-96052935D01*
X106076223Y-96060826D01*
X106107016Y-96074865D01*
X106107923Y-96094633D01*
X106101341Y-96120643D01*
X106114049Y-96124957D01*
X106152973Y-96105805D01*
X106216259Y-96066970D01*
X106274137Y-96021364D01*
X106286958Y-95987500D01*
X106254949Y-95967390D01*
X106204439Y-95962559D01*
X106172925Y-95950774D01*
X106174851Y-95925875D01*
X106204771Y-95902296D01*
X106229818Y-95895313D01*
X106283896Y-95908980D01*
X106315296Y-95939446D01*
X106334674Y-95963970D01*
X106354048Y-95970891D01*
X106382418Y-95956085D01*
X106428787Y-95915432D01*
X106484389Y-95862014D01*
X106567567Y-95773252D01*
X106610186Y-95706080D01*
X106612808Y-95658007D01*
X106575996Y-95626541D01*
X106540008Y-95615597D01*
X106463325Y-95589240D01*
X106432347Y-95551686D01*
X106445875Y-95500164D01*
X106473795Y-95462612D01*
X106504993Y-95412942D01*
X106499526Y-95369086D01*
X106496728Y-95363553D01*
X106486947Y-95327449D01*
X106513340Y-95303450D01*
X106533158Y-95294924D01*
X106605284Y-95266607D01*
X106654733Y-95247180D01*
X106698251Y-95219964D01*
X106702468Y-95181513D01*
X106700733Y-95175542D01*
X106701189Y-95133635D01*
X106740886Y-95107383D01*
X106795258Y-95095618D01*
X106825937Y-95098175D01*
X106855369Y-95101850D01*
X106854004Y-95083245D01*
X106827204Y-95051121D01*
X106780330Y-95014238D01*
X106770884Y-95008207D01*
X106714860Y-94977135D01*
X106653305Y-94951971D01*
X106576915Y-94930300D01*
X106476385Y-94909704D01*
X106342412Y-94887769D01*
X106260037Y-94875553D01*
X106140144Y-94858275D01*
X106055097Y-94847220D01*
X105992547Y-94841976D01*
X105940150Y-94842135D01*
X105885558Y-94847285D01*
X105816425Y-94857017D01*
X105795402Y-94860121D01*
X105623035Y-94905604D01*
X105465069Y-94985403D01*
X105414164Y-95022020D01*
X105382479Y-95050660D01*
X99801122Y-95050660D01*
X99798248Y-95047052D01*
X99731794Y-95002556D01*
X99654911Y-94972069D01*
X99624929Y-94966233D01*
X99558783Y-94952541D01*
X99513316Y-94935706D01*
X99459088Y-94919268D01*
X99403285Y-94913789D01*
X99336145Y-94905892D01*
X99313894Y-94882154D01*
X99329390Y-94850456D01*
X99379078Y-94823829D01*
X99451074Y-94821779D01*
X99527421Y-94843389D01*
X99560861Y-94862257D01*
X99633688Y-94907831D01*
X99679106Y-94921509D01*
X99704747Y-94903693D01*
X99715489Y-94870401D01*
X99748888Y-94714761D01*
X99777063Y-94604773D01*
X99800497Y-94538776D01*
X99818494Y-94515410D01*
X99849450Y-94525484D01*
X99899879Y-94560858D01*
X99934388Y-94591070D01*
X99988736Y-94639109D01*
X100029900Y-94669697D01*
X100043014Y-94675515D01*
X100071953Y-94659403D01*
X100076113Y-94628844D01*
X100065303Y-94616187D01*
X100041972Y-94585592D01*
X100056199Y-94560601D01*
X100076828Y-94556378D01*
X100108524Y-94570085D01*
X100112569Y-94581795D01*
X100129301Y-94631294D01*
X100171898Y-94686179D01*
X100228965Y-94737423D01*
X100289106Y-94776000D01*
X100340926Y-94792883D01*
X100368735Y-94784703D01*
X100363763Y-94758372D01*
X100334728Y-94701952D01*
X100286621Y-94623123D01*
X100224434Y-94529567D01*
X100153162Y-94428964D01*
X100077795Y-94328997D01*
X100048481Y-94291977D01*
X99971405Y-94193039D01*
X99892826Y-94087081D01*
X99826886Y-93993299D01*
X99813119Y-93972607D01*
X99762503Y-93896135D01*
X99719047Y-93832137D01*
X99692020Y-93794262D01*
X99691739Y-93793901D01*
X99665184Y-93760293D01*
X99617250Y-93699974D01*
X99556316Y-93623460D01*
X99490755Y-93541266D01*
X99428946Y-93463906D01*
X99410728Y-93441141D01*
X99288957Y-93310185D01*
X99158299Y-93207050D01*
X99026816Y-93136794D01*
X98902568Y-93104474D01*
X98871630Y-93102907D01*
X98775038Y-93113925D01*
X98703901Y-93151831D01*
X98649329Y-93223903D01*
X98609195Y-93317850D01*
X98583281Y-93410981D01*
X98568641Y-93518766D01*
X98563437Y-93656020D01*
X98563363Y-93686678D01*
X98561392Y-93796983D01*
X98555735Y-93896719D01*
X98547391Y-93971351D01*
X98542019Y-93996434D01*
X98532696Y-94014040D01*
X98526023Y-93994333D01*
X98521693Y-93934321D01*
X98519404Y-93831011D01*
X98518960Y-93770074D01*
X98523988Y-93577766D01*
X98542190Y-93424370D01*
X98575505Y-93302486D01*
X98625870Y-93204717D01*
X98685894Y-93132691D01*
X98772287Y-93072301D01*
X98870911Y-93052988D01*
X98985930Y-93074719D01*
X99107150Y-93129478D01*
X99228457Y-93206693D01*
X99344672Y-93304918D01*
X99462473Y-93430882D01*
X99588544Y-93591315D01*
X99648501Y-93674764D01*
X99765871Y-93841705D01*
X99858935Y-93973907D01*
X99930741Y-94075653D01*
X99984340Y-94151225D01*
X100022782Y-94204904D01*
X100049116Y-94240973D01*
X100066392Y-94263715D01*
X100077660Y-94277410D01*
X100077988Y-94277784D01*
X100129267Y-94340786D01*
X100198884Y-94432647D01*
X100279030Y-94542387D01*
X100361893Y-94659026D01*
X100439664Y-94771583D01*
X100504530Y-94869078D01*
X100545540Y-94935075D01*
X100592570Y-95015929D01*
X100811247Y-94996802D01*
X100987941Y-94983361D01*
X101133520Y-94977743D01*
X101263912Y-94980168D01*
X101395048Y-94990854D01*
X101518386Y-95006510D01*
X101723735Y-95029199D01*
X101893238Y-95033020D01*
X102035030Y-95017447D01*
X102157248Y-94981953D01*
X102201958Y-94962311D01*
X102287163Y-94933184D01*
X102407590Y-94912417D01*
X102545795Y-94900261D01*
X102657696Y-94893879D01*
X102735441Y-94892715D01*
X102792418Y-94898762D01*
X102842015Y-94914014D01*
X102897621Y-94940463D01*
X102929831Y-94957431D01*
X103021822Y-95000781D01*
X103091790Y-95018760D01*
X103147655Y-95016868D01*
X103226197Y-95015841D01*
X103310401Y-95030804D01*
X103319156Y-95033521D01*
X103379321Y-95050298D01*
X103415998Y-95044914D01*
X103450308Y-95011960D01*
X103462562Y-94996812D01*
X103515611Y-94930282D01*
X103750066Y-94950016D01*
X103891716Y-94961352D01*
X103994666Y-94967214D01*
X104067644Y-94966776D01*
X104119377Y-94959213D01*
X104158593Y-94943697D01*
X104194020Y-94919403D01*
X104209736Y-94906495D01*
X104283402Y-94834498D01*
X104325587Y-94785821D01*
X105004239Y-94785821D01*
X105032258Y-94783942D01*
X105084958Y-94760911D01*
X105149091Y-94724425D01*
X105211405Y-94682182D01*
X105258654Y-94641879D01*
X105265893Y-94633817D01*
X105311252Y-94589485D01*
X105339512Y-94588787D01*
X105352841Y-94632741D01*
X105354596Y-94675515D01*
X105348458Y-94738138D01*
X105332482Y-94769409D01*
X105327438Y-94770825D01*
X105293250Y-94788652D01*
X105256679Y-94828155D01*
X105236612Y-94868365D01*
X105236216Y-94872091D01*
X105255750Y-94888507D01*
X105312917Y-94885561D01*
X105402209Y-94864136D01*
X105509474Y-94828318D01*
X105646819Y-94782781D01*
X105770912Y-94751168D01*
X105873986Y-94734749D01*
X105948273Y-94734795D01*
X105984630Y-94750614D01*
X106030776Y-94778622D01*
X106085368Y-94777184D01*
X106109235Y-94762777D01*
X106107831Y-94737833D01*
X106086588Y-94719918D01*
X106055459Y-94691905D01*
X106068594Y-94669944D01*
X106122783Y-94655932D01*
X106201874Y-94651688D01*
X106273203Y-94647730D01*
X106320291Y-94637532D01*
X106331519Y-94627860D01*
X106309815Y-94615168D01*
X106253118Y-94606564D01*
X106188554Y-94604033D01*
X106113149Y-94601293D01*
X106061345Y-94594170D01*
X106045590Y-94585937D01*
X106067398Y-94553848D01*
X106124876Y-94526379D01*
X106206107Y-94505631D01*
X106299172Y-94493705D01*
X106392155Y-94492702D01*
X106473136Y-94504724D01*
X106485407Y-94508396D01*
X106559916Y-94525402D01*
X106610878Y-94522578D01*
X106630522Y-94502029D01*
X106617213Y-94472700D01*
X106569986Y-94442066D01*
X106537091Y-94434778D01*
X106521860Y-94428795D01*
X106550666Y-94415811D01*
X106575749Y-94408584D01*
X106637689Y-94385696D01*
X106663068Y-94363078D01*
X106648999Y-94346647D01*
X106608274Y-94341931D01*
X106548904Y-94320760D01*
X106513164Y-94283505D01*
X106484650Y-94250171D01*
X106444854Y-94231082D01*
X106379628Y-94221291D01*
X106325761Y-94217980D01*
X106176641Y-94210881D01*
X106268903Y-94169183D01*
X106348017Y-94141933D01*
X106425356Y-94127967D01*
X106438096Y-94127485D01*
X106506345Y-94120985D01*
X106577083Y-94104670D01*
X106634813Y-94083319D01*
X106664037Y-94061710D01*
X106665102Y-94057497D01*
X106644035Y-94032381D01*
X106591368Y-94008064D01*
X106522899Y-93990262D01*
X106463397Y-93984521D01*
X106380325Y-93977902D01*
X106325072Y-93960128D01*
X106307691Y-93937578D01*
X106328403Y-93921056D01*
X106381795Y-93897437D01*
X106432785Y-93879557D01*
X106542235Y-93838521D01*
X106609348Y-93799807D01*
X106632997Y-93765052D01*
X106612059Y-93735894D01*
X106546461Y-93714179D01*
X106489411Y-93694417D01*
X106479082Y-93670579D01*
X106515396Y-93647579D01*
X106547669Y-93638649D01*
X106597831Y-93622937D01*
X106603501Y-93609017D01*
X106567841Y-93598308D01*
X106494012Y-93592229D01*
X106442343Y-93591369D01*
X106295778Y-93591369D01*
X106301825Y-93513930D01*
X106297506Y-93455277D01*
X106286706Y-93446321D01*
X106361401Y-93446321D01*
X106367050Y-93457184D01*
X106404829Y-93459230D01*
X106460057Y-93452575D01*
X106492354Y-93445300D01*
X106538767Y-93426629D01*
X106543287Y-93411613D01*
X106511625Y-93406061D01*
X106460682Y-93413089D01*
X106400851Y-93429300D01*
X106364014Y-93444292D01*
X106361401Y-93446321D01*
X106286706Y-93446321D01*
X106277531Y-93438712D01*
X106249872Y-93466407D01*
X106236213Y-93496048D01*
X106200281Y-93549454D01*
X106143968Y-93597874D01*
X106140199Y-93600225D01*
X106095426Y-93631905D01*
X106090309Y-93651095D01*
X106103864Y-93659057D01*
X106138027Y-93685125D01*
X106129351Y-93713692D01*
X106081198Y-93735577D01*
X106075374Y-93736838D01*
X106010254Y-93760052D01*
X105954079Y-93796552D01*
X105918973Y-93836329D01*
X105916276Y-93868193D01*
X105916073Y-93885527D01*
X105877657Y-93882036D01*
X105868537Y-93879841D01*
X105823559Y-93872568D01*
X105812711Y-93887567D01*
X105817610Y-93907934D01*
X105809089Y-93953954D01*
X105764951Y-94019767D01*
X105689989Y-94099914D01*
X105589001Y-94188935D01*
X105530282Y-94235038D01*
X105444456Y-94304477D01*
X105352216Y-94386533D01*
X105259656Y-94474830D01*
X105172867Y-94562986D01*
X105097942Y-94644625D01*
X105040974Y-94713366D01*
X105008055Y-94762830D01*
X105004239Y-94785821D01*
X104325587Y-94785821D01*
X104342536Y-94766264D01*
X104433444Y-94766264D01*
X104457702Y-94768755D01*
X104504918Y-94749385D01*
X104533389Y-94732343D01*
X104575871Y-94693736D01*
X104592119Y-94659255D01*
X104608154Y-94635360D01*
X104637360Y-94639008D01*
X104670977Y-94637955D01*
X104706466Y-94607383D01*
X104750540Y-94543062D01*
X104802986Y-94463229D01*
X104858038Y-94387319D01*
X104880162Y-94359674D01*
X104917966Y-94310516D01*
X104926229Y-94279949D01*
X104908484Y-94252256D01*
X104905120Y-94248736D01*
X104884114Y-94233136D01*
X104860252Y-94235696D01*
X104825348Y-94261483D01*
X104771218Y-94315560D01*
X104735265Y-94353845D01*
X104660707Y-94438165D01*
X104589361Y-94525979D01*
X104535781Y-94599311D01*
X104532686Y-94604033D01*
X104489186Y-94670477D01*
X104453998Y-94722975D01*
X104441364Y-94741040D01*
X104433444Y-94766264D01*
X104342536Y-94766264D01*
X104373231Y-94730846D01*
X104471409Y-94605065D01*
X104568105Y-94469638D01*
X104631265Y-94383972D01*
X104708538Y-94288560D01*
X104766018Y-94223043D01*
X104824060Y-94157302D01*
X105443575Y-94157302D01*
X105448302Y-94174038D01*
X105479204Y-94164365D01*
X105524177Y-94130000D01*
X105552156Y-94093488D01*
X105550472Y-94071166D01*
X105521057Y-94077375D01*
X105478487Y-94110684D01*
X105473043Y-94116306D01*
X105443575Y-94157302D01*
X104824060Y-94157302D01*
X104833102Y-94147061D01*
X104894478Y-94072206D01*
X104898411Y-94066894D01*
X104973357Y-94066894D01*
X104991754Y-94079489D01*
X104997185Y-94079830D01*
X105020330Y-94062760D01*
X105021012Y-94057452D01*
X105035551Y-94028810D01*
X105073316Y-93977064D01*
X105116322Y-93924952D01*
X105173614Y-93857384D01*
X105202864Y-93817823D01*
X105208152Y-93799074D01*
X105193559Y-93793944D01*
X105190667Y-93793901D01*
X105168487Y-93811317D01*
X105128102Y-93855634D01*
X105078979Y-93914957D01*
X105030588Y-93977391D01*
X104992396Y-94031043D01*
X104973872Y-94064018D01*
X104973357Y-94066894D01*
X104898411Y-94066894D01*
X104932809Y-94020440D01*
X105023453Y-93894339D01*
X105135017Y-93752937D01*
X105611691Y-93752937D01*
X105644605Y-93768799D01*
X105668307Y-93770074D01*
X105704105Y-93781613D01*
X105704284Y-93803486D01*
X105701966Y-93842988D01*
X105707691Y-93853317D01*
X105719631Y-93842300D01*
X105731711Y-93795800D01*
X105733756Y-93781988D01*
X105831143Y-93781988D01*
X105843057Y-93793901D01*
X105854971Y-93781988D01*
X105843057Y-93770074D01*
X105831143Y-93781988D01*
X105733756Y-93781988D01*
X105736834Y-93761191D01*
X105764750Y-93657387D01*
X105806513Y-93592223D01*
X105853891Y-93551190D01*
X105893446Y-93531994D01*
X105896272Y-93531800D01*
X105918287Y-93520121D01*
X105915843Y-93510081D01*
X105886724Y-93501642D01*
X105838245Y-93512975D01*
X105789964Y-93536358D01*
X105761444Y-93564068D01*
X105759661Y-93571749D01*
X105742405Y-93603583D01*
X105699036Y-93648611D01*
X105677790Y-93666577D01*
X105622751Y-93718887D01*
X105611691Y-93752937D01*
X105135017Y-93752937D01*
X105140782Y-93745630D01*
X105276537Y-93584109D01*
X105422457Y-93419570D01*
X105457297Y-93382389D01*
X106188554Y-93382389D01*
X106195026Y-93405581D01*
X106221625Y-93391032D01*
X106224295Y-93388836D01*
X106254228Y-93354816D01*
X106260037Y-93339011D01*
X106242454Y-93328411D01*
X106224295Y-93332564D01*
X106192602Y-93364196D01*
X106188554Y-93382389D01*
X105457297Y-93382389D01*
X105547903Y-93285694D01*
X106385636Y-93285694D01*
X106395274Y-93301665D01*
X106428750Y-93300143D01*
X106467258Y-93284909D01*
X106489413Y-93264819D01*
X106481489Y-93250088D01*
X106449210Y-93249825D01*
X106402788Y-93266885D01*
X106385636Y-93285694D01*
X105547903Y-93285694D01*
X105570285Y-93261808D01*
X105587243Y-93244328D01*
X105704749Y-93126299D01*
X105800565Y-93037006D01*
X105883870Y-92968880D01*
X105963843Y-92914351D01*
X106031192Y-92875957D01*
X106188554Y-92875957D01*
X106209021Y-92888185D01*
X106267620Y-92879284D01*
X106360149Y-92850007D01*
X106384875Y-92840818D01*
X106477050Y-92813045D01*
X106570847Y-92795868D01*
X106611491Y-92793163D01*
X106673339Y-92788162D01*
X106709169Y-92775601D01*
X106712757Y-92769324D01*
X106692079Y-92752488D01*
X106642437Y-92745496D01*
X106578486Y-92751652D01*
X106494683Y-92767854D01*
X106402853Y-92790703D01*
X106314821Y-92816800D01*
X106242415Y-92842746D01*
X106197459Y-92865141D01*
X106188554Y-92875957D01*
X106031192Y-92875957D01*
X106039964Y-92870956D01*
X106256324Y-92767994D01*
X106446801Y-92703024D01*
X106613748Y-92675648D01*
X106759515Y-92685470D01*
G37*
G36*
X104432935Y-100413389D02*
G01*
X104444389Y-100422682D01*
X104470973Y-100463198D01*
X104460226Y-100485512D01*
X104420530Y-100484900D01*
X104371716Y-100463663D01*
X104337349Y-100433787D01*
X104330018Y-100416732D01*
X104348298Y-100397371D01*
X104389449Y-100396613D01*
X104432935Y-100413389D01*
G37*
G36*
X98233708Y-100232009D02*
G01*
X98323859Y-100246101D01*
X98379036Y-100273249D01*
X98395205Y-100309485D01*
X98368334Y-100350842D01*
X98360730Y-100356949D01*
X98298393Y-100384498D01*
X98224317Y-100392208D01*
X98160316Y-100379236D01*
X98139661Y-100365496D01*
X98116773Y-100320053D01*
X98111068Y-100280855D01*
X98114771Y-100248208D01*
X98133855Y-100232685D01*
X98180280Y-100229522D01*
X98233708Y-100232009D01*
G37*
G36*
X99952527Y-100129206D02*
G01*
X99955729Y-100152615D01*
X99917033Y-100179421D01*
X99891193Y-100191009D01*
X99819422Y-100215160D01*
X99756334Y-100226669D01*
X99715576Y-100223823D01*
X99707504Y-100214044D01*
X99727309Y-100197712D01*
X99777931Y-100170522D01*
X99817258Y-100152241D01*
X99894467Y-100123720D01*
X99940196Y-100121708D01*
X99952527Y-100129206D01*
G37*
G36*
X97944004Y-100031286D02*
G01*
X97944277Y-100036678D01*
X97925959Y-100059590D01*
X97919043Y-100060506D01*
X97904813Y-100045908D01*
X97908536Y-100036678D01*
X97929947Y-100013947D01*
X97933769Y-100012851D01*
X97944004Y-100031286D01*
G37*
G36*
X104932377Y-99855006D02*
G01*
X105009287Y-99860190D01*
X105027313Y-99862513D01*
X105083443Y-99874208D01*
X105099896Y-99889638D01*
X105088484Y-99910459D01*
X105060489Y-99928089D01*
X105007365Y-99937472D01*
X104920386Y-99939648D01*
X104855823Y-99938179D01*
X104757355Y-99937295D01*
X104673853Y-99940762D01*
X104619341Y-99947859D01*
X104610190Y-99950833D01*
X104570313Y-99954042D01*
X104553635Y-99930899D01*
X104548618Y-99889244D01*
X104554735Y-99875500D01*
X104586470Y-99866391D01*
X104652963Y-99859433D01*
X104741353Y-99854981D01*
X104838779Y-99853387D01*
X104932377Y-99855006D01*
G37*
G36*
X104758911Y-99477103D02*
G01*
X104837894Y-99489109D01*
X104929033Y-99501613D01*
X104949530Y-99504222D01*
X105021540Y-99517577D01*
X105075427Y-99535298D01*
X105086967Y-99542134D01*
X105135007Y-99563752D01*
X105168438Y-99569361D01*
X105218452Y-99592548D01*
X105257917Y-99641031D01*
X105303876Y-99695008D01*
X105377844Y-99730050D01*
X105405095Y-99737682D01*
X105482644Y-99763830D01*
X105548766Y-99797264D01*
X105597339Y-99832344D01*
X105622245Y-99863427D01*
X105617363Y-99884871D01*
X105576575Y-99891035D01*
X105571028Y-99890656D01*
X105529308Y-99881160D01*
X105459925Y-99859698D01*
X105396294Y-99837526D01*
X105324188Y-99806703D01*
X105274557Y-99776937D01*
X105259286Y-99757784D01*
X105239656Y-99734041D01*
X105191017Y-99701253D01*
X105128746Y-99667720D01*
X105068220Y-99641742D01*
X105025533Y-99631613D01*
X104993516Y-99618068D01*
X104944430Y-99584988D01*
X104938355Y-99580282D01*
X104891242Y-99547418D01*
X104856229Y-99543577D01*
X104809379Y-99566596D01*
X104806372Y-99568368D01*
X104725066Y-99602808D01*
X104664003Y-99600369D01*
X104628366Y-99561376D01*
X104626916Y-99557156D01*
X104627132Y-99504808D01*
X104666520Y-99476762D01*
X104742311Y-99474700D01*
X104758911Y-99477103D01*
G37*
G36*
X100114303Y-99805183D02*
G01*
X100136368Y-99821561D01*
X100136397Y-99822232D01*
X100116050Y-99840299D01*
X100078235Y-99846059D01*
X100027782Y-99837274D01*
X100005346Y-99822232D01*
X100014657Y-99805356D01*
X100061015Y-99798416D01*
X100063508Y-99798404D01*
X100114303Y-99805183D01*
G37*
G36*
X99870841Y-99783725D02*
G01*
X99913911Y-99792361D01*
X99921950Y-99800062D01*
X99900518Y-99812709D01*
X99845719Y-99820736D01*
X99802813Y-99822232D01*
X99734883Y-99819017D01*
X99691833Y-99810798D01*
X99683863Y-99804361D01*
X99705424Y-99793379D01*
X99760332Y-99784928D01*
X99803000Y-99782191D01*
X99870841Y-99783725D01*
G37*
G36*
X106047740Y-99763992D02*
G01*
X106068948Y-99794885D01*
X106069417Y-99799810D01*
X106050684Y-99817757D01*
X106010494Y-99821194D01*
X105972859Y-99809875D01*
X105963737Y-99800901D01*
X105969498Y-99777639D01*
X106001740Y-99760997D01*
X106039362Y-99760246D01*
X106047740Y-99763992D01*
G37*
G36*
X100314892Y-99388459D02*
G01*
X100328195Y-99432403D01*
X100322542Y-99481992D01*
X100297179Y-99517875D01*
X100289326Y-99521840D01*
X100233197Y-99535275D01*
X100200372Y-99518500D01*
X100194561Y-99510204D01*
X100192102Y-99467561D01*
X100216405Y-99417256D01*
X100255117Y-99378849D01*
X100283387Y-99369511D01*
X100314892Y-99388459D01*
G37*
G36*
X98603907Y-99397929D02*
G01*
X98659109Y-99412090D01*
X98669329Y-99436404D01*
X98635476Y-99471452D01*
X98630368Y-99475104D01*
X98544896Y-99508044D01*
X98453712Y-99498476D01*
X98402954Y-99472578D01*
X98360207Y-99436210D01*
X98357197Y-99412139D01*
X98396261Y-99398513D01*
X98479735Y-99393478D01*
X98502814Y-99393339D01*
X98603907Y-99397929D01*
G37*
G36*
X98885103Y-99483004D02*
G01*
X98928190Y-99491039D01*
X98945027Y-99503340D01*
X98924247Y-99509712D01*
X98874059Y-99512472D01*
X98872139Y-99512476D01*
X98825583Y-99506806D01*
X98811385Y-99493037D01*
X98812002Y-99491844D01*
X98838675Y-99482607D01*
X98885103Y-99483004D01*
G37*
G36*
X99973025Y-99455515D02*
G01*
X99981519Y-99464821D01*
X99974223Y-99483575D01*
X99947184Y-99488648D01*
X99907708Y-99478927D01*
X99898123Y-99464821D01*
X99917320Y-99443450D01*
X99932458Y-99440993D01*
X99973025Y-99455515D01*
G37*
G36*
X104460798Y-99063146D02*
G01*
X104478334Y-99073049D01*
X104480081Y-99102189D01*
X104465972Y-99154290D01*
X104465167Y-99156445D01*
X104424781Y-99211962D01*
X104368007Y-99226650D01*
X104306239Y-99198399D01*
X104294849Y-99187974D01*
X104269534Y-99155504D01*
X104278188Y-99126609D01*
X104296840Y-99104578D01*
X104344106Y-99074801D01*
X104406194Y-99059699D01*
X104460798Y-99063146D01*
G37*
G36*
X100571996Y-99012937D02*
G01*
X100604517Y-99052840D01*
X100608434Y-99090908D01*
X100585518Y-99137909D01*
X100542777Y-99147068D01*
X100491138Y-99116946D01*
X100482021Y-99107550D01*
X100452735Y-99068812D01*
X100456696Y-99041298D01*
X100474750Y-99020946D01*
X100523033Y-98999319D01*
X100571996Y-99012937D01*
G37*
G36*
X100086879Y-98570778D02*
G01*
X100106895Y-98611974D01*
X100117394Y-98664131D01*
X100109805Y-98706311D01*
X100081870Y-98720834D01*
X100050804Y-98698789D01*
X100050720Y-98698653D01*
X100029642Y-98644334D01*
X100027845Y-98593023D01*
X100044747Y-98562141D01*
X100055374Y-98559380D01*
X100086879Y-98570778D01*
G37*
G36*
X100387153Y-98342798D02*
G01*
X100398498Y-98376770D01*
X100384777Y-98406077D01*
X100351422Y-98453230D01*
X100310143Y-98503847D01*
X100272651Y-98543548D01*
X100250920Y-98558012D01*
X100227656Y-98546483D01*
X100178527Y-98519387D01*
X100160224Y-98508996D01*
X100086984Y-98477689D01*
X100008169Y-98471338D01*
X99963648Y-98475443D01*
X99898013Y-98479729D01*
X99857168Y-98474910D01*
X99850468Y-98468697D01*
X99868256Y-98443535D01*
X99913195Y-98404122D01*
X99938823Y-98384989D01*
X99995806Y-98347540D01*
X100032723Y-98336480D01*
X100066752Y-98348470D01*
X100080949Y-98357356D01*
X100166904Y-98390019D01*
X100253827Y-98375191D01*
X100291065Y-98354793D01*
X100348275Y-98331449D01*
X100387153Y-98342798D01*
G37*
G36*
X104658940Y-98250351D02*
G01*
X104675905Y-98269880D01*
X104673841Y-98276160D01*
X104639654Y-98294543D01*
X104591053Y-98294089D01*
X104557636Y-98275486D01*
X104562779Y-98249883D01*
X104574100Y-98243623D01*
X104618683Y-98239536D01*
X104658940Y-98250351D01*
G37*
G36*
X105633565Y-97968215D02*
G01*
X105637641Y-98004703D01*
X105626373Y-98028458D01*
X105584197Y-98071813D01*
X105542478Y-98067564D01*
X105523828Y-98050031D01*
X105510565Y-98019077D01*
X105534440Y-97988778D01*
X105549065Y-97977976D01*
X105600356Y-97956900D01*
X105633565Y-97968215D01*
G37*
G36*
X98953174Y-97902072D02*
G01*
X98988896Y-97914014D01*
X99050490Y-97935397D01*
X99086425Y-97939868D01*
X99122001Y-97950468D01*
X99138086Y-97971802D01*
X99124757Y-97988171D01*
X99117776Y-97989458D01*
X99011638Y-98003599D01*
X98939584Y-98019948D01*
X98933113Y-98021998D01*
X98880326Y-98021900D01*
X98855674Y-98007795D01*
X98829560Y-97965774D01*
X98825890Y-97947470D01*
X98846174Y-97917840D01*
X98894742Y-97901447D01*
X98953174Y-97902072D01*
G37*
G36*
X105987890Y-97929536D02*
G01*
X105997935Y-97950124D01*
X105977382Y-97980480D01*
X105936381Y-97987522D01*
X105891380Y-97978132D01*
X105884636Y-97957738D01*
X105911143Y-97929605D01*
X105952516Y-97919737D01*
X105987890Y-97929536D01*
G37*
G36*
X105735834Y-97877750D02*
G01*
X105716536Y-97914099D01*
X105698144Y-97925405D01*
X105656171Y-97938172D01*
X105651804Y-97924140D01*
X105669881Y-97892213D01*
X105704224Y-97851886D01*
X105728602Y-97849849D01*
X105735834Y-97877750D01*
G37*
G36*
X99358410Y-97677438D02*
G01*
X99397169Y-97686937D01*
X99479557Y-97715999D01*
X99519453Y-97740723D01*
X99515769Y-97758893D01*
X99467415Y-97768293D01*
X99437538Y-97769105D01*
X99361231Y-97761948D01*
X99309510Y-97743304D01*
X99301656Y-97736393D01*
X99282149Y-97696196D01*
X99302543Y-97675780D01*
X99358410Y-97677438D01*
G37*
G36*
X106278626Y-97620402D02*
G01*
X106251622Y-97660573D01*
X106236209Y-97677766D01*
X106186407Y-97728061D01*
X106156853Y-97746347D01*
X106137255Y-97737199D01*
X106128986Y-97725421D01*
X106125359Y-97685920D01*
X106158527Y-97658888D01*
X106189961Y-97653939D01*
X106227909Y-97643690D01*
X106236209Y-97630112D01*
X106255334Y-97608582D01*
X106269596Y-97606284D01*
X106278626Y-97620402D01*
G37*
G36*
X99379177Y-95313551D02*
G01*
X99423733Y-95346828D01*
X99473429Y-95393744D01*
X99516035Y-95442449D01*
X99539320Y-95481088D01*
X99540712Y-95488641D01*
X99521369Y-95507137D01*
X99504971Y-95509474D01*
X99473130Y-95499776D01*
X99469079Y-95491603D01*
X99450352Y-95468995D01*
X99404747Y-95437301D01*
X99397597Y-95433143D01*
X99343645Y-95388869D01*
X99326775Y-95343587D01*
X99350385Y-95306788D01*
X99351994Y-95305766D01*
X99379177Y-95313551D01*
G37*
G36*
X99462042Y-95109440D02*
G01*
X99469230Y-95129642D01*
X99454238Y-95150619D01*
X99424092Y-95143162D01*
X99408682Y-95126650D01*
X99402247Y-95094562D01*
X99405690Y-95088523D01*
X99433559Y-95086727D01*
X99462042Y-95109440D01*
G37*
G36*
X98655181Y-94767819D02*
G01*
X98664017Y-94817364D01*
X98664152Y-94818282D01*
X98662032Y-94885160D01*
X98643221Y-94932567D01*
X98624886Y-94951193D01*
X98619001Y-94938032D01*
X98623904Y-94886406D01*
X98626703Y-94866134D01*
X98638607Y-94789541D01*
X98647405Y-94757657D01*
X98655181Y-94767819D01*
G37*
G36*
X98802063Y-94687429D02*
G01*
X98790149Y-94699342D01*
X98778235Y-94687429D01*
X98790149Y-94675515D01*
X98802063Y-94687429D01*
G37*
G36*
X99814133Y-94283650D02*
G01*
X99858430Y-94315032D01*
X99918607Y-94369931D01*
X99967622Y-94409949D01*
X100009175Y-94458081D01*
X100010067Y-94493098D01*
X99995171Y-94520329D01*
X99974264Y-94524983D01*
X99940068Y-94503418D01*
X99885307Y-94451993D01*
X99844202Y-94410092D01*
X99785038Y-94345958D01*
X99757662Y-94306553D01*
X99758161Y-94285043D01*
X99768768Y-94278415D01*
X99814133Y-94283650D01*
G37*
G36*
X98544330Y-94146150D02*
G01*
X98562535Y-94176479D01*
X98560215Y-94186656D01*
X98535320Y-94185919D01*
X98532019Y-94183082D01*
X98516309Y-94146400D01*
X98516134Y-94142576D01*
X98528223Y-94133716D01*
X98544330Y-94146150D01*
G37*
G36*
X99272033Y-93456988D02*
G01*
X99332604Y-93509751D01*
X99359830Y-93550377D01*
X99395700Y-93603985D01*
X99451271Y-93672103D01*
X99491647Y-93716083D01*
X99548071Y-93784352D01*
X99588591Y-93852412D01*
X99609497Y-93910615D01*
X99607077Y-93949315D01*
X99585388Y-93959739D01*
X99541439Y-93948222D01*
X99490984Y-93925272D01*
X99410449Y-93870910D01*
X99339582Y-93804660D01*
X99290318Y-93739022D01*
X99274894Y-93698948D01*
X99254958Y-93650582D01*
X99230956Y-93631058D01*
X99208139Y-93628726D01*
X99222248Y-93653019D01*
X99246178Y-93699474D01*
X99265810Y-93763981D01*
X99265839Y-93764117D01*
X99269540Y-93822286D01*
X99247345Y-93840532D01*
X99199416Y-93818829D01*
X99152908Y-93781854D01*
X99107896Y-93731740D01*
X99098105Y-93684151D01*
X99101879Y-93663470D01*
X99124373Y-93618467D01*
X99150143Y-93603282D01*
X99175433Y-93581162D01*
X99183301Y-93519886D01*
X99189678Y-93464770D01*
X99205357Y-93437213D01*
X99208695Y-93436491D01*
X99272033Y-93456988D01*
G37*
G36*
X98706061Y-93645242D02*
G01*
X98706753Y-93650937D01*
X98688621Y-93674072D01*
X98682926Y-93674764D01*
X98659791Y-93656632D01*
X98659098Y-93650937D01*
X98677231Y-93627802D01*
X98682926Y-93627110D01*
X98706061Y-93645242D01*
G37*
G36*
X98843372Y-93407157D02*
G01*
X98895566Y-93439533D01*
X98953957Y-93485131D01*
X99005320Y-93533201D01*
X99036429Y-93572997D01*
X99040298Y-93585412D01*
X99024617Y-93602405D01*
X98980660Y-93586029D01*
X98955612Y-93569891D01*
X98892480Y-93539374D01*
X98849044Y-93528193D01*
X98804307Y-93505413D01*
X98781085Y-93464006D01*
X98784619Y-93421627D01*
X98810600Y-93398748D01*
X98843372Y-93407157D01*
G37*
G36*
X104653780Y-103602713D02*
G01*
X104696703Y-103641893D01*
X104747466Y-103692383D01*
X104794120Y-103742062D01*
X104824714Y-103778814D01*
X104830393Y-103789520D01*
X104814600Y-103804218D01*
X104774900Y-103792052D01*
X104722808Y-103758034D01*
X104689262Y-103728091D01*
X104643083Y-103672761D01*
X104617516Y-103624004D01*
X104617105Y-103592755D01*
X104630648Y-103586960D01*
X104653780Y-103602713D01*
G37*
G36*
X101564226Y-97936140D02*
G01*
X101591963Y-97982245D01*
X101605480Y-98033062D01*
X101600546Y-98061004D01*
X101567039Y-98082709D01*
X101527567Y-98064655D01*
X101498080Y-98021478D01*
X101481319Y-97957779D01*
X101500899Y-97922577D01*
X101532295Y-97916040D01*
X101564226Y-97936140D01*
G37*
G36*
X102513540Y-96878193D02*
G01*
X102542963Y-96903376D01*
X102579034Y-96949926D01*
X102590618Y-96986433D01*
X102598936Y-97009652D01*
X102630842Y-97021395D01*
X102696766Y-97024649D01*
X102723304Y-97024438D01*
X102799473Y-97021631D01*
X102840882Y-97012027D01*
X102860419Y-96989595D01*
X102869432Y-96956057D01*
X102888821Y-96907774D01*
X102913141Y-96902434D01*
X102934559Y-96937068D01*
X102943698Y-96984207D01*
X102938574Y-97065235D01*
X102902991Y-97109807D01*
X102835989Y-97118892D01*
X102813679Y-97115632D01*
X102752923Y-97115117D01*
X102730862Y-97139828D01*
X102750572Y-97184642D01*
X102763367Y-97199431D01*
X102781202Y-97227708D01*
X102763367Y-97241924D01*
X102739642Y-97271602D01*
X102733583Y-97305662D01*
X102720152Y-97360855D01*
X102688651Y-97403683D01*
X102661028Y-97415665D01*
X102635097Y-97399772D01*
X102609243Y-97373967D01*
X102580644Y-97322746D01*
X102558663Y-97252367D01*
X102556815Y-97242916D01*
X102538091Y-97179688D01*
X102508465Y-97154867D01*
X102496215Y-97153564D01*
X102453369Y-97139692D01*
X102440460Y-97123780D01*
X102422037Y-97112871D01*
X102391118Y-97141650D01*
X102363080Y-97172343D01*
X102341388Y-97170537D01*
X102308780Y-97133832D01*
X102305517Y-97129736D01*
X102269778Y-97065803D01*
X102258166Y-97003050D01*
X102272897Y-96957693D01*
X102281075Y-96950899D01*
X102328616Y-96944209D01*
X102375502Y-96966634D01*
X102399672Y-97006802D01*
X102399999Y-97012205D01*
X102409930Y-97050049D01*
X102422988Y-97058254D01*
X102453768Y-97037554D01*
X102480690Y-96987421D01*
X102494808Y-96925803D01*
X102495309Y-96913163D01*
X102497850Y-96877154D01*
X102513540Y-96878193D01*
G37*
G36*
X102467449Y-97237912D02*
G01*
X102471481Y-97248873D01*
X102452182Y-97270012D01*
X102435740Y-97272701D01*
X102404031Y-97259835D01*
X102399999Y-97248873D01*
X102419298Y-97227734D01*
X102435740Y-97225046D01*
X102467449Y-97237912D01*
G37*
G36*
X103382891Y-96897423D02*
G01*
X103406140Y-96926140D01*
X103412663Y-96962945D01*
X103400574Y-97010316D01*
X103373584Y-97029814D01*
X103345605Y-97014346D01*
X103338644Y-97000667D01*
X103332986Y-96950102D01*
X103349008Y-96909439D01*
X103379103Y-96896424D01*
X103382891Y-96897423D01*
G37*
G36*
X103492856Y-96727457D02*
G01*
X103485125Y-96746913D01*
X103450491Y-96771260D01*
X103415307Y-96752434D01*
X103412559Y-96748330D01*
X103417870Y-96721226D01*
X103436008Y-96709645D01*
X103479198Y-96704940D01*
X103492856Y-96727457D01*
G37*
G36*
X103416695Y-96215765D02*
G01*
X103424577Y-96260037D01*
X103436018Y-96306465D01*
X103457539Y-96319605D01*
X103488506Y-96341138D01*
X103511060Y-96396720D01*
X103519561Y-96468526D01*
X103507748Y-96505060D01*
X103474010Y-96503146D01*
X103422216Y-96464406D01*
X103367879Y-96404948D01*
X103311903Y-96332279D01*
X103287163Y-96284585D01*
X103291618Y-96252730D01*
X103323226Y-96227578D01*
X103327701Y-96225134D01*
X103386250Y-96202550D01*
X103416695Y-96215765D01*
G37*
G36*
X101591466Y-96287845D02*
G01*
X101600792Y-96324808D01*
X101592661Y-96380547D01*
X101572739Y-96432170D01*
X101549806Y-96456067D01*
X101521217Y-96444741D01*
X101508867Y-96424478D01*
X101508549Y-96383099D01*
X101526881Y-96335539D01*
X101554597Y-96297126D01*
X101582430Y-96283188D01*
X101591466Y-96287845D01*
G37*
G36*
X103125756Y-96265328D02*
G01*
X103113060Y-96285985D01*
X103076957Y-96316578D01*
X103057346Y-96312284D01*
X103064836Y-96276529D01*
X103067523Y-96271283D01*
X103096205Y-96239359D01*
X103117173Y-96237663D01*
X103125756Y-96265328D01*
G37*
G36*
X102879997Y-96227127D02*
G01*
X102895921Y-96254080D01*
X102887443Y-96287945D01*
X102854207Y-96293630D01*
X102811486Y-96268810D01*
X102809830Y-96267185D01*
X102782835Y-96226541D01*
X102797874Y-96205232D01*
X102834606Y-96204768D01*
X102879997Y-96227127D01*
G37*
G36*
X103078136Y-96068673D02*
G01*
X103090993Y-96105158D01*
X103072341Y-96141792D01*
X103030895Y-96154839D01*
X102988424Y-96137600D01*
X102987741Y-96136928D01*
X102970726Y-96097178D01*
X102993111Y-96066247D01*
X103031425Y-96057504D01*
X103078136Y-96068673D01*
G37*
G36*
X103447712Y-96051808D02*
G01*
X103448404Y-96057504D01*
X103430272Y-96080639D01*
X103424577Y-96081331D01*
X103401442Y-96063199D01*
X103400749Y-96057504D01*
X103418882Y-96034369D01*
X103424577Y-96033676D01*
X103447712Y-96051808D01*
G37*
G36*
X106422909Y-95612442D02*
G01*
X106383721Y-95674138D01*
X106347956Y-95724005D01*
X106320155Y-95753340D01*
X106275217Y-95767881D01*
X106213252Y-95770344D01*
X106156247Y-95761665D01*
X106127354Y-95745108D01*
X106129912Y-95710559D01*
X106166152Y-95671865D01*
X106223691Y-95637081D01*
X106290144Y-95614259D01*
X106335516Y-95609721D01*
X106422909Y-95612442D01*
G37*
G36*
X106061475Y-95708035D02*
G01*
X106064327Y-95736313D01*
X106061475Y-95739805D01*
X106047310Y-95736534D01*
X106045590Y-95723920D01*
X106054308Y-95704308D01*
X106061475Y-95708035D01*
G37*
G36*
X106382396Y-95035302D02*
G01*
X106430795Y-95043794D01*
X106449487Y-95060449D01*
X106450656Y-95068667D01*
X106429520Y-95097148D01*
X106382769Y-95104408D01*
X106325710Y-95106411D01*
X106239102Y-95111684D01*
X106140846Y-95119125D01*
X106132581Y-95119818D01*
X106043023Y-95124795D01*
X105979076Y-95123213D01*
X105950818Y-95115410D01*
X105950280Y-95113706D01*
X105972238Y-95090008D01*
X106030677Y-95067489D01*
X106114445Y-95048759D01*
X106212389Y-95036430D01*
X106295402Y-95032926D01*
X106382396Y-95035302D01*
G37*
D13*
%TO.C,C8*%
X103710000Y-93117836D02*
X103710000Y-92902164D01*
X104430000Y-93117836D02*
X104430000Y-92902164D01*
%TO.C,C10*%
X104630000Y-82002164D02*
X104630000Y-82217836D01*
X105350000Y-82002164D02*
X105350000Y-82217836D01*
%TO.C,C17*%
X107279190Y-81961693D02*
X107431693Y-81809190D01*
X107788307Y-82470810D02*
X107940810Y-82318307D01*
%TO.C,U3*%
X97475000Y-78470000D02*
X97335000Y-78280000D01*
X97615000Y-78280000D01*
X97475000Y-78470000D01*
G36*
X97475000Y-78470000D02*
G01*
X97335000Y-78280000D01*
X97615000Y-78280000D01*
X97475000Y-78470000D01*
G37*
X100565000Y-80745000D02*
X97345000Y-80745000D01*
X97769432Y-78475000D02*
X100565000Y-78475000D01*
%TO.C,R4*%
X103240000Y-82013641D02*
X103240000Y-81706359D01*
X102480000Y-82013641D02*
X102480000Y-81706359D01*
%TO.C,R7*%
X104743641Y-75590000D02*
X104436359Y-75590000D01*
X104743641Y-74830000D02*
X104436359Y-74830000D01*
%TO.C,C15*%
X98400000Y-94882164D02*
X98400000Y-95097836D01*
X99120000Y-94882164D02*
X99120000Y-95097836D01*
%TO.C,U1*%
X98650000Y-83665000D02*
X99300000Y-83665000D01*
X98650000Y-84315000D02*
X98650000Y-83665000D01*
X98650000Y-90885000D02*
X98650000Y-90235000D01*
X99300000Y-90885000D02*
X98650000Y-90885000D01*
X105220000Y-83665000D02*
X105870000Y-83665000D01*
X105870000Y-83665000D02*
X105870000Y-84315000D01*
X105870000Y-90235000D02*
X105870000Y-90885000D01*
X105870000Y-90885000D02*
X105220000Y-90885000D01*
X98120000Y-84675000D02*
X97790000Y-84915000D01*
X97790000Y-84435000D01*
X98120000Y-84675000D01*
G36*
X98120000Y-84675000D02*
G01*
X97790000Y-84915000D01*
X97790000Y-84435000D01*
X98120000Y-84675000D01*
G37*
%TO.C,J4*%
X106180000Y-108545000D02*
X106180000Y-105785000D01*
X100990000Y-108545000D02*
X106180000Y-108545000D01*
X100990000Y-108545000D02*
X100990000Y-105785000D01*
X100990000Y-105785000D02*
X106180000Y-105785000D01*
X99720000Y-108545000D02*
X98340000Y-108545000D01*
X98340000Y-108545000D02*
X98340000Y-107165000D01*
%TO.C,R5*%
X102703641Y-92190000D02*
X102396359Y-92190000D01*
X102703641Y-92950000D02*
X102396359Y-92950000D01*
%TO.C,C12*%
X102580000Y-79282164D02*
X102580000Y-79497836D01*
X101860000Y-79282164D02*
X101860000Y-79497836D01*
%TO.C,C4*%
X97362164Y-83390000D02*
X97577836Y-83390000D01*
X97362164Y-84110000D02*
X97577836Y-84110000D01*
%TO.C,C13*%
X99567836Y-65770000D02*
X99352164Y-65770000D01*
X99567836Y-66490000D02*
X99352164Y-66490000D01*
%TO.C,C1*%
X99672164Y-77370000D02*
X99887836Y-77370000D01*
X99672164Y-78090000D02*
X99887836Y-78090000D01*
%TO.C,R2*%
X100640000Y-66753641D02*
X100640000Y-66446359D01*
X101400000Y-66753641D02*
X101400000Y-66446359D01*
%TO.C,C3*%
X107947836Y-87910000D02*
X107732164Y-87910000D01*
X107947836Y-88630000D02*
X107732164Y-88630000D01*
%TO.C,R3*%
X104330000Y-81706359D02*
X104330000Y-82013641D01*
X103570000Y-81706359D02*
X103570000Y-82013641D01*
%TO.C,C5*%
X105680000Y-82162164D02*
X105680000Y-82377836D01*
X106400000Y-82162164D02*
X106400000Y-82377836D01*
%TO.C,C6*%
X107377836Y-83410000D02*
X107162164Y-83410000D01*
X107377836Y-84130000D02*
X107162164Y-84130000D01*
%TO.C,R6*%
X97983641Y-78120000D02*
X97676359Y-78120000D01*
X97983641Y-77360000D02*
X97676359Y-77360000D01*
%TO.C,C2*%
X96932164Y-88110000D02*
X97147836Y-88110000D01*
X96932164Y-88830000D02*
X97147836Y-88830000D01*
%TO.C,C16*%
X103640000Y-95107836D02*
X103640000Y-94892164D01*
X104360000Y-95107836D02*
X104360000Y-94892164D01*
%TO.C,SW1*%
X106670000Y-69510000D02*
X106670000Y-73650000D01*
X106370000Y-69510000D02*
X106670000Y-69510000D01*
X103530000Y-69510000D02*
X103830000Y-69510000D01*
X106670000Y-73650000D02*
X106370000Y-73650000D01*
X103830000Y-73650000D02*
X103530000Y-73650000D01*
X103530000Y-73650000D02*
X103530000Y-69510000D01*
%TO.C,U4*%
X98310000Y-68580000D02*
X99310000Y-68580000D01*
X98310000Y-70100000D02*
X98310000Y-68580000D01*
X98360000Y-70100000D02*
X98310000Y-70100000D01*
X100260000Y-70100000D02*
X99480000Y-70100000D01*
X100430000Y-68580000D02*
X101430000Y-68580000D01*
X101430000Y-68580000D02*
X101430000Y-70100000D01*
X101430000Y-70100000D02*
X101380000Y-70100000D01*
X99820000Y-70880000D02*
X99490000Y-70640000D01*
X99820000Y-70400000D01*
X99820000Y-70880000D01*
G36*
X99820000Y-70880000D02*
G01*
X99490000Y-70640000D01*
X99820000Y-70400000D01*
X99820000Y-70880000D01*
G37*
%TO.C,Y1*%
X99320000Y-93270000D02*
X99320000Y-96690000D01*
X99320000Y-96690000D02*
X103440000Y-96690000D01*
%TO.C,J1*%
X97560000Y-58275000D02*
X97560000Y-56375000D01*
X97560000Y-62175000D02*
X97560000Y-60175000D01*
X106960000Y-56375000D02*
X97560000Y-56375000D01*
X106960000Y-58275000D02*
X106960000Y-56375000D01*
X106960000Y-62175000D02*
X106960000Y-60175000D01*
%TO.C,C11*%
X104750000Y-93127836D02*
X104750000Y-92912164D01*
X105470000Y-93127836D02*
X105470000Y-92912164D01*
%TO.C,J2*%
X91990000Y-57765000D02*
X93370000Y-57765000D01*
X91990000Y-59145000D02*
X91990000Y-57765000D01*
X91990000Y-60415000D02*
X91990000Y-108785000D01*
X91990000Y-60415000D02*
X94750000Y-60415000D01*
X91990000Y-108785000D02*
X94750000Y-108785000D01*
X94750000Y-60415000D02*
X94750000Y-108785000D01*
%TO.C,R1*%
X104070000Y-66466359D02*
X104070000Y-66773641D01*
X103310000Y-66466359D02*
X103310000Y-66773641D01*
%TO.C,C14*%
X99987836Y-71550000D02*
X99772164Y-71550000D01*
X99987836Y-72270000D02*
X99772164Y-72270000D01*
%TO.C,J3*%
X109770000Y-57765000D02*
X111150000Y-57765000D01*
X109770000Y-59145000D02*
X109770000Y-57765000D01*
X109770000Y-60415000D02*
X109770000Y-108785000D01*
X109770000Y-60415000D02*
X112530000Y-60415000D01*
X109770000Y-108785000D02*
X112530000Y-108785000D01*
X112530000Y-60415000D02*
X112530000Y-108785000D01*
%TO.C,C7*%
X104650000Y-78792164D02*
X104650000Y-79007836D01*
X103930000Y-78792164D02*
X103930000Y-79007836D01*
%TO.C,C9*%
X103610000Y-79282164D02*
X103610000Y-79497836D01*
X102890000Y-79282164D02*
X102890000Y-79497836D01*
%TD*%
M02*
